<?xml version="1.0" encoding="UTF-8"?>
<svg width="40px" height="40px" viewBox="0 0 40 40" version="1.1" xmlns="http://www.w3.org/2000/svg" xmlns:xlink="http://www.w3.org/1999/xlink">
    <!-- Generator: Sketch 51 (57462) - http://www.bohemiancoding.com/sketch -->
    <title>icon-contratalo</title>
    <desc>Created with Sketch.</desc>
    <defs></defs>
    <g id="Icons" stroke="none" stroke-width="1" fill="none" fill-rule="evenodd">
        <g transform="translate(-370.000000, -322.000000)" fill="#FFFFFF" fill-rule="nonzero" id="icon-contratalo">
            <g transform="translate(370.000000, 322.000000)">
                <path d="M20.0784314,40 C11.9584063,39.9987735 4.63847544,35.1068353 1.5312423,27.6048415 C-1.57599085,20.1028477 0.141241277,11.4678282 5.88235294,5.7254902 C13.7551426,-1.92045578 26.3083197,-1.82871321 34.0685164,5.93148356 C41.8287132,13.6916803 41.9204558,26.2448574 34.2745098,34.1176471 C30.5179144,37.8955503 25.4061302,40.013693 20.0784314,40 Z M20.0784314,1.44313725 C9.88941176,1.44313725 1.6,9.73254902 1.6,19.9215686 C1.6,30.1105882 9.88941176,38.4 20.0784314,38.4 C30.267451,38.4 38.5568627,30.1105882 38.5568627,19.9215686 C38.5568627,9.73254902 30.267451,1.44313725 20.0784314,1.44313725 Z" id="Shape"></path>
                <path d="M15.7584314,29.8407843 C15.0154095,29.8422439 14.3026441,29.5465762 13.7788235,29.0196078 L7.93960784,23.1796078 C7.23236205,22.4723621 6.95615112,21.4415289 7.21502104,20.4754132 C7.47389095,19.5092975 8.22851321,18.7546753 9.1946289,18.4958053 C10.1607446,18.2369354 11.1915778,18.5131464 11.8988235,19.2203922 L15.7584314,23.08 L27.5380392,11.3019608 C28.2430724,10.5831155 29.2797799,10.2981694 30.2531732,10.5556878 C31.2265666,10.8132061 31.9867402,11.5735303 32.2440657,12.5469746 C32.5013913,13.520419 32.2162398,14.55707 31.4972549,15.2619608 L17.7388235,29.0196078 C17.2149606,29.5469919 16.5017769,29.842716 15.7584314,29.8407843 Z M9.91921569,20 C9.43377167,19.9994701 8.99589219,20.2916557 8.8100491,20.7401181 C8.62420601,21.1885805 8.72706228,21.7048474 9.07058824,22.0478431 L14.9105882,27.8870588 C15.135506,28.1121156 15.4406435,28.2385628 15.7588235,28.2385628 C16.0770036,28.2385628 16.382141,28.1121156 16.6070588,27.8870588 L30.3662745,14.1301961 C30.6769974,13.8285791 30.8011144,13.3829479 30.6910461,12.9641323 C30.5809777,12.5453167 30.2537996,12.2182897 29.8349332,12.108415 C29.4160667,11.9985403 28.970493,12.1228632 28.6690196,12.4337255 L16.3247059,24.7788235 C16.0120622,25.0910727 15.5055849,25.0910727 15.1929412,24.7788235 L10.7678431,20.3529412 C10.543262,20.1269675 10.2378075,19.9999301 9.91921569,20 Z" id="Shape"></path>
                <path d="M20.0784314,37.2 C19.6366036,37.2 19.2784314,36.8418278 19.2784314,36.4 C19.2784314,35.9581722 19.6366036,35.6 20.0784314,35.6 C27.2458186,35.6081308 33.5040702,30.749611 35.2729412,23.8039216 C35.3366,23.5199745 35.5494212,23.2929877 35.8286833,23.2111887 C36.1079453,23.1293897 36.4096,23.2056807 36.6163971,23.4104082 C36.8231942,23.6151357 36.9025154,23.9160077 36.8235294,24.1960784 C34.8753986,31.851976 27.9782994,37.2081308 20.0784314,37.2 Z" id="Shape"></path>
                <path d="M36.5419608,21.4415686 L36.507451,21.4415686 C36.2954167,21.4326111 36.0956513,21.3396891 35.9522001,21.1832905 C35.808749,21.0268919 35.7333923,20.8198603 35.7427451,20.6078431 C35.7521569,20.3819608 35.7568627,20.1513725 35.7568627,19.9223529 C35.7568627,19.6365405 35.9093419,19.3724388 36.1568627,19.2295326 C36.4043836,19.0866263 36.7093419,19.0866263 36.9568628,19.2295326 C37.2043836,19.3724388 37.3568628,19.6365405 37.3568627,19.9223529 C37.3568627,20.1741176 37.3513725,20.427451 37.3411765,20.6768627 C37.3218963,21.1043676 36.9699,21.4411649 36.5419608,21.4415686 Z" id="Shape"></path>
            </g>
        </g>
    </g>
</svg>