<?xml version="1.0" encoding="UTF-8"?>
<svg width="40px" height="40px" viewBox="0 0 40 40" version="1.1" xmlns="http://www.w3.org/2000/svg" xmlns:xlink="http://www.w3.org/1999/xlink">
    <!-- Generator: Sketch 51 (57462) - http://www.bohemiancoding.com/sketch -->
    <title>icon-comparalo</title>
    <desc>Created with Sketch.</desc>
    <defs></defs>
    <g id="Icons" stroke="none" stroke-width="1" fill="none" fill-rule="evenodd">
        <g transform="translate(-430.000000, -322.000000)" fill="#FFFFFF" fill-rule="nonzero" id="icon-comparalo">
            <g transform="translate(430.000000, 322.000000)">
                <path d="M27.9711501,13.0994152 C26.8193548,13.0982352 25.673466,13.2639596 24.5692008,13.591423 C24.6127048,13.1670803 24.6345655,12.7407969 24.6346979,12.31423 C24.6400455,10.3665893 24.1785547,8.44602856 23.2888889,6.71345029 C23.1654156,6.45949786 22.914289,6.29214787 22.6323756,6.27595184 C22.3504621,6.2597558 22.0818224,6.397245 21.9300782,6.63538608 C21.7783339,6.87352715 21.7672013,7.17510077 21.9009747,7.42378168 C22.6785761,8.93825585 23.0812805,10.6172606 23.0752437,12.3196881 C23.0752437,18.2518519 18.2495127,23.079922 12.3150097,23.079922 C10.9436076,23.0819418 9.58459349,22.8204097 8.31189084,22.3095517 C8.02223324,22.1934631 7.69125883,22.261253 7.4705653,22.4818713 L5.76998051,24.1816764 L5.76998051,21.2296296 C5.7698611,20.9965257 5.66545579,20.7757013 5.48538012,20.6276803 C2.99723217,18.5870902 1.55619555,15.5375877 1.55945419,12.3196881 C1.55945419,6.38518519 6.38518519,1.55945419 12.3196881,1.55945419 C14.2037801,1.55619026 16.0553559,2.05028451 17.6873294,2.99181287 C17.9287099,3.13332115 18.227407,3.13464585 18.4700331,2.9952841 C18.7126592,2.85592235 18.8620125,2.59724241 18.8613974,2.31744117 C18.8607822,2.03763993 18.710293,1.77961917 18.4670565,1.64132554 C16.5986184,0.561466432 14.4777274,-0.00480391908 12.3196881,8.31040965e-16 C5.52592593,8.31040965e-16 1.78074786e-15,5.52592593 1.78074786e-15,12.3196881 C-0.00408121965,15.8734512 1.53168164,19.2546891 4.21052632,21.5898635 L4.21052632,26.0639376 C4.21059364,26.3792561 4.40056725,26.6634963 4.69188728,26.7841544 C4.98320732,26.9048124 5.318523,26.8381348 5.54152047,26.6152047 L8.21988304,23.9376218 C10.752152,24.8271696 13.5053565,24.8671346 16.0623782,24.051462 C16.034308,24.3851852 16.020013,24.7191683 16.0194932,25.0534113 C16.0145926,26.8574532 16.4221115,28.638748 17.2109162,30.2612086 C17.3988868,30.6487768 17.8654532,30.8105827 18.2530214,30.6226121 C18.6405897,30.4346415 18.8023955,29.9680751 18.614425,29.5805068 C17.9291535,28.1700032 17.575247,26.6215622 17.5797271,25.0534113 C17.5801057,24.4968572 17.6249528,23.9412231 17.7138402,23.3918129 C20.9684942,21.7980522 23.3603447,18.8569768 24.2573099,15.345809 C25.4424967,14.8904538 26.7014989,14.6575794 27.9711501,14.6588694 C33.7013645,14.6588694 38.3625731,19.3231969 38.3625731,25.0534113 C38.3693029,28.2223337 36.9234092,31.2195747 34.4389864,33.1867446 C34.252994,33.3344899 34.1444912,33.5589586 34.1442495,33.7964912 L34.1442495,37.2530214 L32.0093567,35.1173489 C31.8005907,34.9107978 31.4934761,34.8390674 31.2148148,34.9317739 C28.6574664,35.7686128 25.8755919,35.5842162 23.4510721,34.417154 C23.0651336,34.2391059 22.6076961,34.4029485 22.4225645,34.7855397 C22.2374329,35.1681308 22.3928161,35.6285106 22.7719298,35.8206628 C25.4096386,37.0911502 28.4211087,37.3524142 31.2382066,36.5551657 L34.3727096,39.6881092 C34.5190303,39.8340606 34.7173089,39.9159522 34.9239766,39.9157895 C35.0264748,39.9161205 35.1280064,39.8959732 35.2226121,39.8565302 C35.5136488,39.7358621 35.7034679,39.4519026 35.7037037,39.1368421 L35.7037037,34.1653021 C38.3860457,31.8996976 39.9300583,28.5645163 39.9220273,25.0534113 C39.9220273,18.4639376 34.5606238,13.0994152 27.9711501,13.0994152 Z" id="Shape"></path>
                <path d="M20.662768,32.4413255 C20.4671245,32.2348895 20.1745982,32.1513558 19.8994458,32.2233515 C19.6242934,32.2953472 19.4101692,32.5114498 19.340707,32.7872527 C19.2712449,33.0630556 19.3574654,33.3548013 19.565692,33.548538 L19.6483431,33.6265107 C19.9608967,33.8859819 20.4202967,33.8620166 20.704156,33.5714328 C20.9880152,33.280849 21.0012196,32.8210138 20.7345029,32.5146199 L20.662768,32.4413255 Z" id="Shape"></path>
                <path d="M20.2222222,5.01988304 C20.3690013,5.17989083 20.5758524,5.27144791 20.7929825,5.27251462 C20.9930723,5.27243708 21.1856608,5.19634928 21.3317739,5.05964912 C21.5696724,4.84311875 21.6533612,4.50441432 21.5436851,4.20200352 C21.4340091,3.89959272 21.1526571,3.69327847 20.8312638,3.67958783 C20.5098704,3.66589719 20.2119924,3.84753754 20.0769963,4.13952585 C19.9420002,4.43151416 19.9965819,4.77610861 20.2152047,5.01208577 L20.2222222,5.01988304 Z" id="Shape"></path>
                <path d="M8.92631579,9.62729045 C8.66323776,9.36429187 8.25101342,9.32375744 7.94174754,9.53047685 C7.63248166,9.73719627 7.5123113,10.1335938 7.65472925,10.477244 C7.79714721,10.8208941 8.16248709,11.0160831 8.52731733,10.9434388 C8.89214757,10.8707944 9.15485527,10.5505498 9.15477583,10.1785575 C9.1542214,9.97187985 9.07212034,9.7737725 8.92631579,9.62729045 Z" id="Shape"></path>
                <path d="M16.8109162,10.7290448 C17.0739148,10.4659668 17.1144492,10.0537425 16.9077298,9.74447658 C16.7010104,9.43521071 16.3046128,9.31504034 15.9609626,9.4574583 C15.6173125,9.59987625 15.4221235,9.96521613 15.4947679,10.3300464 C15.5674122,10.6948766 15.8876568,10.9575843 16.2596491,10.9575049 C16.4663437,10.957035 16.664482,10.8749211 16.8109162,10.7290448 Z" id="Shape"></path>
                <path d="M12.3196881,17.9040936 C13.9775659,17.9025979 15.4279517,16.7882693 15.8565302,15.1867446 C15.9676331,14.7698935 15.7197751,14.3419021 15.302924,14.2307992 C14.8860728,14.1196963 14.4580815,14.3675543 14.3469786,14.7844055 C14.1016741,15.7042804 13.2685903,16.3443176 12.3165692,16.3443176 C11.3645481,16.3443176 10.5314643,15.7042804 10.2861598,14.7844055 C10.1694897,14.3751667 9.74624607,14.1350528 9.33511239,14.2448587 C8.92397871,14.3546646 8.67681616,14.7738311 8.7797271,15.1867446 C9.20860592,16.7893887 10.6606507,17.904009 12.3196881,17.9040936 Z" id="Shape"></path>
                <path d="M24.1598441,22.188694 C23.7878517,22.1886145 23.4676071,22.4513222 23.3949628,22.8161525 C23.3223185,23.1809827 23.5175074,23.5463226 23.8611576,23.6887405 C24.2048077,23.8311585 24.6012053,23.7109881 24.8079247,23.4017222 C25.0146441,23.0924564 24.9741097,22.680232 24.7111111,22.417154 C24.5645338,22.2714925 24.3664879,22.1894169 24.1598441,22.188694 Z" id="Shape"></path>
                <path d="M32.3329435,23.5189084 C32.595942,23.2558304 32.6364765,22.843606 32.4297571,22.5343401 C32.2230376,22.2250743 31.8266401,22.1049039 31.4829899,22.2473218 C31.1393398,22.3897398 30.9441508,22.7550797 31.0167952,23.1199099 C31.0894395,23.4847402 31.4096841,23.7474479 31.7816764,23.7473684 C31.988456,23.7473243 32.1867503,23.6651457 32.3329435,23.5189084 Z" id="Shape"></path>
                <path d="M27.9711501,26.8358674 C26.3568828,26.8379865 24.9448509,27.9229845 24.5270955,29.4822612 C24.4241846,29.8951747 24.6713471,30.3143413 25.0824808,30.4241472 C25.4936145,30.533953 25.9168582,30.2938391 26.0335283,29.8846004 C26.2677955,29.0069293 27.0627517,28.3963306 27.9711501,28.3963306 C28.8795485,28.3963306 29.6745047,29.0069293 29.9087719,29.8846004 C29.9995791,30.2260678 30.3086529,30.4637923 30.6619883,30.4639376 C30.729973,30.4640185 30.7976518,30.4548372 30.8631579,30.4366472 C31.2791081,30.3254925 31.5262429,29.8982426 31.4152047,29.4822612 C30.9976866,27.9228261 29.5855094,26.8377164 27.9711501,26.8358674 Z" id="Shape"></path>
            </g>
        </g>
    </g>
</svg>