<?xml version="1.0" encoding="UTF-8"?>
<svg width="40px" height="40px" viewBox="0 0 40 40" version="1.1" xmlns="http://www.w3.org/2000/svg" xmlns:xlink="http://www.w3.org/1999/xlink">
    <!-- Generator: Sketch 51 (57462) - http://www.bohemiancoding.com/sketch -->
    <title>icon-buscalo</title>
    <desc>Created with Sketch.</desc>
    <defs></defs>
    <g id="Icons" stroke="none" stroke-width="1" fill="none" fill-rule="evenodd">
        <g transform="translate(-490.000000, -323.000000)" fill="#FFFFFF" fill-rule="nonzero" id="icon-buscalo">
            <g transform="translate(490.000000, 323.000000)">
                <path d="M13.3335937,25 L2.5,25 C1.11928813,25 1.69088438e-16,23.8807119 0,22.5 L0,2.5 C-1.69088438e-16,1.11928813 1.11928813,2.53632657e-16 2.5,0 L30.8335937,0 C32.2143056,8.45442189e-17 33.3335937,1.11928813 33.3335937,2.5 L33.3335937,17.5 L31.6664062,17.5 L31.6664062,2.5 C31.6664065,2.03992381 31.2936697,1.66683744 30.8335937,1.66640625 L2.5,1.66640625 C2.03961888,1.66640625 1.66640625,2.03961888 1.66640625,2.5 L1.66640625,22.5 C1.66640625,22.7210828 1.75423105,22.9331106 1.91056021,23.0894398 C2.06688936,23.2457689 2.27891719,23.3335938 2.5,23.3335938 L13.3335937,23.3335938 L13.3335937,25 Z" id="Shape"></path>
                <polygon id="Shape" points="10 24.1664062 11.6664062 24.1664062 11.6664062 29.1664062 10 29.1664062"></polygon>
                <path d="M7.5,21.6664062 L5.83359375,21.6664062 C4.45288188,21.6664062 3.33359375,20.5471181 3.33359375,19.1664062 L3.33359375,17.5 L5,17.5 L5,19.1664062 C5,19.6267874 5.37321263,20 5.83359375,20 L7.5,20 L7.5,21.6664062 Z" id="Shape"></path>
                <polygon id="Shape" points="3.33359375 14.1664062 5 14.1664062 5 15.8335937 3.33359375 15.8335937"></polygon>
                <path d="M24.053125,33.1078125 C19.7332467,33.1080865 16.0147827,30.0567073 15.1718964,25.8198581 C14.3290101,21.5830088 16.5964707,17.3407792 20.5875292,15.6876608 C24.5785877,14.0345423 29.1816146,15.4309781 31.5814595,19.0229265 C33.9813044,22.6148749 33.5095385,27.4018705 30.4546875,30.45625 C28.7567365,32.1538176 26.4541192,33.1075744 24.053125,33.1078125 Z M24.053125,16.6664063 C20.5284834,16.6648349 17.4935282,19.1531878 16.8042179,22.6097689 C16.1149076,26.0663499 17.9632112,29.5285207 21.2188403,30.8790688 C24.4744695,32.2296169 28.2307497,31.0924223 30.1906126,28.1629106 C32.1504755,25.233399 31.7681103,21.3274228 29.2773438,18.8335938 C27.8923188,17.4468658 26.0130504,16.66728 24.053125,16.6664063 Z" id="Shape"></path>
                <path d="M36.8414062,40 C36.6203141,40.000231 36.408274,39.9122091 36.2523438,39.7554688 L31.021875,34.5210938 C30.8653933,34.3649988 30.7774502,34.1530564 30.7774502,33.9320313 C30.7774502,33.7110061 30.8653933,33.4990637 31.021875,33.3429688 L33.346875,31.0179688 C33.5029699,30.8614871 33.7149123,30.773544 33.9359375,30.773544 C34.1569627,30.773544 34.3689051,30.8614871 34.525,31.0179688 L39.7554688,36.25 C39.9119504,36.4060949 39.9998935,36.6180373 39.9998935,36.8390625 C39.9998935,37.0600877 39.9119504,37.2720301 39.7554688,37.428125 L37.4304688,39.753125 C37.2747275,39.9104329 37.0627669,39.9992652 36.8414062,40 Z M32.7890625,33.9351563 L36.8414063,37.9882813 L37.9882812,36.8414063 L33.9359375,32.7882813 L32.7890625,33.9351563 Z" id="Shape"></path>
                <polygon id="Shape" points="29.2773438 30.4554687 30.45625 29.2765625 33.3625 32.1828125 32.1875 33.359375"></polygon>
                <path d="M30,24.1664063 L28.3335938,24.1664063 C28.3301508,21.8664863 26.4663268,20.0030117 24.1664062,20 L24.1664062,18.3335938 C27.3864786,18.3370377 29.9961248,20.9463344 30,24.1664063 Z" id="Shape"></path>
                <polygon id="Shape" points="8.33359375 28.3335938 15 28.3335938 15 30 8.33359375 30"></polygon>
                <path d="M12.5,8.33359375 C11.1192881,8.33359375 10,7.21430562 10,5.83359375 C10,4.45288188 11.1192881,3.33359375 12.5,3.33359375 C13.8807119,3.33359375 15,4.45288188 15,5.83359375 C15,7.21430562 13.8807119,8.33359375 12.5,8.33359375 Z M12.5,5 C12.0396189,5 11.6664063,5.37321263 11.6664063,5.83359375 C11.6664063,6.29397487 12.0396189,6.6671875 12.5,6.6671875 C12.9603811,6.6671875 13.3335937,6.29397487 13.3335937,5.83359375 C13.3335937,5.37321263 12.9603811,5 12.5,5 Z" id="Shape"></path>
                <path d="M18.3335938,14.1664062 C17.3224381,14.1664062 16.4108474,13.5573008 16.0238949,12.6231148 C15.6369424,11.6889289 15.8508318,10.6136343 16.5658268,9.8986393 C17.2808218,9.18364431 18.3561164,8.96975492 19.2903023,9.35670742 C20.2244883,9.74365992 20.8335938,10.6552506 20.8335938,11.6664063 C20.8335938,13.0471181 19.7143056,14.1664062 18.3335938,14.1664062 Z M18.3335938,10.8335938 C17.9962946,10.8332778 17.692047,11.0362605 17.5628222,11.3478239 C17.4335974,11.6593874 17.5048664,12.0181203 17.7433731,12.2566269 C17.9818797,12.4951336 18.3406126,12.5664026 18.6521761,12.4371778 C18.9637395,12.307953 19.1667222,12.0037054 19.1664063,11.6664062 C19.1659756,11.2066351 18.7933649,10.8340244 18.3335938,10.8335937 Z" id="Shape"></path>
                <polygon id="Shape" points="6.9109375 10.2445313 11.0773438 6.07734375 12.25625 7.25625 8.0890625 11.4226562"></polygon>
                <polygon id="Shape" points="12.740625 7.25859375 13.91875 6.0796875 18.0859375 10.2460937 16.9070313 11.425"></polygon>
                <path d="M24.1664062,8.33359375 C22.7856944,8.33359375 21.6664062,7.21430562 21.6664062,5.83359375 C21.6664062,4.45288188 22.7856944,3.33359375 24.1664062,3.33359375 C25.5471181,3.33359375 26.6664062,4.45288188 26.6664062,5.83359375 C26.6664062,7.21430562 25.5471181,8.33359375 24.1664062,8.33359375 Z M24.1664062,5 C23.7060251,5 23.3328125,5.37321263 23.3328125,5.83359375 C23.3328125,6.29397487 23.7060251,6.6671875 24.1664062,6.6671875 C24.6267874,6.6671875 25,6.29397487 25,5.83359375 C25,5.37321263 24.6267874,5 24.1664062,5 Z" id="Shape"></path>
                <polygon id="Shape" points="18.5773438 10.246875 22.74375 6.08046875 23.921875 7.259375 19.7554688 11.4257812"></polygon>
            </g>
        </g>
    </g>
</svg>