<svg xmlns="http://www.w3.org/2000/svg" viewBox="0 0 1022.18 162.09"><defs><style>.cls-1{fill:#fff;}.cls-2{fill:#96c;}</style></defs><title>Recurso 1</title><g id="Capa_2" data-name="Capa 2"><g id="Modo_de_aislamiento" data-name="Modo de aislamiento"><path class="cls-1" d="M0,6.74H75.66V35H28.81V62.7H75.66V90.58H28.81v68.61H0Z"/><path class="cls-1" d="M91.72,46.43H116v14.2a30.33,30.33,0,0,1,10.47-12.75,25.26,25.26,0,0,1,14.3-4.35,26.49,26.49,0,0,1,11.5,2.9l-8.81,24.35q-5-2.48-8.18-2.48-6.54,0-11,8.08t-4.51,31.71l.11,5.5v45.6H91.72Z"/><path class="cls-1" d="M434.86,2.9h28.3V159.19h-28.3Z"/><path class="cls-1" d="M541.82,43.53a59.75,59.75,0,0,1,30,8,58.52,58.52,0,0,1,29.8,51.2,59.25,59.25,0,0,1-7.93,29.84,57.18,57.18,0,0,1-21.61,21.71,59.63,59.63,0,0,1-30.16,7.83,56.21,56.21,0,0,1-41.4-17.26q-17.16-17.25-17.15-41.92,0-26.43,19.38-44Q519.75,43.53,541.82,43.53Zm.47,26.63a29.15,29.15,0,0,0-22,9.17q-8.78,9.18-8.77,23.48,0,14.72,8.66,23.84t22,9.12a29.32,29.32,0,0,0,22.11-9.23q8.82-9.23,8.83-23.73t-8.67-23.58Q555.78,70.17,542.29,70.16Z"/><path class="cls-1" d="M708,2.9h28.29V159.19H708V147.27a55.54,55.54,0,0,1-16.62,11.35,46.53,46.53,0,0,1-18.06,3.47q-21.84,0-37.78-17T619.55,103q0-26.13,15.42-42.81t37.47-16.68a47.74,47.74,0,0,1,19,3.83A52,52,0,0,1,708,58.87ZM678.21,69.64a28.62,28.62,0,0,0-21.8,9.28q-8.67,9.27-8.67,23.79t8.83,24a28.58,28.58,0,0,0,21.74,9.43q13.32,0,22.1-9.28t8.78-24.3q0-14.71-8.78-23.84T678.21,69.64Z"/><path class="cls-1" d="M775.88,0a17.33,17.33,0,0,1,12.77,5.39A17.92,17.92,0,0,1,794,18.45a17.71,17.71,0,0,1-5.27,12.9,17.11,17.11,0,0,1-12.61,5.34,17.37,17.37,0,0,1-12.87-5.44A18.25,18.25,0,0,1,757.9,18a17.4,17.4,0,0,1,5.27-12.74A17.29,17.29,0,0,1,775.88,0ZM761.74,46.43H790V159.19H761.74Z"/><path class="cls-1" d="M884.75,62.18,867.24,79.7q-10.68-10.58-19.38-10.57-4.77,0-7.46,2a6.06,6.06,0,0,0-2.7,5,6.19,6.19,0,0,0,1.71,4.2q1.71,1.92,8.45,5.23l10.36,5.19q16.38,8.08,22.49,16.47a32.56,32.56,0,0,1,6.12,19.7,32.53,32.53,0,0,1-11,25.08q-11,10.05-29.59,10.05-24.66,0-39.38-19.28l17.41-19a40.32,40.32,0,0,0,11.66,9.38q6.69,3.57,11.87,3.57a14.17,14.17,0,0,0,9-2.69q3.42-2.7,3.42-6.22,0-6.52-12.33-12.75l-9.53-4.77Q811,96.6,811,75.86,811,62.5,821.28,53t26.37-9.48a45.75,45.75,0,0,1,37.1,18.65Z"/><path class="cls-1" d="M1022.08,111H931.19q2,12,10.52,19.12t21.81,7.1a37.74,37.74,0,0,0,27.26-11.09l23.83,11.19A56.26,56.26,0,0,1,993.26,156q-12.43,6.06-29.53,6.06-26.54,0-43.22-16.74t-16.68-41.92q0-25.8,16.63-42.85t41.71-17q26.64,0,43.32,17t16.69,45Zm-28.3-22.29a28.37,28.37,0,0,0-11-15.33,32.08,32.08,0,0,0-19.16-5.91,33.87,33.87,0,0,0-20.76,6.63q-5.61,4.16-10.38,14.61Z"/><path class="cls-2" d="M277,105.82c0-18.66-5.57-33.77-16.69-45.14S234.72,43.58,217,43.58q-25.08,0-41.72,17t-16.63,42.84q0,25.19,16.69,41.92t43.21,16.73q17.1,0,29.54-6.06a56.24,56.24,0,0,0,21.35-18.71l-23.84-11.19a37.72,37.72,0,0,1-27.25,11.09c-8.85,0-16.12-2.16-21.82-6.89A29.77,29.77,0,0,1,186,111.42h90.89ZM187.22,88.71Q192,78.26,197.61,74.1a33.87,33.87,0,0,1,20.76-6.63,32,32,0,0,1,19.15,5.91,28.39,28.39,0,0,1,11.06,15.33C217.34,79.29,187.22,88.71,187.22,88.71Z"/><path class="cls-2" d="M295.42,111.42h90.89a29.77,29.77,0,0,1-10.52,18.91c-5.7,4.73-13,6.9-21.82,6.9a37.76,37.76,0,0,1-27.26-11.09l-23.83,11.19A56.3,56.3,0,0,0,324.23,156q12.43,6.06,29.53,6.06,26.53,0,43.22-16.73t16.69-41.92q0-25.8-16.64-42.84t-41.71-17q-26.64,0-43.32,17.1C300.88,72,295.31,87.16,295.31,105.82Zm28.29-22.71a28.34,28.34,0,0,1,11.06-15.33,32,32,0,0,1,19.15-5.91,33.87,33.87,0,0,1,20.76,6.63q5.61,4.16,10.38,14.61S355,79.29,323.71,88.71Z"/></g></g></svg>