<svg xmlns="http://www.w3.org/2000/svg" xmlns:xlink="http://www.w3.org/1999/xlink" viewBox="0 0 41.6 38.68"><defs><style>.cls-1{fill:none;}.cls-2{clip-path:url(#clip-path);}</style><clipPath id="clip-path" transform="translate(0 -0.2)"><rect class="cls-1" width="42" height="39.84"/></clipPath></defs><title>icon-heart</title><g id="Capa_2" data-name="Capa 2"><g id="Capa_1-2" data-name="Capa 1"><g class="cls-2"><path d="M41.53,11.73C40.92,5.05,36.19.2,30.27.2a11.22,11.22,0,0,0-9.59,5.53A10.76,10.76,0,0,0,11.33.2C5.41.2.68,5.05.07,11.73a11.79,11.79,0,0,0,.35,4.39,18.89,18.89,0,0,0,5.76,9.61l14.5,13.15L35.41,25.73a18.84,18.84,0,0,0,5.77-9.61,12.31,12.31,0,0,0,.35-4.39Zm-1.91,4a17.22,17.22,0,0,1-5.28,8.79L20.68,36.73,7.26,24.54A17.15,17.15,0,0,1,2,15.75,10.25,10.25,0,0,1,1.65,12v-.08c.52-5.85,4.59-10.1,9.67-10.1a9.37,9.37,0,0,1,8.61,6l.74,1.74.74-1.74a9.64,9.64,0,0,1,8.85-6C35.35,1.81,39.42,6.06,40,12a10.6,10.6,0,0,1-.33,3.77Z" transform="translate(0 -0.2)"/></g></g></g></svg>