<svg xmlns="http://www.w3.org/2000/svg" xmlns:xlink="http://www.w3.org/1999/xlink" viewBox="0 0 235.85 235.77"><defs><style>.cls-1{fill:none;}.cls-2{clip-path:url(#clip-path);}</style><clipPath id="clip-path" transform="translate(0)"><rect class="cls-1" width="235.92" height="236"/></clipPath></defs><title>icon-user-nav</title><g id="Capa_2" data-name="Capa 2"><g id="Capa_1-2" data-name="Capa 1"><g class="cls-2"><path d="M201.32,34.49A117.93,117.93,0,0,0,7,157.91a4.8,4.8,0,1,0,9-3.26,108.33,108.33,0,1,1,180.43,37.81l-.69.74c-.41.43-.81.87-1.23,1.29a108.47,108.47,0,0,1-153.22,0l-.66-.69c0-.44,0-.87,0-1.3,0-1,0-1.93,0-2.89l.06-1c0-.64.06-1.28.1-1.91,0-.38.07-.76.11-1.13,0-.57.09-1.15.16-1.72,0-.39.1-.79.15-1.19s.13-1.09.21-1.62.13-.82.2-1.22.17-1.06.27-1.57.16-.83.24-1.24.21-1,.32-1.53.2-.82.29-1.23.24-1,.37-1.49.23-.82.34-1.23l.42-1.47c.12-.4.25-.81.39-1.21s.3-1,.46-1.44.29-.81.43-1.21.34-.94.52-1.41.31-.79.47-1.19.37-.93.57-1.39.34-.78.51-1.17.41-.91.62-1.36.36-.77.55-1.15.44-.9.67-1.34l.58-1.13.72-1.32.63-1.09c.25-.44.5-.87.76-1.3l.67-1.07c.26-.43.54-.85.81-1.27s.46-.7.7-1,.57-.83.86-1.24l.73-1c.3-.41.61-.81.91-1.21l.77-1c.31-.39.63-.79,1-1.18l.79-1,1-1.15.82-.92,1.06-1.13.85-.89,1.11-1.09.88-.85,1.16-1.07.89-.81c.4-.35.82-.7,1.23-1l.9-.76,1.29-1c.31-.23.61-.47.91-.71l1.39-1,.88-.64c.51-.36,1-.71,1.56-1.06l.77-.52c.69-.44,1.38-.88,2.08-1.3l.32-.2c.82-.48,1.64-1,2.47-1.41.28-.16.57-.3.86-.46.55-.29,1.1-.59,1.66-.87L84.2,123l1.38-.66a46.7,46.7,0,0,0,64.7,0,78.13,78.13,0,0,1,38.43,39.12,4.8,4.8,0,1,0,8.79-3.87,86.53,86.53,0,0,0-40.82-42.8,46.82,46.82,0,0,0-38.75-73.2,4.8,4.8,0,0,0,0,9.6,37.23,37.23,0,0,1,27.67,62.21h0a37.13,37.13,0,0,1-55.32,0h0A37.2,37.2,0,0,1,91.7,61.93,4.8,4.8,0,0,0,85,55.1a46.79,46.79,0,0,0-5.79,59.63l-.14.07-1.11.58c-.57.29-1.14.58-1.7.89l-1.18.67c-.52.29-1,.59-1.57.9s-.79.48-1.19.72-1,.61-1.48.93l-1.19.78-1.41,1-1.17.83-1.36,1-1.14.87-1.31,1-1.12.92L60.83,127l-1.08,1L58.53,129l-1,1-1.19,1.17-1,1-1.15,1.22-.95,1-1.12,1.29-.9,1-1.1,1.37-.82,1c-.39.5-.76,1-1.13,1.51-.24.32-.48.63-.71,1-.47.65-.93,1.32-1.39,2l-.36.52c-.57.85-1.12,1.7-1.65,2.57-.19.29-.36.6-.54.9-.35.57-.7,1.15-1,1.73-.21.37-.41.74-.6,1.1q-.45.8-.87,1.59c-.21.4-.41.8-.61,1.2s-.52,1-.77,1.55-.39.83-.58,1.25-.48,1-.71,1.55l-.54,1.29c-.22.52-.43,1-.64,1.55s-.34.88-.51,1.32-.39,1.05-.58,1.58-.31.89-.46,1.35-.35,1.05-.52,1.59l-.42,1.36c-.16.54-.31,1.08-.46,1.62s-.25.92-.37,1.38-.28,1.1-.41,1.65-.22.92-.32,1.38-.23,1.13-.35,1.69l-.27,1.38c-.1.58-.2,1.16-.29,1.74s-.15.91-.22,1.36c-.08.6-.16,1.2-.23,1.8-.06.44-.12.89-.17,1.34-.07.62-.12,1.26-.17,1.89,0,.42-.09.84-.12,1.27-.05.7-.08,1.41-.11,2.12,0,.36-.05.7-.06,1.06,0,1.07-.06,2.13-.06,3.21s0,2.25.08,3.46a7,7,0,0,0,.11.82s0,0,0,.06a5.63,5.63,0,0,0,.24.76s0,0,0,.07a4.52,4.52,0,0,0,.36.69.56.56,0,0,1,.05.08,4.51,4.51,0,0,0,.48.6l0,0,.63.68c.48.51,1,1,1.46,1.52a118.07,118.07,0,0,0,166.79,0c.5-.5,1-1,1.46-1.52l.63-.68a117.91,117.91,0,0,0-2.09-164.59Z" transform="translate(0)"/></g></g></g></svg>