<svg xmlns="http://www.w3.org/2000/svg" viewBox="0 0 68.04 18.17"><title>icon-mas</title><g id="Capa_2" data-name="Capa 2"><g id="Capa_1-2" data-name="Capa 1"><path d="M18.17,9.09a9.09,9.09,0,1,0-9.09,9.08,9.1,9.1,0,0,0,9.09-9.08Zm-15,0A5.89,5.89,0,1,1,9.08,15,5.89,5.89,0,0,1,3.2,9.09Z"/><path d="M43.1,9.09A9.08,9.08,0,1,0,34,18.17,9.09,9.09,0,0,0,43.1,9.09ZM34,15a5.89,5.89,0,1,1,5.89-5.88A5.89,5.89,0,0,1,34,15Z"/><path d="M59,0A9.09,9.09,0,1,0,68,9.09,9.09,9.09,0,0,0,59,0Zm0,15a5.89,5.89,0,1,1,5.88-5.88A5.89,5.89,0,0,1,59,15Z"/></g></g></svg>