<svg xmlns="http://www.w3.org/2000/svg" viewBox="0 0 512 512"><title>icon-contratalo</title><g id="Capa_2" data-name="Capa 2"><g id="Layer_1" data-name="Layer 1"><path d="M256,512A256,256,0,0,1,75,75,256,256,0,0,1,437,437,254.33,254.33,0,0,1,256,512Zm0-491.6C126.09,20.4,20.4,126.09,20.4,256S126.09,491.6,256,491.6,491.6,385.91,491.6,256,385.91,20.4,256,20.4Z"/><path d="M200.92,382.47A35.49,35.49,0,0,1,175.68,372l-74.45-74.46a35.69,35.69,0,1,1,50.48-50.48l49.21,49.21L351.11,146.1a35.7,35.7,0,1,1,50.48,50.49L226.17,372A35.46,35.46,0,0,1,200.92,382.47ZM126.47,257a15.29,15.29,0,0,0-10.82,26.11l74.46,74.45a15.29,15.29,0,0,0,21.63,0L387.17,182.16a15.3,15.3,0,1,0-21.64-21.63L208.14,317.93a10.21,10.21,0,0,1-14.43,0L137.29,261.5A15.25,15.25,0,0,0,126.47,257Z"/><path d="M256,476.3a10.2,10.2,0,1,1,0-20.4A199.68,199.68,0,0,0,449.73,305.5a10.2,10.2,0,1,1,19.77,5A220.07,220.07,0,0,1,256,476.3Z"/><path d="M465.91,275.38h-.44a10.19,10.19,0,0,1-9.75-10.63c.12-2.88.18-5.82.18-8.74a10.2,10.2,0,1,1,20.4,0c0,3.21-.07,6.44-.2,9.62A10.21,10.21,0,0,1,465.91,275.38Z"/></g></g></svg>