<svg xmlns="http://www.w3.org/2000/svg" viewBox="0 0 409.6 327.48"><title>icon-personal</title><g id="Capa_2" data-name="Capa 2"><g id="Capa_1-2" data-name="Capa 1"><path d="M267.35,244.25A27,27,0,0,0,247,218l14.33-14.34A27.3,27.3,0,1,0,222.73,165l-12.32,12.32A27.2,27.2,0,0,0,164.81,165l-17.16,17.15a27.2,27.2,0,0,0-45.59-12.33L53.64,218.25H6.83a6.83,6.83,0,0,0,0,13.66H43.15c-3.86,9.89-1.92,21.92,5.8,29.64a27.25,27.25,0,0,0,31.35,5.06,26.58,26.58,0,0,0,7.28,14.26A27.26,27.26,0,0,0,118.7,286a27.15,27.15,0,0,0,38.62,19.31,27.3,27.3,0,0,0,46.11,14.13l55.92-55.93a27.09,27.09,0,0,0,8-19.3ZM58.61,251.91a13.66,13.66,0,0,1,0-19.32l2.68-2.68,50.42-50.42a13.65,13.65,0,0,1,19.31,0,14,14,0,0,1,0,19.31l-53.1,53.1a13.69,13.69,0,0,1-19.31,0Zm38.62,19.31a13.65,13.65,0,0,1,0-19.31l77.23-77.24a13.65,13.65,0,0,1,19.31,0,14,14,0,0,1,0,19.3l-30,30-37.55,37.55h0l-9.64,9.65a13.68,13.68,0,0,1-19.31,0Zm38.61,19.3a13.68,13.68,0,0,1,0-19.3l37.56-37.56,59-59a13.64,13.64,0,0,1,19.3,0,14,14,0,0,1,0,19.3l-30.95,31h0l-65.57,65.58a13.69,13.69,0,0,1-19.32,0Zm48.27,23.31a13.66,13.66,0,0,1-9.65-23.31l55.95-55.95a13.67,13.67,0,0,1,19.29,0,14,14,0,0,1,0,19.32l-55.92,55.92a13.58,13.58,0,0,1-9.67,4Z"/><path d="M170.67,27.31a6.83,6.83,0,0,0,0-13.66c-49.35,0-78.43,20.6-95.8,32.91-5.07,3.59-11.38,8-13.43,8H6.83a6.83,6.83,0,0,0,0,13.66H61.44c6.39,0,12.66-4.43,21.32-10.58,17.09-12.1,42.9-30.38,87.91-30.38Z"/><path d="M382.29,225.08a6.83,6.83,0,0,0,6.83,6.83h13.65a6.83,6.83,0,1,0,0-13.66H389.12a6.83,6.83,0,0,0-6.83,6.83Z"/><path d="M178.64,44c-10.7,16.06-39.95,66.49-41.39,69a14.24,14.24,0,0,0,.91,14.26c6.16,10,23.09,16.1,32.51,16.1,13.11,0,21.08-9.2,29.52-19,2.92-3.38,6-6.87,9.44-10.36l34.13-34.13c2.27-2.26,4.4-4.4,5.05-4.69a20.31,20.31,0,0,1,3.26-.14c4.31,1.61,18.73,14.22,29.6,25.08l68.47,75.3c1.95,2,4.85,6.18,4.85,8.85v61.44a13.66,13.66,0,0,1-27.31,0V198c0-9.38-7.93-17.57-8.83-18.48l-47.78-47.78a6.83,6.83,0,0,0-9.66,9.65l47.77,47.77c1.95,2,4.85,6.17,4.85,8.84v68.27a13.66,13.66,0,0,1-27.31,0V211.63a6.83,6.83,0,1,0-13.65,0v75.09a13.65,13.65,0,0,1-22.76,10.18,6.82,6.82,0,1,0-9.11,10.16,27.19,27.19,0,0,0,45.23-17.47,27,27,0,0,0,13.94,4,27.26,27.26,0,0,0,27-24.44,26.92,26.92,0,0,0,13.93,4,27.33,27.33,0,0,0,27.31-27.31V184.32c0-9.38-7.92-17.57-8.6-18.25L291.55,90.75c-29.31-29.31-36.57-29.31-39-29.31-9.06,0-10.77,1.11-18.48,8.83L200,104.4c-3.83,3.83-7.16,7.68-10.1,11.07-8.1,9.35-12.64,14.24-19.21,14.24-8.61,0-21.2-7.35-21.39-10.23.29-.52,30.26-52.19,40.73-67.91,11.77-17.65,30.3-37.92,69.41-37.92,29.3,0,69,23,95.31,38.29,18.78,10.89,28.09,16.13,34.4,16.13h13.65a6.83,6.83,0,1,0,0-13.66H389.2c-3.47-.27-16.31-7.71-27.63-14.28C332.38,23.2,292.39,0,259.41,0c-46.1,0-68.18,25.12-80.77,44Z"/></g></g></svg>