<svg xmlns="http://www.w3.org/2000/svg" viewBox="0 0 36.48 39.08"><defs><style>.cls-1{fill:#010101;}</style></defs><title>icon-entretenimiento</title><g id="Capa_2" data-name="Capa 2"><g id="Capa_1-2" data-name="Capa 1"><path class="cls-1" d="M17.28,12.13l.1,0,.15,0,8.08-2.54L27.32,9l2.54-.79L36,6.24a.65.65,0,0,0,.43-.82h0l-1.56-5s0,0,0,0a.51.51,0,0,0-.09-.16l0-.05h0a.44.44,0,0,0-.15-.12l0,0-.17,0H34.3a.58.58,0,0,0-.23,0L15.87,5.74l-1.69.53-2.89.91L3,9.77H.65a.65.65,0,0,0-.65.65V37.13a2,2,0,0,0,2,1.95H34.52a2,2,0,0,0,2-1.95V15.63s0,0,0,0a.39.39,0,0,0,0-.18.43.43,0,0,1,0-.05v0a.61.61,0,0,0-.12-.16l0,0-.15-.1-.06,0a.85.85,0,0,0-.22,0H9l-.17-.21ZM33.22,1.66,31.59,6.27,29.42,7l-1.25.39L29.8,2.73l1.05-.32ZM8.29,13.58,9.92,9,13.34,7.9l-1.63,4.61-2.11.66Zm20-10.36L26.62,7.83,23.2,8.9l1.63-4.61.42-.13Zm-6.6,6.17-3.42,1.07,1.63-4.61,3.42-1.07Zm-5,1.56L13.26,12l1.63-4.6L18.3,6.34ZM7.22,12.7,5.38,10.4l3-.94ZM33.15,5.78l1.08-3.07L35,5.2ZM1.3,11.07h3l3,3.77h0l1,1.19h0l.45.58.08.09h0l.37.46v3H1.3ZM35.18,37.13a.66.66,0,0,1-.66.65H2a.65.65,0,0,1-.65-.65V21.49H35.18Zm0-16.94h-2l2-2.61Zm-3.59,0H28l2.93-3.91h3.58Zm-5.21,0H22.8l2.93-3.91h3.58Zm-5.21,0H17.59l2.93-3.91H24.1Zm-5.21,0H12.38l2.93-3.91h3.58Zm-5.21,0h-.33V16.93a.65.65,0,0,0-.14-.4l-.19-.24h3.59Z"/><rect class="cls-1" x="2.59" y="17.58" width="1.3" height="1.3"/><rect class="cls-1" x="2.59" y="12.37" width="1.3" height="1.3"/><rect class="cls-1" x="6.59" y="17.58" width="1.3" height="1.3"/><rect class="cls-1" x="3.91" y="25.4" width="28.66" height="1.3"/><polygon class="cls-1" points="3.91 31.91 12.38 31.91 12.38 35.82 13.68 35.82 13.68 31.91 22.8 31.91 22.8 35.82 24.1 35.82 24.1 31.91 32.57 31.91 32.57 30.61 3.91 30.61 3.91 31.91"/></g></g></svg>