<svg xmlns="http://www.w3.org/2000/svg" viewBox="0 0 152.69 235.87"><title>icon-ubiety</title><g id="Capa_2" data-name="Capa 2"><g id="Capa_1-2" data-name="Capa 1"><path d="M76.34,0A76.43,76.43,0,0,0,0,76.34c0,37.65,26.11,87,48,121.76A4.8,4.8,0,1,0,56.14,193C17.68,131.93,9.6,95.86,9.6,76.34a66.75,66.75,0,0,1,133.49,0c0,59.77-69.84,150.89-70.54,151.8A4.8,4.8,0,0,0,80.14,234c3-3.83,72.55-94.62,72.55-157.67A76.43,76.43,0,0,0,76.34,0Z"/><path d="M76.34,52a4.8,4.8,0,0,0,0-9.6,33.95,33.95,0,1,0,34,33.94,33.58,33.58,0,0,0-6.9-20.5,4.8,4.8,0,1,0-7.64,5.8,24.13,24.13,0,0,1,4.94,14.7A24.35,24.35,0,1,1,76.34,52Z"/></g></g></svg>