<svg xmlns="http://www.w3.org/2000/svg" xmlns:xlink="http://www.w3.org/1999/xlink" viewBox="0 0 41.57 76.9"><defs><style>.cls-1{fill:none;}.cls-2{clip-path:url(#clip-path);}</style><clipPath id="clip-path"><rect class="cls-1" y="0.1" width="42" height="76.9"/></clipPath></defs><title>icon-facebook</title><g id="Capa_2" data-name="Capa 2"><g id="Capa_1-2" data-name="Capa 1"><g class="cls-2"><path d="M40,0H30C18.84,0,11.59,7.43,11.59,18.92v8.73h-10A1.57,1.57,0,0,0,0,29.22V41.86a1.57,1.57,0,0,0,1.57,1.57h10v31.9a1.58,1.58,0,0,0,1.57,1.57H26.24a1.57,1.57,0,0,0,1.57-1.57V43.43H39.53a1.57,1.57,0,0,0,1.57-1.57V29.22a1.59,1.59,0,0,0-.46-1.11,1.57,1.57,0,0,0-1.11-.46H27.81v-7.4c0-3.55.85-5.36,5.48-5.36H40a1.56,1.56,0,0,0,1.56-1.57V1.59A1.57,1.57,0,0,0,40,0Z"/></g></g></g></svg>