<svg xmlns="http://www.w3.org/2000/svg" viewBox="0 0 475.26 399"><title>icon-negocios</title><g id="Capa_2" data-name="Capa 2"><g id="Capa_1-2" data-name="Capa 1"><path d="M395,130.46A65.53,65.53,0,0,0,460.42,65c0-36.32-29.14-65-65.45-65s-65,29.14-65,65.45A64.77,64.77,0,0,0,395,130.46Zm0-116.11A50.88,50.88,0,1,1,343.86,65C343.86,36.76,367.17,14.35,395,14.35Z"/><path d="M379.27,96.39a8.33,8.33,0,0,0,3.14.89h0c.9.45,2.24.45,3.59.9a9.83,9.83,0,0,0,3.59.45h.89v9h10.76V98.18h.45a16.18,16.18,0,0,0,4-1.79,15.81,15.81,0,0,0,3.59-2.24h0A19.89,19.89,0,0,0,412,91c.9-.9,1.35-2.24,2.24-3.59l1.35-4h0A13.81,13.81,0,0,0,416,78.9h0a9.8,9.8,0,0,0-.45-3.58h0a11.71,11.71,0,0,0-1.35-3.59,11.19,11.19,0,0,0-1.79-3.14h0c-.9-.89-1.35-1.79-2.24-2.69a8.19,8.19,0,0,0-3.14-2.24,11.19,11.19,0,0,0-3.14-1.79c-1.34-.45-2.24-1.35-3.59-1.8a29.61,29.61,0,0,1-3.58-1.34h0a3.35,3.35,0,0,1-1.79-.9c-.45-.45-1.35-.45-1.8-.89h0c-.45-.45-1.34-.45-1.79-.9h0L390,54.69h0a2.32,2.32,0,0,1-.89-1.79,2.68,2.68,0,0,1-.45-1.79V48.87c0-.45.45-1.35.45-1.8h0c.45-.45.45-1.34.89-1.79l1.35-1.35a3.46,3.46,0,0,1,2.24-.89h0a4,4,0,0,1,2.24-.45h2.69a4,4,0,0,1,2.24.45,18.8,18.8,0,0,1,2.24.45h0c.45,0,1.35.44,1.8.44h0c.89,0,1.34.45,1.79.45l2.24.9.45-2.69.9-7.17v-1.8l-1.8-.44c-.44,0-1.34-.45-1.79-.45h0c-.45,0-.9-.45-1.79-.45a19.69,19.69,0,0,0-2.24-.45c-.9,0-1.35-.45-2.25-.45h-.44V22.86H389.14v9h-.45a16.24,16.24,0,0,0-4,1.79h0a8,8,0,0,0-3.13,2.25h0A18.86,18.86,0,0,0,378.83,39a9,9,0,0,0-1.8,3.59c-.45,1.34-.89,2.69-1.34,4a15.24,15.24,0,0,0-.45,4.49h0a9.8,9.8,0,0,0,.45,3.58A11.84,11.84,0,0,0,377,58.28h0c.45.9,1.35,2.24,1.8,3.14h0c.89.9,1.34,1.79,2.24,2.69h0a7.94,7.94,0,0,0,3.14,2.24,10.9,10.9,0,0,0,3.13,1.79,26.54,26.54,0,0,1,3.59,1.8h0a30.92,30.92,0,0,1,3.59,1.34h0a3.39,3.39,0,0,1,1.79.9c.45.45,1.35.45,1.79.9s.9.89,1.35.89l1.34,1.35c.45.45.45.89.9,1.79h0a19.69,19.69,0,0,1,.45,2.24h0v2.24a3.41,3.41,0,0,1-.9,1.8h0l-1.34,1.34h0a6.21,6.21,0,0,1-1.8,1.35h0c-.44.44-1.34.44-1.79.89h0a19.24,19.24,0,0,1-2.24.45h-5.83A19.24,19.24,0,0,1,386,87a6.48,6.48,0,0,1-2.69-.89c-.9-.45-1.79-.45-2.69-.9-.45,0-.9-.45-1.35-.45s-.89-.45-1.34-.45l-2.69-1.34-.45,3.14-.9,8.07v1.34l1.35.45A6,6,0,0,1,379.27,96.39Z"/><path d="M42.35,252.24a3.44,3.44,0,0,0,2.69-.19c2.83-1.43,5.68-2.81,8.54-4.19L61,244.3l10-4.81,12.29-5.9,14.23-6.82,15.82-7.6,17.09-8.2,18-8.65,18.61-8.93,18.86-9,18.8-9,18.38-8.82L240.75,158l16.55-7.95,15.13-7.26,13.38-6.42,11.3-5.42,8.87-4.26,6.11-2.93,3-1.45a1.34,1.34,0,0,0,.27-.13c3.06-3.15,3.5-10.07,1.31-14.48s-7-5-10.05-1.89L40,234.25c-2.31,2.38-3.15,6-2.93,9.27a11.38,11.38,0,0,0,2.1,6.22A7.12,7.12,0,0,0,42.35,252.24Z"/><path d="M468.49,384.65H435.31V171.08a7.08,7.08,0,0,0-7.17-7.17h-65.9a7.08,7.08,0,0,0-7.17,7.17V384.65H330.86V207.81a7.08,7.08,0,0,0-7.18-7.17H257.33a7.08,7.08,0,0,0-7.17,7.17V384.65H226V249.06a7.08,7.08,0,0,0-7.17-7.18h-65.9a7.09,7.09,0,0,0-7.18,7.18V384.65H121.49V300.2a7.08,7.08,0,0,0-7.17-7.18H48a7.08,7.08,0,0,0-7.17,7.18v84.45H7.17a7.18,7.18,0,0,0,0,14.35H468a7.08,7.08,0,0,0,7.17-7.17A6.48,6.48,0,0,0,468.49,384.65ZM369.41,178.26H421V384.65H369.41ZM264.51,215h51.55V384.65H264.51ZM160.05,256.23H211.6V384.65H160.05ZM55.14,307.37H106.7v77.28H55.14Z"/></g></g></svg>