<svg xmlns="http://www.w3.org/2000/svg" viewBox="0 0 511.99 512"><title>icon-educacion</title><g id="Capa_2" data-name="Capa 2"><g id="Capa_1-2" data-name="Capa 1"><path d="M504.84,72.61,439.38,7.15a24.49,24.49,0,0,0-34.58,0L281.55,130.39a7.91,7.91,0,1,0,11.18,11.18L416,18.33a8.63,8.63,0,0,1,12.23,0l65.46,65.45a8.65,8.65,0,0,1,0,12.23L477.6,112.08,435.51,70a7.91,7.91,0,1,0-11.18,11.18l42.09,42.08-18.35,18.36-18.5-18.5a7.9,7.9,0,0,0-11.17,11.18l18.49,18.49-18.35,18.36L400,152.64a7.9,7.9,0,0,0-11.17,11.17l18.5,18.5L389,200.66l-42.09-42.09a7.9,7.9,0,0,0-11.17,11.18l42.09,42.09-18.36,18.35L341,211.69a7.91,7.91,0,1,0-11.18,11.18l18.5,18.5-15.53,15.52L255.09,179.2l14.45-14.45a7.9,7.9,0,1,0-11.17-11.17L243.92,168,98.15,22.26A53.68,53.68,0,0,0,22.24,98.17L168,243.94,7.15,404.8a24.49,24.49,0,0,0,0,34.58l65.46,65.46a24.46,24.46,0,0,0,34.58,0L268.05,344l11.45,11.46a7.91,7.91,0,1,0,11.18-11.18l-15.81-15.81a7.9,7.9,0,0,0-1.09-1.37,7.71,7.71,0,0,0-1.37-1.09L101.18,154.76l21.19-21.19,13.11,13.1a7.9,7.9,0,0,0,11.17-11.17l-13.1-13.1,21.19-21.19,83.58,83.58h0l88.08,88.08a7,7,0,0,0,.72.83,6.93,6.93,0,0,0,.83.71L445.24,391.7,424,412.89,305.73,294.58l-.21-.24-47.18-47.18-.25-.22L174.75,163.6a7.9,7.9,0,0,0-11.17,11.18L412.87,424.07l-21.2,21.19-75.09-75.1a7.91,7.91,0,0,0-11.18,11.18L386.09,462a7.78,7.78,0,0,0,2.73,1.78l95.47,37.07a12.82,12.82,0,0,0,16.59-16.6l-37.11-95.43a8.08,8.08,0,0,0-1.77-2.73l-118-118L504.84,107.19A24.49,24.49,0,0,0,504.84,72.61ZM33.42,33.44a37.9,37.9,0,0,1,53.55,0l25,25L58.39,112l-25-25A37.91,37.91,0,0,1,33.42,33.44Zm208,314.87-18.5-18.5A7.9,7.9,0,1,0,211.7,341l18.49,18.49-18.35,18.36-42.09-42.09a7.9,7.9,0,0,0-11.17,11.17L200.67,389l-18.36,18.36-18.5-18.5A7.9,7.9,0,0,0,152.64,400l18.5,18.5-18.36,18.35L134.29,418.4a7.9,7.9,0,0,0-11.18,11.17l18.5,18.5-18.35,18.35L81.17,424.33A7.91,7.91,0,1,0,70,435.51l42.09,42.09L96,493.66a8.63,8.63,0,0,1-12.23,0L18.33,428.2a8.66,8.66,0,0,1,0-12.23L179.19,255.12l77.69,77.69ZM116.79,116.8h0L90,143.59,69.57,123.15l53.56-53.56L143.57,90Zm289,336.65,47.6-47.6,30.27,77.83Z"/></g></g></svg>