<svg xmlns="http://www.w3.org/2000/svg" xmlns:xlink="http://www.w3.org/1999/xlink" viewBox="0 0 51.2 28.77"><defs><style>.cls-1{fill:none;}.cls-2{clip-path:url(#clip-path);}</style><clipPath id="clip-path" transform="translate(0 -0.03)"><rect class="cls-1" width="51.84" height="29.76"/></clipPath></defs><title>icon-bienestar</title><g id="Capa_2" data-name="Capa 2"><g id="icon-bienestar"><g class="cls-2"><path d="M50.42,9.8a2.71,2.71,0,0,0-2.06-1H47.2V7.86A3.17,3.17,0,0,0,43.93,4.8H42.4V3.07a3,3,0,0,0-1-2.19A3.37,3.37,0,0,0,37,.88a3,3,0,0,0-1,2.19V11.2H15.2V3.07A3,3,0,0,0,14.25.88a3.39,3.39,0,0,0-4.5,0A3,3,0,0,0,8.8,3.07V4.8H7.08a3.17,3.17,0,0,0-2.15.82A2.85,2.85,0,0,0,4,7.69V8.8H2.85a2.69,2.69,0,0,0-2.06,1A3.48,3.48,0,0,0,0,12.06v4.68A3.48,3.48,0,0,0,.79,19a2.69,2.69,0,0,0,2.06,1H4v1.11a2.83,2.83,0,0,0,.93,2.07A3.17,3.17,0,0,0,7.08,24H8.8v1.73a3.06,3.06,0,0,0,.95,2.19,3.32,3.32,0,0,0,4.5,0,3.06,3.06,0,0,0,.95-2.19V17.6H36v8.13a3.06,3.06,0,0,0,1,2.19,3.3,3.3,0,0,0,4.49,0,3,3,0,0,0,1-2.19V24h1.53a3.18,3.18,0,0,0,3.27-3.06V20h1.16a2.71,2.71,0,0,0,2.06-1,3.55,3.55,0,0,0,.78-2.25V12a3.55,3.55,0,0,0-.78-2.24ZM2.85,18.4A1.07,1.07,0,0,1,2,18a1.93,1.93,0,0,1-.42-1.23V12.06A1.91,1.91,0,0,1,2,10.83a1.07,1.07,0,0,1,.83-.43H4v8Zm4.23,4A1.61,1.61,0,0,1,6,22a1.22,1.22,0,0,1-.41-.89V7.69A1.22,1.22,0,0,1,6,6.8a1.63,1.63,0,0,1,1.07-.4H8.8v16Zm6.52,3.33a1.38,1.38,0,0,1-.45,1,1.76,1.76,0,0,1-2.3,0,1.38,1.38,0,0,1-.45-1V3.07a1.38,1.38,0,0,1,.45-1,1.69,1.69,0,0,1,2.3,0,1.38,1.38,0,0,1,.45,1ZM15.2,16V12.8H36V16Zm25.6,9.73a1.38,1.38,0,0,1-.45,1,1.76,1.76,0,0,1-2.3,0,1.38,1.38,0,0,1-.45-1V3.07a1.38,1.38,0,0,1,.45-1,1.69,1.69,0,0,1,2.3,0,1.38,1.38,0,0,1,.45,1Zm4.8-4.79a1.57,1.57,0,0,1-1.67,1.46H42.4V6.4h1.53A1.58,1.58,0,0,1,45.6,7.86Zm4-4.19A1.93,1.93,0,0,1,49.19,18a1.09,1.09,0,0,1-.83.43H47.2v-8h1.16a1.09,1.09,0,0,1,.83.43A1.92,1.92,0,0,1,49.6,12Z" transform="translate(0 -0.03)"/></g></g></g></svg>