<svg xmlns="http://www.w3.org/2000/svg" viewBox="0 0 24.81 17.64"><title>icon-message</title><g id="Capa_2" data-name="Capa 2"><g id="Capa_1-2" data-name="Capa 1"><path d="M20.09,13.62a.38.38,0,0,1-.28-.11L15.21,9.2a.4.4,0,0,1,.55-.59l4.6,4.32a.41.41,0,0,1,0,.57.4.4,0,0,1-.29.12Z"/><path d="M4.72,13.62a.4.4,0,0,1-.27-.69l4.6-4.32a.4.4,0,0,1,.55.59L5,13.51a.38.38,0,0,1-.28.11Z"/><path d="M22.81,17.64H2a2,2,0,0,1-2-2V2A2,2,0,0,1,2,0H22.81a2,2,0,0,1,2,2V15.64a2,2,0,0,1-2,2ZM2,.8A1.2,1.2,0,0,0,.8,2V15.64A1.2,1.2,0,0,0,2,16.84H22.81a1.2,1.2,0,0,0,1.2-1.2V2A1.2,1.2,0,0,0,22.81.8Z"/><path d="M12.41,10.83a2.23,2.23,0,0,1-1.47-.53L.66,1.34a.42.42,0,0,1,0-.57.41.41,0,0,1,.57,0l10.27,9a1.52,1.52,0,0,0,1.89,0L23.6.75a.41.41,0,0,1,.57,0,.39.39,0,0,1,0,.56l-10.25,9a2.27,2.27,0,0,1-1.47.53Z"/></g></g></svg>