<svg xmlns="http://www.w3.org/2000/svg" viewBox="0 0 512 512"><title>icon-buscalo</title><g id="Capa_2" data-name="Capa 2"><g id="Capa_1-2" data-name="Capa 1"><path d="M170.67,320H32A32,32,0,0,1,0,288V32A32,32,0,0,1,32,0H394.67a32,32,0,0,1,32,32V224H405.33V32a10.67,10.67,0,0,0-10.66-10.67H32A10.67,10.67,0,0,0,21.33,32V288A10.67,10.67,0,0,0,32,298.67H170.67Z"/><path d="M128,309.33h21.33v64H128Z"/><path d="M96,277.33H74.67a32,32,0,0,1-32-32V224H64v21.33A10.67,10.67,0,0,0,74.67,256H96Z"/><path d="M42.67,181.33H64v21.34H42.67Z"/><path d="M307.88,423.78a115.9,115.9,0,1,1,81.94-33.94A115.91,115.91,0,0,1,307.88,423.78Zm0-210.45a94.57,94.57,0,1,0,66.87,27.74,94.57,94.57,0,0,0-66.87-27.74Z"/><path d="M471.57,512a10.62,10.62,0,0,1-7.54-3.13l-66.95-67a10.65,10.65,0,0,1,0-15.08l29.76-29.76a10.65,10.65,0,0,1,15.08,0L508.87,464a10.65,10.65,0,0,1,0,15.08l-29.76,29.76a10.66,10.66,0,0,1-7.54,3.16ZM419.7,434.37l51.87,51.88,14.68-14.68-51.87-51.88Z"/><path d="M374.75,389.83l15.09-15.09,37.2,37.2L412,427Z"/><path d="M384,309.33H362.67A53.41,53.41,0,0,0,309.33,256V234.67A74.75,74.75,0,0,1,384,309.33Z"/><path d="M106.67,362.67H192V384H106.67Z"/><path d="M160,106.67a32,32,0,1,1,32-32A32,32,0,0,1,160,106.67ZM160,64a10.67,10.67,0,1,0,10.67,10.67A10.67,10.67,0,0,0,160,64Z"/><path d="M234.67,181.33a32,32,0,1,1,32-32A32,32,0,0,1,234.67,181.33Zm0-42.66a10.67,10.67,0,1,0,10.66,10.66A10.67,10.67,0,0,0,234.67,138.67Z"/><path d="M88.46,131.13l53.33-53.34,15.09,15.09-53.34,53.33Z"/><path d="M163.08,92.91l15.08-15.09,53.34,53.33-15.09,15.09Z"/><path d="M309.33,106.67a32,32,0,1,1,32-32A32,32,0,0,1,309.33,106.67Zm0-42.67A10.67,10.67,0,1,0,320,74.67,10.67,10.67,0,0,0,309.33,64Z"/><path d="M237.79,131.16l53.33-53.33L306.2,92.92l-53.33,53.33Z"/></g></g></svg>