<svg xmlns="http://www.w3.org/2000/svg" viewBox="0 0 25.59 25.59"><defs><style>.cls-1{fill-rule:evenodd;}</style></defs><title>icon-search</title><g id="Capa_2" data-name="Capa 2"><g id="Capa_1-2" data-name="Capa 1"><path class="cls-1" d="M25.35,24.2l-6.61-6.5a10.46,10.46,0,0,0,2.79-7.1A10.68,10.68,0,0,0,10.77,0,10.68,10.68,0,0,0,0,10.6,10.68,10.68,0,0,0,10.77,21.19a10.87,10.87,0,0,0,6.78-2.36l6.63,6.52a.83.83,0,0,0,1.17,0,.79.79,0,0,0,0-1.15ZM10.77,19.56a9,9,0,0,1-9.11-9,9,9,0,0,1,9.11-9,9,9,0,0,1,9.11,9,9,9,0,0,1-9.11,9Z"/></g></g></svg>