<svg xmlns="http://www.w3.org/2000/svg" viewBox="0 0 43.2 47.2"><title>icon-location</title><g id="Capa_2" data-name="Capa 2"><g id="Capa_1-2" data-name="Capa 1"><path d="M10.25,36.53a.79.79,0,0,0-1.3,0L6.6,39.84C5.08,42,5.11,44.42,6.69,46a4.12,4.12,0,0,0,5.83,0c1.1-1.1,2-3.05.08-6.14Zm1.13,8.33a2.52,2.52,0,0,1-3.56,0c-1-1-1-2.61.08-4.09l1.7-2.39,1.67,2.35c1.63,2.62.49,3.76.11,4.13Z"/><path d="M43.2,20.8H40.8V19.2a.8.8,0,0,0-.8-.8H35.2a.8.8,0,0,0-.8.8v1.6H22a2,2,0,0,1-2-2V8.8h1.6a.8.8,0,0,0,.8-.8V3.2a.8.8,0,0,0-.8-.8H20V0H5.6V2.4H4a.8.8,0,0,0-.8.8V8a.8.8,0,0,0,.8.8H5.6V23.55a11.61,11.61,0,0,0,4.17,8.91.76.76,0,0,0,.35.29,11.63,11.63,0,0,0,7.13,2.45H34.4v1.6a.8.8,0,0,0,.8.8H40a.8.8,0,0,0,.8-.8V35.2h2.4ZM7.2,1.6H18.4v.8H7.2ZM4.8,7.2V4h16V7.2ZM17.25,33.6a10,10,0,0,1-6.05-2.05V29.6h2.4a.8.8,0,0,0,.8-.8V26.4h2.4a.8.8,0,1,0,0-1.6H13.6a.8.8,0,0,0-.8.8V28H10.4a.8.8,0,0,0-.8.8v1.25a10,10,0,0,1-2.4-6.5V8.8H18.4v10A3.58,3.58,0,0,0,22,22.4H34.4V33.6Zm22,2.4H36V20h3.2Zm2.4-2.4h-.8V22.4h.8Z"/><path d="M3.43,33,1.84,34.63A.8.8,0,1,0,3,35.77l1.61-1.61A.8.8,0,1,0,3.43,33Z"/><path d="M4,31.2a.8.8,0,0,0-.8-.8H.8A.8.8,0,0,0,.8,32H3.2a.8.8,0,0,0,.8-.8Z"/><path d="M3,26.63a.8.8,0,1,0-1.12,1.14l1.59,1.6a.82.82,0,0,0,1.14,0,.81.81,0,0,0,0-1.14Z"/></g></g></svg>