<svg xmlns="http://www.w3.org/2000/svg" viewBox="0 0 512 511.9"><title>icon-comparalo</title><g id="Capa_2" data-name="Capa 2"><g id="Capa_1-2" data-name="Capa 1"><path d="M358.73,168a152.91,152.91,0,0,0-43.63,6.31,161.1,161.1,0,0,0,.84-16.38A156.31,156.31,0,0,0,298.68,86.1a10,10,0,1,0-17.8,9.11A136.41,136.41,0,0,1,295.94,158c0,76.08-61.89,138-138,138a137.28,137.28,0,0,1-51.34-9.88,10,10,0,0,0-10.79,2.21L74,310.13V272.27a10,10,0,0,0-3.65-7.72A137.62,137.62,0,0,1,20,158C20,81.89,81.89,20,158,20a137.28,137.28,0,0,1,68.84,18.37,10,10,0,1,0,10-17.32A156.86,156.86,0,0,0,158,0C70.87,0,0,70.87,0,158A157.48,157.48,0,0,0,54,276.89v57.38a10,10,0,0,0,17.07,7.07L105.42,307A158.31,158.31,0,0,0,206,308.46q-.54,6.42-.55,12.85a151.81,151.81,0,0,0,15.28,66.79,10,10,0,0,0,18-8.73,132,132,0,0,1-13.27-58.06A134,134,0,0,1,227.18,300,158.61,158.61,0,0,0,311.1,196.81,132.43,132.43,0,0,1,358.73,188C432.22,188,492,247.82,492,321.31a132.69,132.69,0,0,1-50.32,104.31,10,10,0,0,0-3.78,7.82v44.33l-27.38-27.39A10,10,0,0,0,400.33,448a133.7,133.7,0,0,1-99.57-6.6,10,10,0,0,0-8.71,18,153.74,153.74,0,0,0,108.58,9.42L440.83,509a10,10,0,0,0,7.07,2.92,9.87,9.87,0,0,0,3.83-.76,10,10,0,0,0,6.17-9.23V438.17A152.51,152.51,0,0,0,512,321.31C512,236.8,443.24,168,358.73,168Z"/><path d="M265,416.06a10,10,0,1,0-14.07,14.2l1.06,1A10,10,0,0,0,265.92,417Z"/><path d="M259.35,64.38a10,10,0,0,0,7.32,3.24,10.12,10.12,0,0,0,6.91-2.73,10.18,10.18,0,1,0-14.32-.61Z"/><path d="M114.48,123.47a10,10,0,1,0,2.93,7.07A10.06,10.06,0,0,0,114.48,123.47Z"/><path d="M215.6,137.6a10,10,0,1,0-7.07,2.93A10.05,10.05,0,0,0,215.6,137.6Z"/><path d="M158,229.62a47,47,0,0,0,45.36-34.85A10,10,0,0,0,184,189.61a26.95,26.95,0,0,1-52.08,0,10,10,0,0,0-19.32,5.16A47,47,0,0,0,158,229.62Z"/><path d="M309.85,284.57a10,10,0,1,0,7.07,2.93A10.08,10.08,0,0,0,309.85,284.57Z"/><path d="M414.67,301.63a10,10,0,1,0-7.07,2.93A10,10,0,0,0,414.67,301.63Z"/><path d="M358.73,344.17a45.79,45.79,0,0,0-44.17,33.94,10,10,0,0,0,19.32,5.16,25.72,25.72,0,0,1,49.7,0,10,10,0,0,0,9.66,7.43,9.6,9.6,0,0,0,2.58-.35,10,10,0,0,0,7.08-12.24A45.78,45.78,0,0,0,358.73,344.17Z"/></g></g></svg>