<svg xmlns="http://www.w3.org/2000/svg" viewBox="0 0 481.23 114.17"><defs><style>.cls-1{fill:#fff;}.cls-2{fill:#f1f0f2;}.cls-3{fill:#acafb4;}</style></defs><title>paperplane-logo</title><g id="Capa_2" data-name="Capa 2"><g id="Capa_1-2" data-name="Capa 1"><path d="M152.37,89.26h-.06a7,7,0,0,1-2.4,2.74,7.15,7.15,0,0,1-6.49.25,5.8,5.8,0,0,1-2.07-1.76,7.83,7.83,0,0,1-1.19-2.56,12.19,12.19,0,0,1,0-6.23,7.18,7.18,0,0,1,1.27-2.55,6.1,6.1,0,0,1,2.14-1.71,6.79,6.79,0,0,1,3-.63,6.69,6.69,0,0,1,1.83.26,6.35,6.35,0,0,1,1.66.73,5.23,5.23,0,0,1,1.33,1.2,5.11,5.11,0,0,1,.87,1.61h.06V71.18h1.14V92.55h-1.14Zm-5.72,2.67a5.06,5.06,0,0,0,2.53-.6A5.4,5.4,0,0,0,151,89.74,7,7,0,0,0,152,87.48a9.85,9.85,0,0,0,.34-2.59,10,10,0,0,0-.34-2.62A7.47,7.47,0,0,0,151,80a5.08,5.08,0,0,0-1.78-1.6,5.24,5.24,0,0,0-2.56-.6,5.37,5.37,0,0,0-2.6.58A5.28,5.28,0,0,0,142.24,80a6.58,6.58,0,0,0-1,2.28,11.19,11.19,0,0,0-.31,2.66,10,10,0,0,0,.34,2.62,7,7,0,0,0,1.05,2.26,5.17,5.17,0,0,0,1.78,1.57A5.3,5.3,0,0,0,146.65,91.93Z"/><path d="M157.4,74.27V71.18h1.13v3.09Zm0,18.28V77.17h1.13V92.55Z"/><path d="M174.88,77.17V91.75c0,.2,0,.5,0,.92a6.93,6.93,0,0,1-.2,1.4,7.09,7.09,0,0,1-.59,1.55,4.83,4.83,0,0,1-1.14,1.44,5.44,5.44,0,0,1-1.88,1,7.89,7.89,0,0,1-2.8.33,9.88,9.88,0,0,1-2.3-.26,5.24,5.24,0,0,1-1.88-.8,4.26,4.26,0,0,1-1.28-1.47,5.33,5.33,0,0,1-.56-2.26h1.14a4.14,4.14,0,0,0,.51,1.74A3.63,3.63,0,0,0,165,96.55a4.68,4.68,0,0,0,1.51.67,7.4,7.4,0,0,0,1.8.21,6.87,6.87,0,0,0,2.28-.33,4.93,4.93,0,0,0,1.54-.85A4,4,0,0,0,173,95.1a6.18,6.18,0,0,0,.49-1.23,5.39,5.39,0,0,0,.2-1.09c0-.33,0-.59,0-.76V88.48h-.06A5.75,5.75,0,0,1,168.11,92a6.87,6.87,0,0,1-3-.59,5.67,5.67,0,0,1-2.06-1.62,6.91,6.91,0,0,1-1.23-2.4,10.62,10.62,0,0,1-.4-3,9.6,9.6,0,0,1,.43-2.9,7.21,7.21,0,0,1,1.27-2.41,6.09,6.09,0,0,1,2.08-1.64,6.37,6.37,0,0,1,2.86-.62,6.63,6.63,0,0,1,1.77.24,6.19,6.19,0,0,1,1.6.69,5.51,5.51,0,0,1,1.3,1.11,4.9,4.9,0,0,1,.9,1.52h.06v-3.2Zm-6.77.63a5,5,0,0,0-2.44.57,5.11,5.11,0,0,0-1.7,1.49A6.89,6.89,0,0,0,163,82a8.62,8.62,0,0,0-.35,2.41,9.31,9.31,0,0,0,.35,2.56,6.22,6.22,0,0,0,1,2.11,5,5,0,0,0,1.74,1.42,5.18,5.18,0,0,0,2.38.53,5.31,5.31,0,0,0,2.46-.54A5.18,5.18,0,0,0,172.32,89a6.6,6.6,0,0,0,1-2.11,8.83,8.83,0,0,0,.35-2.5,9,9,0,0,0-.35-2.48,6.41,6.41,0,0,0-1-2.11,5.23,5.23,0,0,0-1.75-1.45A5.31,5.31,0,0,0,168.11,77.8Z"/><path d="M178.5,74.27V71.18h1.13v3.09Zm0,18.28V77.17h1.13V92.55Z"/><path d="M188.91,78.16h-3.35V88.9a4.16,4.16,0,0,0,.21,1.47,1.59,1.59,0,0,0,.64.81,2.55,2.55,0,0,0,1.05.34,9,9,0,0,0,1.42,0v1a10.57,10.57,0,0,1-1.69,0,3.39,3.39,0,0,1-1.45-.45,2.55,2.55,0,0,1-1-1.12,4.25,4.25,0,0,1-.32-2.07V78.16h-2.84v-1h2.84V72.38h1.14v4.79h3.35Z"/><path d="M202.35,89.69c0,.21,0,.43,0,.65a2.21,2.21,0,0,0,.11.6.89.89,0,0,0,.3.43,1,1,0,0,0,.6.17,5.25,5.25,0,0,0,.83-.09v1a2.66,2.66,0,0,1-.46.09,3.44,3.44,0,0,1-.46,0,2.68,2.68,0,0,1-1.09-.18,1.46,1.46,0,0,1-.62-.47,1.79,1.79,0,0,1-.28-.71,4.79,4.79,0,0,1-.08-.88V89.5h-.06a4.73,4.73,0,0,1-.78,1.3,5.52,5.52,0,0,1-1.24,1.1,6.12,6.12,0,0,1-1.66.74,7.3,7.3,0,0,1-2,.27,8.75,8.75,0,0,1-2-.22,4.62,4.62,0,0,1-1.64-.73,3.34,3.34,0,0,1-1.09-1.34,4.77,4.77,0,0,1-.39-2.05,4.17,4.17,0,0,1,.52-2.2A4,4,0,0,1,192.16,85a5.9,5.9,0,0,1,1.82-.71,17.59,17.59,0,0,1,2-.3c1.28-.08,2.27-.17,3-.28a3.94,3.94,0,0,0,1.57-.51,1.43,1.43,0,0,0,.63-.9,7.45,7.45,0,0,0,.12-1.51,2.42,2.42,0,0,0-.18-.76,3,3,0,0,0-.64-1,4,4,0,0,0-1.3-.89A5.34,5.34,0,0,0,197,77.8a5.05,5.05,0,0,0-3.33,1,4.05,4.05,0,0,0-1.4,3.05H191.1a5,5,0,0,1,1.63-3.82A6.41,6.41,0,0,1,197,76.81a10.72,10.72,0,0,1,2,.18,5.27,5.27,0,0,1,1.72.63,3.5,3.5,0,0,1,1.23,1.22,3.91,3.91,0,0,1,.46,2Zm-1.14-5.88a2,2,0,0,1-.93.59,6.92,6.92,0,0,1-1.36.28c-.51.06-1,.11-1.6.15s-1.12.1-1.67.18a6.7,6.7,0,0,0-3.13,1,2.93,2.93,0,0,0-1.1,2.53,3.19,3.19,0,0,0,1,2.38,4.21,4.21,0,0,0,3,1,5.83,5.83,0,0,0,3.08-.71,5.41,5.41,0,0,0,1.73-1.61,5,5,0,0,0,.77-1.77,7.29,7.29,0,0,0,.16-1.15Z"/><path d="M207.38,71.18V92.55h-1.14V71.18Z"/><path d="M219.77,85a9.07,9.07,0,0,0,.31,2.61,6.76,6.76,0,0,0,1.06,2.21,5.46,5.46,0,0,0,1.78,1.53,5.25,5.25,0,0,0,2.51.57,5.47,5.47,0,0,0,3.63-1.22,5.61,5.61,0,0,0,1.87-3.36h1.14a6.52,6.52,0,0,1-2.17,4.14,7.66,7.66,0,0,1-7.44.81,6,6,0,0,1-2.14-1.68A7.32,7.32,0,0,1,219,88.14a9.61,9.61,0,0,1-.4-3,10.93,10.93,0,0,1,.37-3.08,8,8,0,0,1,1.26-2.67,6.54,6.54,0,0,1,2.14-1.87,6.22,6.22,0,0,1,3-.7,6.89,6.89,0,0,1,3.11.66,6,6,0,0,1,2.15,1.78,7.26,7.26,0,0,1,1.21,2.62,10.51,10.51,0,0,1,.29,3.14Zm11.28-1a7.78,7.78,0,0,0-.42-2.33,6.13,6.13,0,0,0-1.11-2,5.42,5.42,0,0,0-1.75-1.38,5.07,5.07,0,0,0-2.34-.52,4.72,4.72,0,0,0-2.29.54,5.65,5.65,0,0,0-1.73,1.42,7.4,7.4,0,0,0-1.13,2,8.38,8.38,0,0,0-.51,2.26Z"/><path d="M239,84.47l-5.62-7.3H235l4.82,6.44,4.85-6.44h1.47l-5.57,7.3,6.07,8.08h-1.55l-5.27-7.21-5.39,7.21H233Z"/><path d="M249.52,80.7h.09a5.89,5.89,0,0,1,.6-1.26,5.17,5.17,0,0,1,1.1-1.27,6.1,6.1,0,0,1,1.66-1,6,6,0,0,1,2.23-.39,6.71,6.71,0,0,1,3.07.66,6.24,6.24,0,0,1,2.16,1.77,7.45,7.45,0,0,1,1.27,2.57,11.12,11.12,0,0,1,.42,3.08,11.64,11.64,0,0,1-.42,3.23,7,7,0,0,1-1.28,2.53,5.85,5.85,0,0,1-2.16,1.66,7.28,7.28,0,0,1-3.07.6,6.88,6.88,0,0,1-3.42-.84,4.85,4.85,0,0,1-2.19-2.72h-.06v8.71h-1.11V77.17h1.11Zm5.67,11.23a5.53,5.53,0,0,0,2.59-.57,5.06,5.06,0,0,0,1.8-1.53,6.67,6.67,0,0,0,1.06-2.23,10.76,10.76,0,0,0,.34-2.71,10.28,10.28,0,0,0-.33-2.59,7.11,7.11,0,0,0-1-2.27,5.17,5.17,0,0,0-1.79-1.62,6,6,0,0,0-5.26,0A5.06,5.06,0,0,0,250.82,80a6.76,6.76,0,0,0-1,2.26,11.58,11.58,0,0,0-.3,2.65,12.74,12.74,0,0,0,.27,2.65,6.32,6.32,0,0,0,.91,2.24,4.69,4.69,0,0,0,1.74,1.56A5.73,5.73,0,0,0,255.19,91.93Z"/><path d="M265.23,85a9.07,9.07,0,0,0,.31,2.61,6.58,6.58,0,0,0,1.07,2.21,5.36,5.36,0,0,0,1.78,1.53,5.21,5.21,0,0,0,2.5.57,5.47,5.47,0,0,0,3.63-1.22,5.61,5.61,0,0,0,1.87-3.36h1.14a6.52,6.52,0,0,1-2.17,4.14,7.66,7.66,0,0,1-7.44.81,6.11,6.11,0,0,1-2.14-1.68,7.3,7.3,0,0,1-1.28-2.48,9.61,9.61,0,0,1-.41-3,10.93,10.93,0,0,1,.38-3.08,8,8,0,0,1,1.25-2.67,6.64,6.64,0,0,1,2.14-1.87,6.22,6.22,0,0,1,3-.7,6.89,6.89,0,0,1,3.11.66,6,6,0,0,1,2.15,1.78,7.27,7.27,0,0,1,1.22,2.62,10.85,10.85,0,0,1,.28,3.14Zm11.28-1a7.78,7.78,0,0,0-.42-2.33,6.11,6.11,0,0,0-1.1-2,5.52,5.52,0,0,0-1.75-1.38,5.14,5.14,0,0,0-2.35-.52,4.75,4.75,0,0,0-2.29.54,5.65,5.65,0,0,0-1.73,1.42,7.4,7.4,0,0,0-1.13,2,8.38,8.38,0,0,0-.51,2.26Z"/><path d="M281.45,80.58h.09a3.56,3.56,0,0,1,.78-1.4A5.75,5.75,0,0,1,283.67,78a6.39,6.39,0,0,1,1.75-.73,7.12,7.12,0,0,1,2-.23v1.14a5.37,5.37,0,0,0-2.05.18,5,5,0,0,0-2.2,1.31,10.76,10.76,0,0,0-.74.87,4.65,4.65,0,0,0-.52.93,5.88,5.88,0,0,0-.33,1.14,10,10,0,0,0-.15,1.49v8.41h-1.14V77.17h1.14Z"/><path d="M288.9,74.27V71.18H290v3.09Zm0,18.28V77.17H290V92.55Z"/><path d="M294.11,85a9.43,9.43,0,0,0,.31,2.61,6.58,6.58,0,0,0,1.07,2.21,5.36,5.36,0,0,0,1.78,1.53,5.21,5.21,0,0,0,2.5.57,5.46,5.46,0,0,0,3.63-1.22,5.56,5.56,0,0,0,1.87-3.36h1.14a6.52,6.52,0,0,1-2.17,4.14,7.64,7.64,0,0,1-7.43.81,6.15,6.15,0,0,1-2.15-1.68,7.48,7.48,0,0,1-1.28-2.48,9.61,9.61,0,0,1-.41-3,10.93,10.93,0,0,1,.38-3.08,8.2,8.2,0,0,1,1.25-2.67,6.57,6.57,0,0,1,2.15-1.87,6.15,6.15,0,0,1,3-.7,6.86,6.86,0,0,1,3.11.66A6,6,0,0,1,305,79.25a7.43,7.43,0,0,1,1.21,2.62,10.85,10.85,0,0,1,.28,3.14Zm11.28-1a7.47,7.47,0,0,0-.41-2.33,6.13,6.13,0,0,0-1.11-2,5.64,5.64,0,0,0-1.75-1.38,5.11,5.11,0,0,0-2.35-.52,4.75,4.75,0,0,0-2.29.54,5.61,5.61,0,0,0-1.72,1.42,7.17,7.17,0,0,0-1.14,2,8.38,8.38,0,0,0-.51,2.26Z"/><path d="M309.2,77.17h1.13v3.29h.06a4.94,4.94,0,0,1,.86-1.54,5.83,5.83,0,0,1,1.28-1.15,5.65,5.65,0,0,1,1.6-.72,6.63,6.63,0,0,1,1.77-.24,7,7,0,0,1,2.29.33,4.47,4.47,0,0,1,1.54.87,4.16,4.16,0,0,1,.94,1.21,5.21,5.21,0,0,1,.5,1.36,8.13,8.13,0,0,1,.18,1.33c0,.43,0,.81,0,1.13v9.51h-1.14V82.83a14,14,0,0,0-.09-1.45,4.35,4.35,0,0,0-.52-1.65,3.8,3.8,0,0,0-1.32-1.36,4.47,4.47,0,0,0-2.44-.57,5.47,5.47,0,0,0-2.32.48,5,5,0,0,0-1.75,1.33,5.91,5.91,0,0,0-1.09,2,8.53,8.53,0,0,0-.38,2.59v8.32H309.2Z"/><path d="M336.31,81.93a4.45,4.45,0,0,0-.52-1.8,4,4,0,0,0-1.12-1.28,5.18,5.18,0,0,0-1.6-.78,7,7,0,0,0-2-.27,5.39,5.39,0,0,0-2.55.58,5.62,5.62,0,0,0-1.86,1.56,7.33,7.33,0,0,0-1.13,2.21,8.5,8.5,0,0,0-.39,2.56,10.92,10.92,0,0,0,.36,2.88,6.6,6.6,0,0,0,1.11,2.29,5.14,5.14,0,0,0,1.85,1.51,5.87,5.87,0,0,0,2.61.54,5.33,5.33,0,0,0,3.6-1.35,5.08,5.08,0,0,0,1.15-1.51,6.21,6.21,0,0,0,.6-1.93h1.14a7,7,0,0,1-.76,2.45,6.33,6.33,0,0,1-1.44,1.81,6.09,6.09,0,0,1-1.95,1.12,6.88,6.88,0,0,1-2.34.39,7,7,0,0,1-3.22-.67,6.16,6.16,0,0,1-2.19-1.81,7.48,7.48,0,0,1-1.25-2.62,11.71,11.71,0,0,1-.41-3.1,10.14,10.14,0,0,1,.46-3,7.35,7.35,0,0,1,1.37-2.51,6.35,6.35,0,0,1,2.21-1.71,7,7,0,0,1,3-.63,8.38,8.38,0,0,1,2.34.32,5.88,5.88,0,0,1,1.95.94,5,5,0,0,1,1.39,1.58,5.64,5.64,0,0,1,.66,2.28Z"/><path d="M340.71,85a9.43,9.43,0,0,0,.31,2.61,6.78,6.78,0,0,0,1.07,2.21,5.36,5.36,0,0,0,1.78,1.53,5.21,5.21,0,0,0,2.5.57A5.5,5.5,0,0,0,350,90.71a5.61,5.61,0,0,0,1.87-3.36H353a6.52,6.52,0,0,1-2.17,4.14,7.64,7.64,0,0,1-7.43.81,6.06,6.06,0,0,1-2.15-1.68A7.48,7.48,0,0,1,340,88.14a9.61,9.61,0,0,1-.4-3,10.93,10.93,0,0,1,.37-3.08,8,8,0,0,1,1.26-2.67,6.54,6.54,0,0,1,2.14-1.87,6.15,6.15,0,0,1,3-.7,6.86,6.86,0,0,1,3.11.66,6,6,0,0,1,2.16,1.78,7.26,7.26,0,0,1,1.21,2.62,10.85,10.85,0,0,1,.29,3.14ZM352,84a7.47,7.47,0,0,0-.41-2.33,6.13,6.13,0,0,0-1.11-2,5.52,5.52,0,0,0-1.75-1.38,5.11,5.11,0,0,0-2.35-.52,4.75,4.75,0,0,0-2.29.54,5.61,5.61,0,0,0-1.72,1.42,7.17,7.17,0,0,0-1.14,2,8.38,8.38,0,0,0-.51,2.26Z"/><path d="M376,89.26h-.06a7,7,0,0,1-2.4,2.74,7.15,7.15,0,0,1-6.49.25A5.76,5.76,0,0,1,365,90.49a7.65,7.65,0,0,1-1.2-2.56,12.19,12.19,0,0,1,0-6.23,7.18,7.18,0,0,1,1.27-2.55,6.1,6.1,0,0,1,2.14-1.71,6.79,6.79,0,0,1,3-.63,6.69,6.69,0,0,1,1.83.26,6.5,6.5,0,0,1,1.66.73,5.23,5.23,0,0,1,1.33,1.2,5.11,5.11,0,0,1,.87,1.61H376V71.18h1.14V92.55H376Zm-5.72,2.67a5.06,5.06,0,0,0,2.53-.6,5.4,5.4,0,0,0,1.77-1.59,7,7,0,0,0,1.05-2.26,9.85,9.85,0,0,0,.34-2.59,10,10,0,0,0-.34-2.62,7.47,7.47,0,0,0-1-2.27,5.08,5.08,0,0,0-1.78-1.6,5.24,5.24,0,0,0-2.56-.6,5.34,5.34,0,0,0-2.6.58A5.28,5.28,0,0,0,365.87,80a6.58,6.58,0,0,0-1,2.28,11.2,11.2,0,0,0-.32,2.66,10,10,0,0,0,.35,2.62,7,7,0,0,0,1.05,2.26,5.17,5.17,0,0,0,1.78,1.57A5.3,5.3,0,0,0,370.28,91.93Z"/><path d="M381.2,85a9.43,9.43,0,0,0,.32,2.61,6.58,6.58,0,0,0,1.07,2.21,5.42,5.42,0,0,0,1.77,1.53,5.27,5.27,0,0,0,2.5.57,5.48,5.48,0,0,0,3.64-1.22,5.61,5.61,0,0,0,1.87-3.36h1.14a6.52,6.52,0,0,1-2.17,4.14,7.66,7.66,0,0,1-7.44.81,6,6,0,0,1-2.14-1.68,7.3,7.3,0,0,1-1.28-2.48,9.61,9.61,0,0,1-.41-3,10.93,10.93,0,0,1,.37-3.08,8.22,8.22,0,0,1,1.26-2.67,6.54,6.54,0,0,1,2.14-1.87,6.18,6.18,0,0,1,3-.7,6.9,6.9,0,0,1,3.12.66,6,6,0,0,1,2.15,1.78,7.26,7.26,0,0,1,1.21,2.62,10.51,10.51,0,0,1,.29,3.14Zm11.29-1a7.78,7.78,0,0,0-.42-2.33,6.11,6.11,0,0,0-1.1-2,5.56,5.56,0,0,0-1.76-1.38,5.08,5.08,0,0,0-2.35-.52,4.71,4.71,0,0,0-2.28.54,5.65,5.65,0,0,0-1.73,1.42,7.14,7.14,0,0,0-1.13,2A8.8,8.8,0,0,0,381.2,84Z"/><path d="M396.83,87.44a4.54,4.54,0,0,0,1.57,3.3,4.58,4.58,0,0,0,1.57.89,6.13,6.13,0,0,0,1.95.3,10.4,10.4,0,0,0,1.6-.14,5.4,5.4,0,0,0,1.58-.49,3.25,3.25,0,0,0,1.22-1,2.63,2.63,0,0,0,.48-1.63,2.55,2.55,0,0,0-.45-1.58,3.19,3.19,0,0,0-1.2-1,7.79,7.79,0,0,0-1.69-.57l-1.93-.42c-.66-.14-1.31-.3-1.94-.48a6.48,6.48,0,0,1-1.71-.73,3.53,3.53,0,0,1-1.2-1.23,3.75,3.75,0,0,1-.45-1.93,3.34,3.34,0,0,1,.51-1.9,3.77,3.77,0,0,1,1.3-1.21,5.85,5.85,0,0,1,1.79-.64,10.05,10.05,0,0,1,2-.2,8.92,8.92,0,0,1,2.26.27,5,5,0,0,1,1.8.87,4.27,4.27,0,0,1,1.19,1.52,5.28,5.28,0,0,1,.44,2.25h-1.14a4.13,4.13,0,0,0-.36-1.8,3.4,3.4,0,0,0-1-1.21A4.05,4.05,0,0,0,403.6,78a6.94,6.94,0,0,0-1.8-.22,8.43,8.43,0,0,0-1.57.15,4.52,4.52,0,0,0-1.42.51,3.3,3.3,0,0,0-1,.92,2.39,2.39,0,0,0-.4,1.38,2.35,2.35,0,0,0,.45,1.5,3.19,3.19,0,0,0,1.18.91,9,9,0,0,0,1.64.56l1.85.41c.76.14,1.47.31,2.14.5a6.39,6.39,0,0,1,1.73.77,3.53,3.53,0,0,1,1.15,1.28,4.14,4.14,0,0,1,.42,2,3.59,3.59,0,0,1-.56,2.07,4.38,4.38,0,0,1-1.44,1.3,6.07,6.07,0,0,1-1.93.69,11.5,11.5,0,0,1-2.08.19,8.27,8.27,0,0,1-2.44-.34,5.52,5.52,0,0,1-2-1,5,5,0,0,1-1.32-1.72,5.81,5.81,0,0,1-.51-2.36Z"/><path d="M411,74.27V71.18h1.13v3.09Zm0,18.28V77.17h1.13V92.55Z"/><path d="M428.44,77.17V91.75c0,.2,0,.5,0,.92a7.8,7.8,0,0,1-.21,1.4,7.09,7.09,0,0,1-.59,1.55,5,5,0,0,1-1.13,1.44,5.58,5.58,0,0,1-1.89,1,7.89,7.89,0,0,1-2.8.33,9.94,9.94,0,0,1-2.3-.26,5.19,5.19,0,0,1-1.87-.8,4.19,4.19,0,0,1-1.29-1.47,5.19,5.19,0,0,1-.55-2.26h1.13a4.14,4.14,0,0,0,.51,1.74,3.74,3.74,0,0,0,1.09,1.18,4.55,4.55,0,0,0,1.52.67,7.32,7.32,0,0,0,1.79.21,6.87,6.87,0,0,0,2.28-.33,4.93,4.93,0,0,0,1.54-.85,3.87,3.87,0,0,0,.94-1.15,6.91,6.91,0,0,0,.5-1.23,6.1,6.1,0,0,0,.19-1.09c0-.33,0-.59,0-.76V88.48h-.06A5.75,5.75,0,0,1,421.67,92a6.87,6.87,0,0,1-2.95-.59,5.67,5.67,0,0,1-2.06-1.62,6.91,6.91,0,0,1-1.23-2.4,10.62,10.62,0,0,1-.4-3,9.6,9.6,0,0,1,.43-2.9,7.21,7.21,0,0,1,1.27-2.41,6,6,0,0,1,2.08-1.64,6.37,6.37,0,0,1,2.86-.62,6.63,6.63,0,0,1,1.77.24,6.35,6.35,0,0,1,1.6.69,5.51,5.51,0,0,1,1.3,1.11,4.9,4.9,0,0,1,.9,1.52h.06v-3.2Zm-6.77.63a5,5,0,0,0-2.44.57,5.31,5.31,0,0,0-1.7,1.49,6.89,6.89,0,0,0-1,2.11,8.62,8.62,0,0,0-.35,2.41,9.31,9.31,0,0,0,.35,2.56,6.22,6.22,0,0,0,1,2.11,5.09,5.09,0,0,0,1.74,1.42,5.18,5.18,0,0,0,2.38.53,5.31,5.31,0,0,0,2.46-.54A5.08,5.08,0,0,0,425.88,89a6.63,6.63,0,0,0,1.05-2.11,9.21,9.21,0,0,0,.34-2.5,9.34,9.34,0,0,0-.34-2.48,6.42,6.42,0,0,0-1.05-2.11,5.14,5.14,0,0,0-1.75-1.45A5.31,5.31,0,0,0,421.67,77.8Z"/><path d="M431.79,77.17h1.13v3.29H433a4.94,4.94,0,0,1,.86-1.54,5.83,5.83,0,0,1,1.28-1.15,5.71,5.71,0,0,1,1.61-.72,6.55,6.55,0,0,1,1.76-.24,7,7,0,0,1,2.29.33,4.47,4.47,0,0,1,1.54.87,4.16,4.16,0,0,1,.94,1.21,5.21,5.21,0,0,1,.5,1.36,8.13,8.13,0,0,1,.18,1.33c0,.43,0,.81,0,1.13v9.51h-1.14V82.83a14,14,0,0,0-.09-1.45,4.35,4.35,0,0,0-.52-1.65,3.8,3.8,0,0,0-1.32-1.36,4.47,4.47,0,0,0-2.44-.57,5.47,5.47,0,0,0-2.32.48,5.09,5.09,0,0,0-1.75,1.33,5.91,5.91,0,0,0-1.09,2,8.53,8.53,0,0,0-.38,2.59v8.32h-1.13Z"/><path d="M144.19,63.8h-4.42V25.74h4v5.52q3-6.3,9-6.31a9.65,9.65,0,0,1,8.13,4.22A17.58,17.58,0,0,1,164,39.84q0,7-3.18,11.06A9.94,9.94,0,0,1,152.62,55c-3.57,0-6.38-1.71-8.43-5.1Zm0-27.94v8a8.52,8.52,0,0,0,2.73,5.33,7.13,7.13,0,0,0,4.82,2.1,6.69,6.69,0,0,0,5.14-2.53c1.5-1.69,2.24-4.61,2.24-8.76,0-3.59-.67-6.35-2-8.3a6.29,6.29,0,0,0-5.39-2.92A6.66,6.66,0,0,0,147,30.87,10,10,0,0,0,144.19,35.86Z"/><path d="M192.85,54.2h-4.37q-.25-1.35-.51-5.13Q185,55,178,55c-3.19,0-5.65-.85-7.35-2.54a8.3,8.3,0,0,1-2.57-6.1,8.57,8.57,0,0,1,3.67-7.1q3.66-2.78,12.45-2.77c.79,0,2,0,3.77.11a16.36,16.36,0,0,0-.52-4.89,4.36,4.36,0,0,0-2.21-2.41,9.48,9.48,0,0,0-4.45-.9q-6.73,0-7.83,5.13l-4.09-.71Q170.37,25,181.44,25c3.92,0,6.71.87,8.35,2.61s2.47,4.75,2.47,9V48.68A23.78,23.78,0,0,0,192.85,54.2ZM188,40c-1.8-.11-3.17-.17-4.11-.17-3.49,0-6.21.58-8.14,1.73a5.5,5.5,0,0,0-2.9,5,4.68,4.68,0,0,0,1.56,3.56,6.36,6.36,0,0,0,4.52,1.47,8.4,8.4,0,0,0,6.58-2.91,10,10,0,0,0,2.58-6.83C188.06,41.31,188,40.69,188,40Z"/><path d="M205.53,63.8H201.1V25.74h4v5.52q3-6.3,9-6.31a9.62,9.62,0,0,1,8.13,4.22,17.58,17.58,0,0,1,3.09,10.67q0,7-3.18,11.06A9.93,9.93,0,0,1,214,55c-3.57,0-6.38-1.71-8.42-5.1Zm0-27.94v8a8.47,8.47,0,0,0,2.73,5.33,7.11,7.11,0,0,0,4.82,2.1,6.67,6.67,0,0,0,5.13-2.53q2.25-2.53,2.25-8.76c0-3.59-.68-6.35-2-8.3a6.27,6.27,0,0,0-5.38-2.92,6.62,6.62,0,0,0-4.75,2.06A9.93,9.93,0,0,0,205.53,35.86Z"/><path d="M250.72,45.72l4.11.84a11.58,11.58,0,0,1-4.4,6A12.69,12.69,0,0,1,242.74,55a12,12,0,0,1-9.44-4.11q-3.6-4.1-3.6-10.76c0-4.53,1.25-8.18,3.75-11A12.08,12.08,0,0,1,242.86,25a11.38,11.38,0,0,1,9,3.86q3.39,3.87,3.48,11.55H234.63c0,4.3.9,7.21,2.7,8.71a8.83,8.83,0,0,0,5.72,2.25Q248.5,51.32,250.72,45.72Zm-.26-8.65a12.38,12.38,0,0,0-.79-4.26,7.27,7.27,0,0,0-2.48-3.17A6.79,6.79,0,0,0,243,28.33a7.47,7.47,0,0,0-5.59,2.37,9.72,9.72,0,0,0-2.58,6.37Z"/><path d="M266.38,54.2H262V25.74h3.88v6.65q2.06-4.71,4.13-6.1a7.49,7.49,0,0,1,4.24-1.39c.45,0,1,0,1.75.11v4.23h-.9A7.81,7.81,0,0,0,269,32a11,11,0,0,0-2.59,7.18Z"/><path d="M285.12,63.8h-4.43V25.74h4v5.52q3-6.3,9-6.31a9.62,9.62,0,0,1,8.13,4.22,17.58,17.58,0,0,1,3.09,10.67q0,7-3.18,11.06A9.94,9.94,0,0,1,293.54,55c-3.57,0-6.38-1.71-8.42-5.1Zm0-27.94v8a8.47,8.47,0,0,0,2.73,5.33,7.11,7.11,0,0,0,4.82,2.1,6.67,6.67,0,0,0,5.13-2.53q2.25-2.53,2.25-8.76c0-3.59-.68-6.35-2-8.3a6.27,6.27,0,0,0-5.38-2.92,6.62,6.62,0,0,0-4.75,2.06A9.93,9.93,0,0,0,285.12,35.86Z"/><path d="M315.94,54.2h-4.43V15.74h4.43Z"/><path d="M347,54.2h-4.37c-.17-.9-.33-2.61-.5-5.13q-2.94,5.91-10,5.92-4.79,0-7.35-2.54a8.29,8.29,0,0,1-2.56-6.1,8.56,8.56,0,0,1,3.66-7.1q3.66-2.78,12.45-2.77c.79,0,2.05,0,3.78.11a16.7,16.7,0,0,0-.52-4.89,4.42,4.42,0,0,0-2.22-2.41,9.45,9.45,0,0,0-4.45-.9q-6.74,0-7.83,5.13l-4.09-.71Q324.56,25,335.63,25q5.89,0,8.35,2.61t2.47,9V48.68A24.34,24.34,0,0,0,347,54.2ZM342.17,40c-1.81-.11-3.18-.17-4.12-.17-3.49,0-6.21.58-8.14,1.73a5.5,5.5,0,0,0-2.9,5,4.69,4.69,0,0,0,1.57,3.56,6.31,6.31,0,0,0,4.51,1.47,8.43,8.43,0,0,0,6.59-2.91,10,10,0,0,0,2.57-6.83C342.25,41.31,342.22,40.69,342.17,40Z"/><path d="M377.72,54.2h-4.14V35.91c0-2.63-.58-4.48-1.72-5.55a5.86,5.86,0,0,0-4.17-1.6,7.14,7.14,0,0,0-5.67,2.7,10.59,10.59,0,0,0-2.3,7.13V54.2h-4.43V25.74h4.12V31c2.31-4,5.31-6,9-6a8.94,8.94,0,0,1,5.42,1.65,8.83,8.83,0,0,1,3.07,3.71q.83,2.06.83,7.43Z"/><path d="M405.36,45.72l4.11.84a11.57,11.57,0,0,1-4.39,6A12.72,12.72,0,0,1,397.39,55,12,12,0,0,1,388,50.88q-3.61-4.1-3.61-10.76c0-4.53,1.25-8.18,3.75-11A12.08,12.08,0,0,1,397.5,25a11.36,11.36,0,0,1,9,3.86c2.26,2.58,3.43,6.43,3.48,11.55H389.27c0,4.3.9,7.21,2.71,8.71a8.79,8.79,0,0,0,5.72,2.25Q403.13,51.32,405.36,45.72Zm-.25-8.65a12.38,12.38,0,0,0-.79-4.26,7.34,7.34,0,0,0-2.48-3.17,6.84,6.84,0,0,0-4.2-1.31,7.48,7.48,0,0,0-5.59,2.37,9.82,9.82,0,0,0-2.58,6.37Z"/><path d="M422.57,47.89V54.2h-6.31V47.89Z"/><path d="M447.84,44.22l4,.71a12.83,12.83,0,0,1-3.75,7.39,11.31,11.31,0,0,1-16.21-1.68A17.73,17.73,0,0,1,428.8,40a17.33,17.33,0,0,1,3.26-10.79,10.49,10.49,0,0,1,8.85-4.3,10.11,10.11,0,0,1,7.45,2.78,12.49,12.49,0,0,1,3.49,7.17l-4,.76c-.74-4.69-3-7-6.8-7a6.28,6.28,0,0,0-5.63,3.11,14.91,14.91,0,0,0-2,8.07q0,5.48,1.95,8.49a6.17,6.17,0,0,0,5.5,3Q446.38,51.32,447.84,44.22Z"/><path d="M468.1,55A10.81,10.81,0,0,1,459,50.64a17.32,17.32,0,0,1-3.28-10.77q0-6.79,3.69-10.85A11.9,11.9,0,0,1,468.55,25a11.22,11.22,0,0,1,9.28,4.27,16.62,16.62,0,0,1,3.4,10.68,16,16,0,0,1-3.66,10.87A12,12,0,0,1,468.1,55Zm.34-3.67a7,7,0,0,0,5.66-2.79c1.52-1.85,2.28-4.75,2.28-8.67s-.8-6.8-2.39-8.58a7.36,7.36,0,0,0-5.61-2.66,7.06,7.06,0,0,0-5.58,2.69q-2.28,2.69-2.28,8.52,0,6.16,2.28,8.83A7.16,7.16,0,0,0,468.44,51.32Z"/><path d="M57.08,0A57.07,57.07,0,0,0,0,57.09,60.19,60.19,0,0,0,9.57,88.73c1,1.6.7,4.87.06,6.93A20.85,20.85,0,0,1,6,103.12a12.71,12.71,0,0,1-4.65,3.56,55.64,55.64,0,0,0,8.52.4c5.47-.54,6.21-1.28,10.52-2.37s6.38.84,8.15,1.82l0,0A57.08,57.08,0,1,0,57.08,0Z"/><polygon class="cls-1" points="17.03 43.64 34.76 61.5 88.33 25.79 17.03 43.64"/><polygon class="cls-1" points="70.47 97.2 52.61 79.36 88.33 25.79 70.47 97.2"/><polygon class="cls-2" points="88.33 25.78 34.76 61.5 34.76 79.36 88.33 25.78"/><polygon class="cls-3" points="52.61 79.36 34.76 79.36 88.33 25.79 52.61 79.36"/></g></g></svg>