<?xml version="1.0" encoding="UTF-8"?>
<svg width="75px" height="75px" viewBox="0 0 75 75" version="1.1" xmlns="http://www.w3.org/2000/svg" xmlns:xlink="http://www.w3.org/1999/xlink">
    <!-- Generator: Sketch 51 (57462) - http://www.bohemiancoding.com/sketch -->
    <title>icon-educacion</title>
    <desc>Created with Sketch.</desc>
    <defs></defs>
    <g id="Icons" stroke="none" stroke-width="1" fill="none" fill-rule="evenodd">
        <g transform="translate(-360.000000, -53.000000)" fill="#2C154D" fill-rule="nonzero" id="icon-educacion">
            <g transform="translate(360.000000, 53.000000)">
                <path d="M73.9511719,10.6362305 L64.3623047,1.04736328 C62.962248,-0.348330475 60.6969316,-0.348330475 59.296875,1.04736328 L41.2426758,19.1000977 C40.9333596,19.3891191 40.8062835,19.8238234 40.9112216,20.2339428 C41.0161596,20.6440622 41.3364065,20.9643091 41.7465259,21.0692472 C42.1566453,21.1741852 42.5913497,21.0471092 42.8803711,20.737793 L60.9375,2.68505859 C61.1747253,2.44684528 61.4970654,2.31293506 61.833252,2.31293506 C62.1694385,2.31293506 62.4917786,2.44684528 62.7290039,2.68505859 L72.3178711,12.2724609 C72.8124127,12.7672409 72.8124127,13.5691849 72.3178711,14.0639648 L69.9609375,16.4179688 L63.7954102,10.2539063 C63.5063887,9.94459005 63.0716844,9.81751398 62.661565,9.92245202 C62.2514456,10.0273901 61.9311987,10.347637 61.8262606,10.7577564 C61.7213226,11.1678758 61.8483986,11.6025801 62.1577148,11.8916016 L68.3232422,18.0556641 L65.6352539,20.7451172 L62.925293,18.0351562 C62.4730559,17.5833237 61.7401626,17.5836516 61.2883301,18.0358887 C60.8364975,18.4881257 60.8368254,19.221019 61.2890625,19.6728516 L63.9975586,22.3813477 L61.3095703,25.0708008 L58.59375,22.359375 C58.1393554,21.9230073 57.419381,21.9302918 56.9739086,22.3757641 C56.5284363,22.8212365 56.5211518,23.5412109 56.9575195,23.9956055 L59.6674805,26.7055664 L56.9824219,29.3935547 L50.8168945,23.2280273 C50.3646575,22.7761948 49.6317642,22.7765228 49.1799317,23.2287598 C48.7280991,23.6809969 48.728427,24.4138901 49.1806641,24.8657227 L55.3461914,31.03125 L52.6567383,33.7192383 L49.9511719,31.0092773 C49.6621504,30.6999611 49.2274461,30.5728851 48.8173267,30.6778231 C48.4072073,30.7827612 48.0869604,31.1030081 47.9820223,31.5131275 C47.8770843,31.9232469 48.0041604,32.3579512 48.3134766,32.6469727 L51.0234375,35.3569336 L48.7485352,37.6303711 L37.3666992,26.25 L39.4833984,24.1333008 C39.7856243,23.8430649 39.9073474,23.4121269 39.8016296,23.0066628 C39.6959118,22.6011988 39.3792699,22.284557 38.9738059,22.1788392 C38.5683419,22.0731213 38.1374039,22.1948445 37.847168,22.4970703 L35.7304687,24.609375 L14.3774414,3.26074219 C11.2967888,0.249894687 6.36710977,0.278139406 3.32115974,3.32408943 C0.275209719,6.37003945 0.246964999,11.2997185 3.2578125,14.3803711 L24.609375,35.7333984 L1.04736328,59.296875 C-0.348330475,60.6969316 -0.348330475,62.962248 1.04736328,64.3623047 L10.6362305,73.9511719 C12.0352864,75.3492848 14.3026042,75.3492848 15.7016602,73.9511719 L39.2651367,50.390625 L40.9423828,52.0693359 C41.2314043,52.3786521 41.6661086,52.5057282 42.076228,52.4007902 C42.4863474,52.2958521 42.8065943,51.9756052 42.9115324,51.5654858 C43.0164704,51.1553664 42.8893943,50.7206621 42.5800781,50.4316406 L40.2641602,48.1157227 C40.218537,48.0431192 40.1649856,47.9758115 40.1044922,47.9150391 C40.0438769,47.8543695 39.9765484,47.8008016 39.9038086,47.7553711 L14.8212891,22.6699219 L17.925293,19.565918 L19.8457031,21.4848633 C20.3000977,21.921231 21.0200721,21.9139465 21.4655445,21.4684742 C21.9110168,21.0230018 21.9183013,20.3030274 21.4819336,19.8486328 L19.5629883,17.9296875 L22.6669922,14.8256836 L34.9101562,27.0688477 L47.8125,39.9711914 C47.8444163,40.0144196 47.8796812,40.0550722 47.9179687,40.0927734 C47.9556967,40.1305862 47.9963503,40.1653621 48.0395508,40.1967773 L65.2207031,57.3779297 L62.109375,60.4819336 L44.784668,43.1513672 L44.7539062,43.1162109 L37.8427734,36.2050781 L37.8061523,36.1728516 L25.5981445,23.9648438 C25.1459075,23.5130112 24.4130142,23.5133391 23.9611817,23.9655762 C23.5093491,24.4178133 23.509677,25.1507065 23.9619141,25.6025391 L60.4790039,62.1196289 L57.3735352,65.2236328 L46.3740234,54.2226562 C45.9176183,53.7961966 45.2053177,53.8082732 44.7636314,54.2499595 C44.3219451,54.6916458 44.3098685,55.4039464 44.7363281,55.8603516 L56.5561523,67.6757813 C56.6695499,67.7899535 56.8058406,67.878817 56.9560547,67.9365234 L70.940918,73.3666992 C71.635041,73.6364105 72.4229587,73.4704929 72.9493696,72.9437647 C73.4757804,72.4170365 73.6412233,71.629019 73.3710938,70.9350586 L67.9350586,56.9560547 C67.8766427,56.8065523 67.7884288,56.6704936 67.6757812,56.5561523 L50.390625,39.2709961 L73.9511719,15.7016602 C75.3468656,14.3016035 75.3468656,12.0362871 73.9511719,10.6362305 Z M4.89550781,4.8984375 C7.0627857,2.73509217 10.5724682,2.73509217 12.7397461,4.8984375 L16.4018555,8.56054688 L8.55322266,16.40625 L4.89111328,12.7441406 C2.72881337,10.5751489 2.73077947,7.06500557 4.89550781,4.8984375 Z M35.3642578,51.0219727 L32.6542969,48.3120117 C32.2016553,47.8581566 31.4667945,47.8571729 31.0129395,48.3098145 C30.5590844,48.762456 30.5581006,49.4973168 31.0107422,49.9511719 L33.7192383,52.659668 L31.03125,55.3491211 L24.8657227,49.1835938 C24.4113281,48.747226 23.6913536,48.7545105 23.2458813,49.1999829 C22.800409,49.6454552 22.7931244,50.3654297 23.2294922,50.8198242 L29.3950195,56.9824219 L26.7055664,59.671875 L23.9956055,56.9619141 C23.5384355,56.5518596 22.8405724,56.5703333 22.4057372,57.0040006 C21.9709019,57.437668 21.9505515,58.1354788 22.359375,58.59375 L25.0693359,61.3037109 L22.3798828,63.9916992 L19.6713867,61.2890625 C19.2195542,60.8368254 18.4866609,60.8364975 18.0344238,61.2883301 C17.5821868,61.7401626 17.5818588,62.4730559 18.0336914,62.925293 L20.7436523,65.6352539 L18.0556641,68.3232422 L11.8901367,62.1577148 C11.6023774,61.8429703 11.1649839,61.7117369 10.7514838,61.8160788 C10.3379837,61.9204207 10.0152232,62.2434701 9.91125139,62.6570634 C9.80727955,63.0706567 9.93890438,63.5079326 10.2539062,63.7954102 L16.4194336,69.9609375 L14.0625,72.3134766 C13.8252747,72.5516899 13.5029346,72.6856001 13.166748,72.6856001 C12.8305615,72.6856001 12.5082214,72.5516899 12.2709961,72.3134766 L2.68505859,62.7246094 C2.19132374,62.2294957 2.19132374,61.4282192 2.68505859,60.9331055 L26.2485352,37.3710938 L37.6289062,48.7514648 L35.3642578,51.0219727 Z M17.1079102,17.109375 L13.1835937,21.0336914 L10.190918,18.0395508 L18.0366211,10.1938477 L21.0307617,13.1835938 L17.1079102,17.109375 Z M59.4418945,66.4233398 L66.4145508,59.4506836 L70.8486328,70.8515625 L59.4418945,66.4233398 Z" id="Shape"></path>
            </g>
        </g>
    </g>
</svg>