<?xml version="1.0" encoding="UTF-8"?>
<svg width="74px" height="42px" viewBox="0 0 74 42" version="1.1" xmlns="http://www.w3.org/2000/svg" xmlns:xlink="http://www.w3.org/1999/xlink">
    <!-- Generator: Sketch 51 (57462) - http://www.bohemiancoding.com/sketch -->
    <title>icon-bienestar</title>
    <desc>Created with Sketch.</desc>
    <defs></defs>
    <g id="Icons" stroke="none" stroke-width="1" fill="none" fill-rule="evenodd">
        <g transform="translate(-256.000000, -70.000000)" fill="#2C154D" fill-rule="nonzero" id="icon-bienestar">
            <g transform="translate(255.000000, 70.000000)">
                <path d="M73.7211538,14.5336538 C72.9925084,13.6375199 71.9048376,13.1095243 70.75,13.0913462 L69.0769231,13.0913462 L69.0769231,11.7355769 C68.9907301,9.21560935 66.8807163,7.24110101 64.3605769,7.32211538 L62.1538462,7.32211538 L62.1538462,4.82692308 C62.1351635,3.61884658 61.6122224,2.47360541 60.7115385,1.66826923 C58.8880157,0.0967730153 56.1889074,0.0967730153 54.3653846,1.66826923 C53.4647007,2.47360541 52.9417595,3.61884658 52.9230769,4.82692308 L52.9230769,16.5528846 L22.9230769,16.5528846 L22.9230769,4.82692308 C22.9229494,3.62983032 22.4268899,2.48628261 21.5528846,1.66826923 C19.7013407,0.0253184483 16.9140439,0.0253184483 15.0625,1.66826923 C14.1884947,2.48628261 13.6924352,3.62983032 13.6923077,4.82692308 L13.6923077,7.32211538 L11.2115385,7.32211538 C10.0662363,7.3140298 8.9596106,7.73609167 8.11057692,8.50480769 C7.2694446,9.27140718 6.78377285,10.3524185 6.76923077,11.4903846 L6.76923077,13.0913462 L5.11057692,13.0913462 C3.95479152,13.1055296 2.86551613,13.6343041 2.13942308,14.5336538 C1.38605924,15.4512395 0.98234519,16.6061682 1,17.7932692 L1,24.5432692 C0.98234519,25.7303702 1.38605924,26.885299 2.13942308,27.8028846 C2.86551613,28.7022344 3.95479152,29.2310088 5.11057692,29.2451923 L6.76923077,29.2451923 L6.76923077,30.8461538 C6.78028719,31.9848875 7.2665559,33.0672276 8.11057692,33.8317308 C8.9596106,34.6004468 10.0662363,35.0225087 11.2115385,35.0144231 L13.6923077,35.0144231 L13.6923077,37.5096154 C13.7025777,38.70458 14.1969786,39.844304 15.0625,40.6682692 C16.8959914,42.3580949 19.7193932,42.3580949 21.5528846,40.6682692 C22.418406,39.844304 22.9128069,38.70458 22.9230769,37.5096154 L22.9230769,25.7836538 L52.9230769,25.7836538 L52.9230769,37.5096154 C52.9520646,38.7153436 53.4732244,39.8566837 54.3653846,40.6682692 C56.1913595,42.3631305 59.0153712,42.3631305 60.8413462,40.6682692 C61.7420301,39.862933 62.2649712,38.7176919 62.2836538,37.5096154 L62.2836538,35.0144231 L64.4903846,35.0144231 C67.0075085,35.0874462 69.112764,33.1173906 69.2067308,30.6009615 L69.2067308,29.2451923 L70.8798077,29.2451923 C72.0346452,29.2270141 73.1223161,28.6990186 73.8509615,27.8028846 C74.5884145,26.882946 74.9857844,25.7366866 74.9759615,24.5576923 L74.9759615,17.7067308 C74.9824642,16.5326762 74.5852822,15.3920509 73.8509615,14.4759615 L73.7211538,14.5336538 Z M5.11057692,26.9375 C4.63483919,26.9444554 4.18248823,26.7315844 3.88461538,26.3605769 C3.48365993,25.8570516 3.26959105,25.2301356 3.27884615,24.5865385 L3.27884615,17.7932692 C3.26717193,17.1492906 3.48151271,16.5215783 3.88461538,16.0192308 C4.16747613,15.6399108 4.60871591,15.4113167 5.08173077,15.3990385 L6.76923077,15.3990385 L6.76923077,26.9375 L5.11057692,26.9375 Z M11.2115385,32.7067308 C10.6389338,32.7130669 10.0841801,32.5076026 9.65384615,32.1298077 C9.28600412,31.8033644 9.07156566,31.3378761 9.0625,30.8461538 L9.0625,11.4903846 C9.07156566,10.9986624 9.28600412,10.533174 9.65384615,10.2067308 C10.0818358,9.83456089 10.6299421,9.62966135 11.1971154,9.62980769 L13.6923077,9.62980761 L13.6923077,32.7068731 L11.2115385,32.7067308 Z M20.6153846,37.5096154 C20.6075408,38.0593945 20.3726212,38.581438 19.9663462,38.9519231 C19.0135056,39.7743677 17.601879,39.7743677 16.6490385,38.9519231 C16.2427634,38.581438 16.0078438,38.0593945 16,37.5096154 L16,4.82692308 C16.0078438,4.27714399 16.2427634,3.75510044 16.6490385,3.38461538 C17.5842766,2.51612701 19.031108,2.51612701 19.9663462,3.38461538 C20.3726212,3.75510044 20.6075408,4.27714399 20.6153846,4.82692308 L20.6153846,37.5096154 Z M22.9230769,23.4759615 L22.9230769,18.8605769 L52.9230769,18.8605769 L52.9230769,23.4759615 L22.9230769,23.4759615 Z M59.8461538,37.5096154 C59.83831,38.0593945 59.6033904,38.581438 59.1971154,38.9519231 C58.2442748,39.7743677 56.8326483,39.7743677 55.8798077,38.9519231 C55.4735327,38.581438 55.2386131,38.0593945 55.2307692,37.5096154 L55.2307692,4.82692308 C55.2386131,4.27714399 55.4735327,3.75510044 55.8798077,3.38461538 C56.8150459,2.51612701 58.2618772,2.51612701 59.1971154,3.38461538 C59.6033904,3.75510044 59.83831,4.27714399 59.8461538,4.82692308 L59.8461538,37.5096154 Z M66.7692308,30.6009615 C66.6844488,31.847019 65.6067921,32.7891619 64.3605769,32.7067308 L62.1538462,32.7067308 L62.1538462,9.62980769 L64.3605769,9.62980769 C65.6040575,9.55541923 66.6768434,10.493304 66.7692308,11.7355769 L66.7692308,30.6009615 Z M72.5384615,24.5576923 C72.5585617,25.2093614 72.3492814,25.8474111 71.9471154,26.3605769 C71.6614721,26.7366053 71.221931,26.9643194 70.75,26.9807692 L69.0769231,26.9807692 L69.0769231,15.4423077 L70.75,15.4423077 C71.221931,15.4587576 71.6614721,15.6864716 71.9471154,16.0625 C72.3165101,16.5323968 72.5239563,17.1091983 72.5384615,17.7067308 L72.5384615,24.5576923 Z" id="Shape"></path>
            </g>
        </g>
    </g>
</svg>