<?xml version="1.0" encoding="UTF-8"?>
<svg width="75px" height="60px" viewBox="0 0 75 60" version="1.1" xmlns="http://www.w3.org/2000/svg" xmlns:xlink="http://www.w3.org/1999/xlink">
    <!-- Generator: Sketch 51 (57462) - http://www.bohemiancoding.com/sketch -->
    <title>icon-personal</title>
    <desc>Created with Sketch.</desc>
    <defs></defs>
    <g id="Icons" stroke="none" stroke-width="1" fill="none" fill-rule="evenodd">
        <g transform="translate(-463.000000, -61.000000)" fill="#2C154D" fill-rule="nonzero" id="icon-personal">
            <g transform="translate(463.000000, 61.000000)">
                <path d="M48.8887042,44.5913172 C48.8955563,42.3146896 47.3617009,40.3251034 45.1674208,39.7643863 L47.7878627,37.1275029 C49.0507115,35.8595875 49.5449558,34.0105092 49.0844183,32.2767977 C48.6238809,30.5430863 47.2785284,29.1881338 45.5551422,28.7223378 C43.8317559,28.2565417 41.9921591,28.7506676 40.7293103,30.018583 L38.4764251,32.2840226 C38.0258404,30.547114 36.684194,29.186204 34.9608957,28.7180166 C33.2375975,28.2498292 31.3969483,28.7461699 30.1378244,30.018583 L26.9998772,33.1721778 C26.5494073,31.4357214 25.2083255,30.0750327 23.4855962,29.6065172 C21.7628668,29.1380017 19.9225602,29.6334762 18.6631051,30.9048995 L9.80882774,39.8103571 L1.24896147,39.8103571 C0.559179099,39.8103571 8.44739778e-17,40.3726523 0,41.0662785 C-8.44739778e-17,41.7599048 0.559179099,42.3222 1.24896147,42.3222 L7.89058384,42.3222 C7.1847286,44.1408036 7.53948486,46.3529171 8.95119534,47.7724945 C10.4663989,49.2859376 12.7722135,49.6601781 14.6839834,48.7029429 C14.8491727,49.6938139 15.3140173,50.6094214 16.0152337,51.3251156 C17.5203171,52.8231395 19.8023588,53.2014208 21.7059629,52.2684358 C21.9951698,53.7984225 22.9778409,55.1050513 24.3630851,55.8015331 C25.7483293,56.4980149 27.3774422,56.5045553 28.7681726,55.8192181 C29.1182119,57.6430215 30.4411278,59.1234038 32.2072302,59.6676261 C33.9733325,60.2118485 35.8939342,59.7309521 37.2000341,58.4174861 L47.4257918,48.1329053 C48.3657031,47.1942005 48.8925705,45.9160498 48.8887042,44.5839619 L48.8887042,44.5913172 Z M10.7176621,45.9998616 C10.2491076,45.5287859 9.98586888,44.8898162 9.98586888,44.223551 C9.98586888,43.5572858 10.2491076,42.9183162 10.7176621,42.4472405 L11.2077377,41.9544338 L20.4277432,32.6830489 C20.8958961,32.2119951 21.5310221,31.9473353 22.1932956,31.9473353 C22.8555692,31.9473353 23.4906952,32.2119951 23.9588481,32.6830489 C24.9004528,33.6772772 24.9004528,35.2396028 23.9588481,36.2338312 L14.2487669,45.9980228 C13.2721924,46.9749279 11.6942366,46.9749279 10.7176621,45.9980228 L10.7176621,45.9998616 Z M17.7798718,49.5506439 C17.3114284,49.0798822 17.0482353,48.4412169 17.0482353,47.7752527 C17.0482353,47.1092886 17.3114284,46.4706233 17.7798718,45.9998616 L31.9024625,31.7967324 C32.3706154,31.3256786 33.0057413,31.0610188 33.6680149,31.0610188 C34.3302885,31.0610188 34.9654144,31.3256786 35.4335673,31.7967324 C36.3740116,32.7907164 36.3740116,34.3516918 35.4335673,35.3456759 L29.9476458,40.8621683 L23.0811006,47.766978 L21.3182912,49.5414497 C20.3421304,50.5193627 18.7633471,50.5193627 17.7871863,49.5414497 L17.7798718,49.5506439 Z M24.8402528,53.0995874 C23.868973,52.1182003 23.868973,50.532031 24.8402528,49.5506439 L31.7086266,42.6439954 L42.4976056,31.7948936 C42.9654463,31.3239515 43.6002695,31.0593374 44.2622437,31.0593374 C44.924218,31.0593374 45.5590412,31.3239515 46.0268818,31.7948936 C46.9673261,32.7888776 46.9673261,34.349853 46.0268818,35.343837 L40.3672394,41.0442126 L28.3768436,53.103265 C27.4000565,54.0813903 25.8206971,54.0813903 24.8439101,53.103265 L24.8402528,53.0995874 Z M33.6671006,57.385902 C32.657816,57.3845545 31.7485063,56.77258 31.3624511,55.83485 C30.9763959,54.89712 31.1894598,53.81791 31.9024625,53.0995874 L42.1337062,42.811329 C43.1090286,41.8348493 44.6858314,41.8348493 45.6611537,42.811329 C46.60392,43.8058011 46.60392,45.369478 45.6611537,46.3639501 L35.435396,56.646692 C34.9673466,57.1195661 34.3305792,57.3844331 33.6671006,57.3822243 L33.6671006,57.385902 Z" id="Shape"></path>
                <path d="M31.213559,4.76069351 C31.9034331,4.76069351 32.4626866,4.19614975 32.4626866,3.49974974 C32.4626866,2.80334973 31.9034331,2.23880597 31.213559,2.23880597 C22.1880177,2.23880597 16.8696237,6.0419453 13.6928526,8.31459798 C12.7656086,8.97737809 11.6115829,9.7915453 11.2366618,9.7915453 L1.2491276,9.7915453 C0.559253477,9.7915453 8.44852139e-17,10.3560891 0,11.0524891 C-8.44852139e-17,11.7488891 0.559253477,12.3134328 1.2491276,12.3134328 L11.2366618,12.3134328 C12.4053185,12.3134328 13.5520286,11.4955733 15.1358419,10.36017 C18.2614042,8.1262872 22.9817532,4.75146259 31.213559,4.75146259 L31.213559,4.76069351 Z" id="Shape"></path>
                <path d="M69.9626866,40.858209 C69.9626866,41.4764382 70.5267135,41.9776119 71.222476,41.9776119 L73.7402105,41.9776119 C74.1902899,41.977612 74.6061805,41.764255 74.8312202,41.4179105 C75.0562599,41.071566 75.0562599,40.6448519 74.8312202,40.2985074 C74.6061805,39.9521629 74.1902899,39.7388059 73.7402105,39.738806 L71.222476,39.738806 C70.5267135,39.738806 69.9626866,40.2399798 69.9626866,40.858209 Z" id="Shape"></path>
                <path d="M32.5141323,7.99900708 C30.5460869,10.9186447 25.16615,20.0865975 24.9012916,20.5429045 C24.4826583,21.3741726 24.5465255,22.3633809 25.0686674,23.13531 C26.2016729,24.9532662 29.3155988,26.0622194 31.0482144,26.0622194 C33.4595297,26.0622194 34.9254476,24.3896998 36.4778123,22.6081027 C37.0148863,21.9936336 37.5813891,21.3591669 38.2141065,20.7247002 L44.4916192,14.5200158 C44.9091391,14.1091577 45.3009088,13.7201151 45.420463,13.6673944 C45.6193189,13.6430293 45.8198359,13.6345181 46.0200731,13.641943 C46.8128091,13.9346339 49.465072,16.2270766 51.4643853,18.201377 L64.058036,31.8905869 C64.4166984,32.2541781 64.9500939,33.0140838 64.9500939,33.4994781 L64.9500939,44.6690007 C64.9132696,46.013845 63.7996649,47.0851443 62.438537,47.0851443 C61.0774091,47.0851443 59.9638044,46.013845 59.9269801,44.6690007 L59.9269801,35.9955319 C59.9269801,34.290289 58.4684194,32.8013829 58.3028829,32.6359489 L49.514733,23.9497544 C49.0206745,23.4885343 48.2451039,23.4992752 47.7643133,23.9739959 C47.2835228,24.4487166 47.2718526,25.215278 47.7379743,25.7040821 L56.524285,34.3884586 C56.8829474,34.7520498 57.4163429,35.5101376 57.4163429,35.9955319 L57.4163429,48.4067185 C57.3795186,49.7515629 56.2659139,50.8228621 54.904786,50.8228621 C53.5436581,50.8228621 52.4300534,49.7515629 52.3932291,48.4067185 L52.3932291,38.4734061 C52.410838,38.0187991 52.1755015,37.5910744 51.7798552,37.3585975 C51.3842089,37.1261206 50.8916121,37.1261206 50.4959658,37.3585975 C50.1003195,37.5910744 49.864983,38.0187991 49.8825919,38.4734061 L49.8825919,52.1244389 C49.8836701,53.1039568 49.301687,53.9924513 48.3970385,54.3923846 C47.49239,54.7923178 46.4343662,54.6288488 45.6963572,53.9751182 C45.1803235,53.5177828 44.3869002,53.560514 43.9241968,54.0705609 C43.4614933,54.5806079 43.504726,55.3648263 44.0207598,55.8221617 C45.4210294,57.0665664 47.4098056,57.428057 49.1663761,56.7574563 C50.9229465,56.0868556 52.1495067,54.4978557 52.3398896,52.6461923 C53.1114599,53.1151649 53.9981054,53.3666309 54.9038664,53.3733747 C57.4641588,53.3628132 59.6051241,51.4473264 59.869962,48.9302899 C60.6406933,49.3996282 61.5268561,49.6511377 62.4320995,49.6574724 C65.2054478,49.6554671 67.4531844,47.4338075 67.4552132,44.6926341 L67.4552132,33.5085678 C67.4552132,31.803325 65.9984918,30.3144189 65.8734198,30.1907979 L53.2816085,16.4979521 C47.8906358,11.1695226 46.5553078,11.1695226 46.1083592,11.1695226 C44.4419582,11.1695226 44.1274388,11.3713157 42.7093426,12.7747779 L36.4428657,18.9794623 C35.7384158,19.6757395 35.1259307,20.3756526 34.5851781,20.9919397 C33.0953494,22.6917287 32.2603096,23.5807093 31.051893,23.5807093 C29.4682603,23.5807093 27.1525883,22.2445115 27.1176417,21.7209401 C27.1709812,21.6264064 32.6833474,12.233027 34.6090889,9.37519989 C36.7739387,6.16650728 40.1821518,2.48151015 47.3756332,2.48151015 C52.7647666,2.48151015 60.0667665,6.66280931 64.9059508,9.44246427 C68.3601462,11.4222185 70.0725296,12.3748275 71.2331245,12.3748275 L73.7437617,12.3748275 C74.437563,12.3748275 75,11.8189156 75,11.1331635 C75,10.4474114 74.437563,9.89149944 73.7437617,9.89149944 L71.242321,9.89149944 C70.6040857,9.84241462 68.2424314,8.48985524 66.1603498,7.29545805 C60.7914486,4.21765828 53.4361092,0 47.3701154,0 C38.8909669,0 34.8298042,4.56670586 32.5141323,7.99900708 Z" id="Shape"></path>
            </g>
        </g>
    </g>
</svg>