<?xml version="1.0" encoding="UTF-8"?>
<svg width="75px" height="80px" viewBox="0 0 75 80" version="1.1" xmlns="http://www.w3.org/2000/svg" xmlns:xlink="http://www.w3.org/1999/xlink">
    <!-- Generator: Sketch 51 (57462) - http://www.bohemiancoding.com/sketch -->
    <title>icon-entretenimiento</title>
    <desc>Created with Sketch.</desc>
    <defs></defs>
    <g id="Icons" stroke="none" stroke-width="1" fill="none" fill-rule="evenodd">
        <g transform="translate(-153.000000, -50.000000)" fill="#2C154D" fill-rule="nonzero" id="icon-entretenimiento">
            <g transform="translate(153.000000, 50.000000)">
                <path d="M35.027027,24.5878378 L35.2297297,24.5878378 L35.5337838,24.5878378 L51.9121622,19.4391892 L55.3783784,18.2432432 L60.527027,16.6418919 L72.972973,12.6486486 C73.3104837,12.5460349 73.5927498,12.3123629 73.7565776,11.9999472 C73.9204053,11.6875316 73.9521104,11.3224678 73.8445946,10.9864865 L70.6824324,0.851351351 C70.6824324,0.851351351 70.6824324,0.851351351 70.6824324,0.851351351 C70.6417392,0.733098575 70.5799273,0.623210637 70.5,0.527027027 L70.5,0.425675676 C70.4178007,0.323190351 70.3139754,0.24013008 70.1959459,0.182432432 L69.8513514,0.182432432 L69.527027,0.182432432 C69.3731798,0.151310347 69.2146581,0.151310347 69.0608108,0.182432432 L32.1689189,11.6351351 L28.7432432,12.7094595 L22.8851351,14.5540541 L6.08108108,19.8040541 L1.31756757,19.8040541 C0.589895093,19.8040541 8.91141767e-17,20.3939491 0,21.1216216 L0,75.2635135 C0.0549999435,77.4628279 1.85405212,79.2169038 4.05405405,79.2162162 L69.972973,79.2162162 C72.1729749,79.2169038 73.9720271,77.4628279 74.027027,75.2635135 L74.027027,31.6824324 C74.027027,31.6824324 74.027027,31.6824324 74.027027,31.6824324 C74.0554775,31.5624746 74.0554775,31.4375254 74.027027,31.3175676 C74.0250612,31.2838124 74.0250612,31.2499714 74.027027,31.2162162 C73.9643415,31.0954619 73.882156,30.9858812 73.7837838,30.8918919 L73.4797297,30.6891892 L73.3581081,30.6891892 C73.2100871,30.6698711 73.0601832,30.6698711 72.9121622,30.6891892 L18.2432432,30.6891892 L17.8986486,30.2635135 L35.027027,24.5878378 Z M67.3378378,3.36486486 L64.0337838,12.7094595 L59.6351351,14.1891892 L57.1013514,14.9797297 L60.4054054,5.53378378 L62.5337838,4.88513514 L67.3378378,3.36486486 Z M16.8040541,27.527027 L20.1081081,18.2432432 L27.0405405,16.0135135 L23.7364865,25.3581081 L19.4594595,26.6959459 L16.8040541,27.527027 Z M57.3445946,6.52702703 L53.9594595,15.8716216 L47.027027,18.0405405 L50.3310811,8.69594595 L51.1824324,8.43243243 L57.3445946,6.52702703 Z M43.9662162,19.0337838 L37.0337838,21.2027027 L40.3378378,11.8581081 L47.2702703,9.68918919 L43.9662162,19.0337838 Z M33.8310811,22.1959459 L26.8783784,24.3243243 L30.1824324,15 L37.0945946,12.8513514 L33.8310811,22.1959459 Z M14.6351351,25.7432432 L10.9054054,21.0810811 L16.9864865,19.1756757 L14.6351351,25.7432432 Z M67.1959459,11.7162162 L69.3851351,5.49324324 L70.9459459,10.5405405 L67.1959459,11.7162162 Z M2.63513514,22.4391892 L8.71621622,22.4391892 L14.7972973,30.0810811 L16.8243243,32.4932432 L17.7364865,33.6689189 L17.8986486,33.8513514 L18.6486486,34.7837838 L18.6486486,40.8648649 L2.63513514,40.8648649 L2.63513514,22.4391892 Z M71.3108108,75.2635135 C71.2997347,75.9944529 70.7039962,76.581165 69.972973,76.5810811 L4.05405405,76.5810811 C3.32638158,76.5810811 2.73648649,75.991186 2.73648649,75.2635135 L2.73648649,43.5608108 L71.3108108,43.5608108 L71.3108108,75.2635135 Z M71.3108108,40.9256757 L67.2567568,40.9256757 L71.3108108,35.6351351 L71.3108108,40.9256757 Z M64.0337838,40.9256757 L56.7567568,40.9256757 L62.6959459,33 L69.9527027,33 L64.0337838,40.9256757 Z M53.472973,40.9256757 L46.2162162,40.9256757 L52.1554054,33 L59.4121622,33 L53.472973,40.9256757 Z M42.9121622,40.9256757 L35.6554054,40.9256757 L41.5945946,33 L48.8513514,33 L42.9121622,40.9256757 Z M32.3513514,40.9256757 L25.0945946,40.9256757 L31.0337838,33 L38.2905405,33 L32.3513514,40.9256757 Z M21.7905405,40.9256757 L21.1216216,40.9256757 L21.1216216,34.3175676 C21.120264,34.0231836 21.0203568,33.7377343 20.8378378,33.5067568 L20.4527027,33.0202703 L27.7297297,33.0202703 L21.7905405,40.9256757 Z" id="Shape"></path>
                <rect id="Rectangle-path" x="5.25" y="35.6351351" width="2.63513514" height="2.63513514"></rect>
                <rect id="Rectangle-path" x="5.25" y="25.0743243" width="2.63513514" height="2.63513514"></rect>
                <rect id="Rectangle-path" x="13.3581081" y="35.6351351" width="2.63513514" height="2.63513514"></rect>
                <rect id="Rectangle-path" x="7.92567568" y="51.4864865" width="58.0945946" height="2.63513514"></rect>
                <polygon id="Shape" points="7.92567568 64.6824324 25.0945946 64.6824324 25.0945946 72.6081081 27.7297297 72.6081081 27.7297297 64.6824324 46.2162162 64.6824324 46.2162162 72.6081081 48.8513514 72.6081081 48.8513514 64.6824324 66.0202703 64.6824324 66.0202703 62.0472973 7.92567568 62.0472973"></polygon>
            </g>
        </g>
    </g>
</svg>