<?xml version="1.0" encoding="UTF-8"?>
<svg width="74px" height="81px" viewBox="0 0 74 81" version="1.1" xmlns="http://www.w3.org/2000/svg" xmlns:xlink="http://www.w3.org/1999/xlink">
    <!-- Generator: Sketch 51 (57462) - http://www.bohemiancoding.com/sketch -->
    <title>icon-locacion</title>
    <desc>Created with Sketch.</desc>
    <defs></defs>
    <g id="Icons" stroke="none" stroke-width="1" fill="none" fill-rule="evenodd">
        <g transform="translate(-50.000000, -50.000000)" fill="#2C154D" fill-rule="nonzero" id="icon-locacion">
            <g transform="translate(50.000000, 50.000000)">
                <path d="M17.4715909,62.2670455 C17.2201669,61.9030677 16.8060094,61.6857936 16.3636364,61.6857936 C15.9212634,61.6857936 15.5071059,61.9030677 15.2556818,62.2670455 L11.25,67.9090909 C8.65909091,71.5909091 8.71022727,75.7159091 11.4034091,78.4090909 C12.7206636,79.7279022 14.5081787,80.4689338 16.3721591,80.4689338 C18.2361394,80.4689338 20.0236546,79.7279022 21.3409091,78.4090909 C23.2159091,76.5340909 24.75,73.2102273 21.4772727,67.9431818 L17.4715909,62.2670455 Z M19.3977273,76.4659091 C17.7209951,78.1390542 15.0062777,78.1390542 13.3295455,76.4659091 C11.625,74.7613636 11.625,72.0170455 13.4659091,69.4943182 L16.3636364,65.4204545 L19.2102273,69.4261364 C21.9886364,73.8920455 20.0454545,75.8352273 19.3977273,76.4659091 Z" id="Shape"></path>
                <path d="M73.6363636,35.4545455 L69.5454545,35.4545455 L69.5454545,32.7272727 C69.5454545,31.9741572 68.9349337,31.3636364 68.1818182,31.3636364 L60,31.3636364 C59.2468844,31.3636364 58.6363636,31.9741572 58.6363636,32.7272727 L58.6363636,35.4545455 L37.5,35.4545455 C35.6172111,35.4545455 34.0909091,33.9282435 34.0909091,32.0454545 L34.0909091,15 L36.8181818,15 C37.5712974,15 38.1818182,14.3894792 38.1818182,13.6363636 L38.1818182,5.45454545 C38.1818182,4.70142989 37.5712974,4.09090909 36.8181818,4.09090909 L34.0909091,4.09090909 L34.0909091,0 L9.54545455,0 L9.54545455,4.09090909 L6.81818182,4.09090909 C6.06506625,4.09090909 5.45454545,4.70142989 5.45454545,5.45454545 L5.45454545,13.6363636 C5.45454545,14.3894792 6.06506625,15 6.81818182,15 L9.54545455,15 L9.54545455,40.1420455 C9.5468834,46.007773 12.1503753,51.5706297 16.6534091,55.3295455 C16.79719,55.5513196 17.0053662,55.7238085 17.25,55.8238636 C20.7250331,58.5268006 25.000943,59.9960824 29.4034091,60 L58.6363636,60 L58.6363636,62.7272727 C58.6363636,63.4803883 59.2468844,64.0909091 60,64.0909091 L68.1818182,64.0909091 C68.9349337,64.0909091 69.5454545,63.4803883 69.5454545,62.7272727 L69.5454545,60 L73.6363636,60 L73.6363636,35.4545455 Z M12.2727273,2.72727273 L31.3636364,2.72727273 L31.3636364,4.09090909 L12.2727273,4.09090909 L12.2727273,2.72727273 Z M8.18181818,12.2727273 L8.18181818,6.81818182 L35.4545455,6.81818182 L35.4545455,12.2727273 L8.18181818,12.2727273 Z M29.4034091,57.2727273 C25.6763285,57.2667225 22.0539371,56.0393006 19.0909091,53.7784091 L19.0909091,50.4545455 L23.1818182,50.4545455 C23.9349337,50.4545455 24.5454545,49.8440247 24.5454545,49.0909091 L24.5454545,45 L28.6363636,45 C29.123544,45 29.5737172,44.7400924 29.8173074,44.3181818 C30.0608976,43.8962713 30.0608976,43.376456 29.8173074,42.9545454 C29.5737172,42.5326349 29.123544,42.2727272 28.6363636,42.2727273 L23.1818182,42.2727273 C22.4287026,42.2727273 21.8181818,42.8832481 21.8181818,43.6363636 L21.8181818,47.7272727 L17.7272727,47.7272727 C16.9741572,47.7272727 16.3636364,48.3377935 16.3636364,49.0909091 L16.3636364,51.2215909 C13.7231999,48.133946 12.2724148,44.2047361 12.2727273,40.1420455 L12.2727272,15 L31.3636364,15 L31.3636364,32.0454545 C31.3545031,33.6757021 31.9980777,35.2418224 33.1508549,36.3945996 C34.3036321,37.5473768 35.8697524,38.1909514 37.5,38.1818182 L58.6363636,38.1818182 L58.6363636,57.2727273 L29.4034091,57.2727273 Z M66.9034091,61.3636364 L61.3636364,61.3636364 L61.3636364,34.0909091 L66.8181818,34.0909091 L66.9034091,61.3636364 Z M70.9943182,57.2727273 L69.6306818,57.2727273 L69.6306818,38.1818182 L70.9943182,38.1818182 L70.9943182,57.2727273 Z" id="Shape"></path>
                <path d="M5.84659091,56.25 L3.13636364,59.0284091 C2.7892476,59.3816148 2.65693219,59.8931746 2.78925934,60.3703888 C2.92158649,60.847603 3.29845256,61.2179713 3.77789574,61.3419797 C4.25733892,61.4659881 4.76652037,61.3247967 5.11363636,60.9715909 L7.85795455,58.2272727 C8.21116033,57.8679772 8.34585406,57.3475414 8.2112979,56.8620085 C8.07674175,56.3764756 7.69337799,55.9996095 7.20561605,55.8733721 C6.71785412,55.7471347 6.19979666,55.8907045 5.84659091,56.25 Z" id="Shape"></path>
                <path d="M6.81818182,53.1818182 C6.81818182,52.4287026 6.20766102,51.8181818 5.45454545,51.8181818 L1.36363636,51.8181818 C0.610520796,51.8181818 9.2230057e-17,52.4287026 0,53.1818182 C-9.2230057e-17,53.9349337 0.610520796,54.5454545 1.36363636,54.5454545 L5.45454545,54.5454545 C6.20766102,54.5454545 6.81818182,53.9349337 6.81818182,53.1818182 Z" id="Shape"></path>
                <path d="M5.11363636,45.3920455 C4.77235243,45.0226154 4.25542477,44.8710349 3.76868099,44.9976594 C3.2819372,45.1242839 2.90440896,45.5085538 2.78641852,45.9974623 C2.66842808,46.4863708 2.82913332,47.0005349 3.20454545,47.3352273 L5.91477273,50.0625 C6.45657046,50.5863834 7.31615681,50.5863834 7.85795455,50.0625 C8.39090958,49.5244026 8.39090958,48.6574156 7.85795455,48.1193182 L5.11363636,45.3920455 Z" id="Shape"></path>
            </g>
        </g>
    </g>
</svg>