<?xml version="1.0" encoding="UTF-8"?>
<svg width="74px" height="20px" viewBox="0 0 74 20" version="1.1" xmlns="http://www.w3.org/2000/svg" xmlns:xlink="http://www.w3.org/1999/xlink">
    <!-- Generator: Sketch 51 (57462) - http://www.bohemiancoding.com/sketch -->
    <title>icon-mas</title>
    <desc>Created with Sketch.</desc>
    <defs></defs>
    <g id="Icons" stroke="none" stroke-width="1" fill="none" fill-rule="evenodd">
        <g transform="translate(-670.000000, -81.000000)" fill="#2C154D" fill-rule="nonzero" id="icon-mas">
            <g transform="translate(670.000000, 81.000000)">
                <path d="M19.8369565,9.9673913 C19.8413539,5.97014227 17.4368533,2.36404261 13.7451381,0.831313654 C10.0534229,-0.701415304 5.80189019,0.141227669 2.97385143,2.96615528 C0.145812667,5.79108288 -0.701509523,10.0416855 0.82715498,13.7350856 C2.35581948,17.4284857 5.95927028,19.8369541 9.95652174,19.8369565 C15.4066165,19.8309806 19.8249816,15.4174762 19.8369565,9.9673913 Z M3.5326087,9.9673913 C3.54461606,6.4372568 6.41185165,3.58299521 9.94200431,3.58699767 C13.472157,3.59100013 16.3329129,6.45175608 16.3369154,9.98190874 C16.3409178,13.5120614 13.4866562,16.379297 9.95652174,16.3913043 C8.25667073,16.3884282 6.62774488,15.7096589 5.42882933,14.5046264 C4.22991379,13.299594 3.55944296,11.6672349 3.56521739,9.9673913 L3.5326087,9.9673913 Z" id="Shape"></path>
                <path d="M46.9347826,9.9673913 C46.9347694,4.51941374 42.5204239,0.101843853 37.0724478,0.0978526773 C31.6244717,0.0938615014 27.2036584,4.50495877 27.1956628,9.95293047 C27.1876672,15.4009022 31.5955139,19.8249566 37.0434783,19.8369565 C39.663933,19.8398409 42.1782063,18.8016347 44.0331861,16.9507319 C45.8881658,15.099829 46.9319014,12.587846 46.9347826,9.9673913 Z M37.0434783,16.3913043 C34.4530523,16.3913006 32.1179027,14.8302823 31.127608,12.4366192 C30.1373134,10.042956 30.6870514,7.2884161 32.5203148,5.45826525 C34.3535781,3.62811439 37.1090482,3.08305779 39.5010251,4.07741838 C41.8930021,5.07177896 43.4500502,7.40957776 43.4456522,10 C43.4396563,13.5315774 40.5750608,16.3913094 37.0434783,16.3913043 Z" id="Shape"></path>
                <path d="M64.2173913,0.0869565217 C60.2124647,0.0473018445 56.5797845,2.42928748 55.0196101,6.11803593 C53.4594357,9.80678438 54.280446,14.0724805 57.0983709,16.9185846 C59.9162958,19.7646887 64.1736116,20.6281021 67.8777012,19.1047079 C71.5817908,17.5813138 73.9998037,13.9725142 74,9.9673913 C74.0002656,4.54855414 69.6359629,0.140608368 64.2173913,0.0869565217 Z M64.2173913,16.3913043 C61.6259807,16.3957003 59.2874953,14.8374742 58.2937737,12.4441615 C57.300052,10.0508488 57.8471037,7.29452574 59.6795104,5.46211906 C61.511917,3.62971238 64.2682401,3.08266071 66.6615528,4.07638237 C69.0548655,5.07010403 70.6130916,7.40858935 70.6086957,10 C70.602712,13.5273385 67.7447298,16.3853207 64.2173913,16.3913043 Z" id="Shape"></path>
            </g>
        </g>
    </g>
</svg>