<?xml version="1.0" encoding="UTF-8"?>
<svg width="75px" height="63px" viewBox="0 0 75 63" version="1.1" xmlns="http://www.w3.org/2000/svg" xmlns:xlink="http://www.w3.org/1999/xlink">
    <!-- Generator: Sketch 51 (57462) - http://www.bohemiancoding.com/sketch -->
    <title>icon-negocios</title>
    <desc>Created with Sketch.</desc>
    <defs></defs>
    <g id="Icons" stroke="none" stroke-width="1" fill="none" fill-rule="evenodd">
        <g transform="translate(-566.000000, -59.000000)" fill="#2C154D" fill-rule="nonzero" id="icon-negocios">
            <g transform="translate(566.000000, 59.000000)">
                <path d="M62.237395,20.5556723 C67.9287203,20.5461219 72.5390965,15.9329268 72.5451681,10.2415966 C72.5451681,4.51890756 67.9537815,0 62.2326681,0 C56.5115546,0 51.9910714,4.59138655 51.9910714,10.3125 C51.9809696,13.0327892 53.0573469,15.6445323 54.9811909,17.5677846 C56.9050349,19.491037 59.517109,20.5666109 62.237395,20.5556723 Z M62.237395,2.26102941 C66.6642574,2.28369622 70.2348194,5.89027406 70.213057,10.3171411 C70.1912946,14.7440081 66.5854463,18.3153068 62.1585749,18.2944488 C57.7317036,18.2735908 54.1596682,14.6684722 54.1796218,10.2415966 C54.1796218,5.79201681 57.852416,2.26102941 62.237395,2.26102941 Z" id="Shape"></path>
                <path d="M59.7589286,15.1875 C59.9129845,15.2664095 60.0811272,15.3140678 60.2536765,15.3277311 C60.3954832,15.3986345 60.6066176,15.3986345 60.8193277,15.4695378 C61.0018671,15.5279671 61.1936657,15.5520087 61.384979,15.5404412 L61.5252101,15.5404412 L61.5252101,16.9585084 L63.2205882,16.9585084 L63.2205882,15.4695378 L63.2914916,15.4695378 C63.5133938,15.4045418 63.725422,15.3096592 63.9217437,15.1875 C64.1252574,15.095731 64.3155115,14.9770209 64.487395,14.8345588 C64.6472153,14.6845599 64.7908586,14.5182083 64.9159664,14.3382353 C65.0577731,14.1964286 65.1286765,13.9852941 65.2689076,13.772584 L65.4816176,13.1423319 C65.5421065,12.9106306 65.5639335,12.6705334 65.5462185,12.4317227 C65.5576997,12.2409297 65.5336578,12.0496633 65.4753151,11.8676471 C65.435982,11.6686875 65.3641148,11.4775742 65.262605,11.3019958 C65.1960235,11.1228861 65.1007686,10.9557909 64.9805672,10.8072479 C64.8387605,10.6670168 64.7678571,10.5252101 64.6276261,10.3834034 C64.49316,10.2280465 64.3235405,10.107044 64.1328782,10.0304622 C63.9843352,9.91026079 63.81724,9.8150059 63.6381303,9.74842437 C63.4269958,9.67752101 63.2851891,9.53571429 63.072479,9.46481092 C62.8801025,9.40665566 62.6916848,9.33613058 62.5084034,9.25367647 C62.4021261,9.23628546 62.303711,9.18680301 62.2263655,9.11186975 C62.1554622,9.04096639 62.0136555,9.04096639 61.9427521,8.97163866 C61.8718487,8.90073529 61.7316176,8.90073529 61.6607143,8.82983193 L61.4495798,8.61712185 C61.3626527,8.54910209 61.3111145,8.44544656 61.3093487,8.33508403 C61.2530657,8.25243205 61.2279403,8.15248852 61.2384454,8.05304622 L61.2384454,7.70010504 C61.2384454,7.62920168 61.3093487,7.48739496 61.3093487,7.4164916 C61.3802521,7.34558824 61.3802521,7.20535714 61.4495798,7.13445378 L61.6622899,6.9217437 C61.7593265,6.83420826 61.884579,6.78444276 62.0152311,6.78151261 C62.1234827,6.7240669 62.2461339,6.69942715 62.3681723,6.71060924 L62.7920168,6.71060924 C62.9140552,6.69942715 63.0367064,6.7240669 63.144958,6.78151261 C63.2639337,6.7979698 63.3817984,6.82164797 63.4978992,6.85241597 C63.5688025,6.85241597 63.7106092,6.9217437 63.7815126,6.9217437 C63.9217437,6.9217437 63.9926471,6.99264706 64.0635504,6.99264706 L64.4164916,7.13445378 L64.487395,6.71060924 L64.6292017,5.58088235 L64.6292017,5.29726891 L64.3455882,5.22794118 C64.2762605,5.22794118 64.1344538,5.15703782 64.0635504,5.15703782 C63.9926471,5.15703782 63.9217437,5.08613445 63.7815126,5.08613445 C63.6653371,5.05568851 63.5474917,5.03201421 63.4285714,5.01523109 C63.2867647,5.01523109 63.2158613,4.94432773 63.0740546,4.94432773 L63.0047269,4.94432773 L63.0047269,3.60189076 L61.3140756,3.60189076 L61.3140756,5.01995798 L61.2431723,5.01995798 C61.0213105,5.08506378 60.8092967,5.17993996 60.6129202,5.3019958 C60.4220906,5.37820384 60.2527852,5.49990903 60.1197479,5.65651261 C59.9589143,5.80308745 59.814667,5.96688475 59.6896008,6.14495798 C59.5536653,6.30974014 59.4567141,6.50310396 59.4059874,6.71060924 C59.335084,6.9217437 59.2657563,7.13445378 59.1948529,7.34086134 C59.1362435,7.57185572 59.1123472,7.81028812 59.1239496,8.04831933 C59.1124684,8.23911233 59.1365102,8.43037871 59.1948529,8.61239496 C59.2320783,8.81250823 59.3018023,9.00518057 59.4012605,9.18277311 C59.4721639,9.32457983 59.6139706,9.53571429 59.6848739,9.67752101 C59.825105,9.81932773 59.8960084,9.95955882 60.0378151,10.1013655 C60.1712146,10.2578897 60.3411442,10.3791134 60.532563,10.4543067 C60.6801565,10.575046 60.8468271,10.6703624 61.0257353,10.7363445 C61.221178,10.8164607 61.4102696,10.9112698 61.5913866,11.019958 C61.7841208,11.0785736 61.9730339,11.1490872 62.1570378,11.2310924 C62.2631904,11.2488661 62.3614974,11.2982942 62.4390756,11.3728992 C62.509979,11.4438025 62.6517857,11.4438025 62.7211134,11.5147059 C62.7904412,11.5856092 62.8629202,11.654937 62.9338235,11.654937 L63.144958,11.8676471 C63.2158613,11.9385504 63.2158613,12.0078782 63.2867647,12.1496849 C63.3172107,12.2658604 63.340885,12.3837058 63.3576681,12.5026261 L63.3576681,12.8555672 C63.3400072,12.9622181 63.2905856,13.0610614 63.2158613,13.1391807 L63.0047269,13.3503151 C62.9239297,13.4378963 62.8278146,13.5099826 62.7211134,13.5630252 C62.6517857,13.6323529 62.509979,13.6323529 62.4390756,13.7032563 C62.322937,13.7338614 62.2050822,13.7575376 62.0861345,13.7741597 L61.167542,13.7741597 C61.0502793,13.7589111 60.9340091,13.7368145 60.8193277,13.7079832 C60.6694315,13.693078 60.5246903,13.6451896 60.3954832,13.5677521 C60.2536765,13.4968487 60.1134454,13.4968487 59.9716387,13.4259454 C59.9007353,13.4259454 59.8298319,13.355042 59.7589286,13.355042 C59.6880252,13.355042 59.6186975,13.2841387 59.5477941,13.2841387 L59.1239496,13.0730042 L59.0530462,13.5677521 L58.9112395,14.8392857 L58.9112395,15.0504202 L59.1239496,15.1213235 C59.3368795,15.0690856 59.5613458,15.0924791 59.7589286,15.1875 Z" id="Shape"></path>
                <path d="M6.67279412,39.7436975 C6.81226187,39.7918194 6.96531972,39.7810086 7.09663866,39.7137605 C7.54254202,39.4884454 7.99159664,39.2710084 8.44222689,39.0535714 L9.61134454,38.4926471 L11.1869748,37.7347689 L13.1234244,36.8051471 L15.3655462,35.7305672 L17.8581933,34.5330882 L20.5509454,33.2410714 L23.3870798,31.8781513 L26.3193277,30.4711134 L29.2909664,29.0530462 L32.2531513,27.634979 L35.1491597,26.2452731 L37.9332983,24.894958 L40.5409664,23.6423319 L42.924895,22.4984244 L45.0330882,21.4868697 L46.8135504,20.6328782 L48.2111345,19.9616597 L49.1738445,19.5 L49.6465336,19.2715336 C49.6614355,19.266318 49.6757054,19.2594473 49.6890756,19.2510504 C50.1712185,18.7547269 50.2405462,17.6643908 49.8954832,16.9695378 C49.5504202,16.2746849 48.792542,16.1817227 48.3119748,16.6717437 L6.30252101,36.9091387 C5.93855042,37.2841387 5.80619748,37.8545168 5.84086134,38.3697479 C5.85248634,38.7218396 5.96757002,39.0627066 6.1717437,39.3497899 C6.29716562,39.526772 6.47120724,39.6635972 6.67279412,39.7436975 Z" id="Shape"></path>
                <path d="M73.8167017,60.6066176 L68.5887605,60.6066176 L68.5887605,26.9558824 C68.592609,26.6550969 68.4748207,26.365505 68.2621159,26.1528001 C68.049411,25.9400952 67.7598191,25.822307 67.4590336,25.8261555 L57.0756303,25.8261555 C56.7748448,25.822307 56.4852529,25.9400952 56.272548,26.1528001 C56.0598431,26.365505 55.9420549,26.6550969 55.9459034,26.9558824 L55.9459034,60.6066176 L52.1313025,60.6066176 L52.1313025,32.7431723 C52.1351603,32.4421098 52.0171574,32.1522716 51.8041083,31.9395192 C51.5910592,31.7267668 51.3010568,31.609168 51,31.6134454 L40.5456933,31.6134454 C40.2449078,31.6095969 39.9553159,31.7273851 39.742611,31.94009 C39.5299061,32.1527949 39.4121179,32.4423868 39.4159664,32.7431723 L39.4159664,60.6066176 L35.6092437,60.6066176 L35.6092437,39.2426471 C35.6135211,38.9415902 35.4959223,38.6515879 35.2831699,38.4385388 C35.0704174,38.2254896 34.7805793,38.1074868 34.4795168,38.1113445 L24.0961134,38.1113445 C23.7949101,38.1074962 23.5049175,38.2254505 23.2919172,38.4384508 C23.0789169,38.6514511 22.9609626,38.9414437 22.9648109,39.2426471 L22.9648109,60.6066176 L19.1423319,60.6066176 L19.1423319,47.3004202 C19.1466093,46.9993633 19.0290105,46.709361 18.8162581,46.4963119 C18.6035057,46.2832628 18.3136676,46.1652599 18.012605,46.1691176 L7.56302521,46.1691176 C7.2619627,46.1652599 6.97212457,46.2832628 6.75937216,46.4963119 C6.54661976,46.709361 6.42902096,46.9993633 6.43329832,47.3004202 L6.43329832,60.6066176 L1.12972689,60.6066176 C0.521775243,60.6293181 0.040636854,61.128757 0.040636854,61.7371324 C0.040636854,62.3455077 0.521775243,62.8449466 1.12972689,62.8676471 L73.7394958,62.8676471 C74.0402813,62.8714955 74.3298732,62.7537073 74.5425781,62.5410024 C74.7552829,62.3282976 74.8730712,62.0387057 74.8692227,61.7379202 C74.9014703,61.4430161 74.8038576,61.148668 74.6017849,60.9314701 C74.3997121,60.7142722 74.1131628,60.5957035 73.8167017,60.6066176 Z M58.2053571,28.0871849 L66.3340336,28.0871849 L66.3340336,60.6066176 L58.2053571,60.6066176 L58.2053571,28.0871849 Z M41.6769958,33.8760504 L49.7993697,33.8760504 L49.7993697,60.6066176 L41.6769958,60.6066176 L41.6769958,33.8760504 Z M25.2179622,40.3723739 L33.3403361,40.3723739 L33.3403361,60.6066176 L25.2179622,60.6066176 L25.2179622,40.3723739 Z M8.68802521,48.4301471 L16.8119748,48.4301471 L16.8119748,60.6066176 L8.68802521,60.6066176 L8.68802521,48.4301471 Z" id="Shape"></path>
            </g>
        </g>
    </g>
</svg>