<?xml version="1.0" encoding="UTF-8"?>
<svg width="10px" height="33px" viewBox="0 0 10 33" version="1.1" xmlns="http://www.w3.org/2000/svg" xmlns:xlink="http://www.w3.org/1999/xlink">
    <!-- Generator: Sketch 51 (57462) - http://www.bohemiancoding.com/sketch -->
    <title>icon-arrow-separator</title>
    <desc>Created with Sketch.</desc>
    <defs></defs>
    <g id="Icons" stroke="none" stroke-width="1" fill="none" fill-rule="evenodd">
        <g transform="translate(-550.000000, -327.000000)" fill="#FFFFFF" fill-rule="nonzero" id="icon-arrow-separator">
            <g transform="translate(555.000000, 343.500000) rotate(-90.000000) translate(-555.000000, -343.500000) translate(539.000000, 339.000000)">
                <path d="M0.330322581,0.991345397 C0.121108924,0.882130588 0.00689100355,0.733945555 0.0137634409,0.580645161 C0.0106055069,0.429785919 0.124545111,0.284510659 0.330322581,0.177025964 C0.541995808,0.0680591572 0.829161923,0.00683679218 1.12860215,0.00683679218 C1.42804238,0.00683679218 1.71520849,0.0680591572 1.92688172,0.177025964 L15.9655914,7.39968529 L30.0043011,0.177025964 C30.4510519,-0.0166484473 31.111238,-0.00290716616 31.5261191,0.208701471 C31.9410001,0.420310109 31.9734239,0.759832063 31.6008602,0.991345397 L16.763871,8.62470496 C16.5521977,8.73367176 16.2650316,8.79489413 15.9655914,8.79489413 C15.6661512,8.79489413 15.3789851,8.73367176 15.1673118,8.62470496 L0.330322581,0.991345397 Z" id="Shape"></path>
            </g>
        </g>
    </g>
</svg>