<?xml version="1.0" encoding="UTF-8"?>
<svg width="40px" height="74px" viewBox="0 0 40 74" version="1.1" xmlns="http://www.w3.org/2000/svg" xmlns:xlink="http://www.w3.org/1999/xlink">
    <!-- Generator: Sketch 51.1 (57501) - http://www.bohemiancoding.com/sketch -->
    <title>icon-facebook</title>
    <desc>Created with Sketch.</desc>
    <defs></defs>
    <g id="Icons" stroke="none" stroke-width="1" fill="none" fill-rule="evenodd">
        <g transform="translate(-834.000000, -64.000000)" fill="#2C154D" fill-rule="nonzero" id="icon-facebook">
            <g transform="translate(834.000000, 64.000000)">
                <path d="M38.0952381,0 L28.5714286,0 C17.9428571,0 11.0380952,7.07619048 11.0380952,18.0190476 L11.0380952,26.3333333 L1.51428571,26.3333333 C1.11443398,26.3282393 0.729202606,26.4835211 0.444657863,26.7644867 C0.16011312,27.0454523 -3.24478601e-05,27.4286872 -2.46489107e-10,27.8285714 L-2.46489107e-10,39.8666667 C-2.4648884e-10,40.6924639 0.669440898,41.3619048 1.49523809,41.3619048 L11.0190476,41.3619048 L11.0190476,71.7428571 C11.0242442,72.5664922 11.6906506,73.2328986 12.5142857,73.2380952 L24.9904762,73.2380952 C25.8162734,73.2380952 26.4857143,72.5686543 26.4857143,71.7428571 L26.4857143,41.3619048 L37.647619,41.3619048 C38.4734162,41.3619048 39.1428571,40.6924639 39.1428571,39.8666667 L39.1428571,27.8285714 C39.1407161,27.4324533 38.9834423,27.0529448 38.7047619,26.7714286 C38.4244117,26.4909988 38.0441504,26.333413 37.647619,26.3333333 L26.4857143,26.3333333 L26.4857143,19.2857143 C26.4857143,15.9047619 27.2952381,14.1809524 31.7047619,14.1809524 L38.0952381,14.1809524 C38.4909297,14.1809605 38.8702774,14.0231237 39.1491783,13.742435 C39.4280792,13.4617463 39.5834889,13.0813978 39.5809524,12.6857143 L39.5809524,1.51428571 C39.5860334,1.11607967 39.4320526,0.732298587 39.15315,0.448032485 C38.8742474,0.163766383 38.4934687,0.00250413627 38.0952381,0 Z" id="Shape"></path>
            </g>
        </g>
    </g>
</svg>