<?xml version="1.0" encoding="UTF-8"?>
<svg width="40px" height="40px" viewBox="0 0 40 40" version="1.1" xmlns="http://www.w3.org/2000/svg" xmlns:xlink="http://www.w3.org/1999/xlink">
    <!-- Generator: Sketch 51 (57462) - http://www.bohemiancoding.com/sketch -->
    <title>icon-play</title>
    <desc>Created with Sketch.</desc>
    <defs></defs>
    <g id="Icons" stroke="none" stroke-width="1" fill="none" fill-rule="evenodd">
        <g transform="translate(-290.000000, -323.000000)" fill="#FFFFFF" fill-rule="nonzero" id="icon-play">
            <g transform="translate(290.000000, 323.000000)">
                <path d="M37.7661017,10.8474576 C36.3543269,8.11382689 34.3355382,5.73963391 31.8644068,3.90677966 C31.5030815,3.63953002 30.9935209,3.71579339 30.7262712,4.07711866 C30.4590216,4.43844393 30.5352849,4.94800458 30.8966102,5.21525424 C33.1666539,6.8976616 35.0218604,9.07694945 36.320339,11.5864407 C37.6649171,14.1829907 38.3626549,17.0658108 38.3542373,19.9898305 C38.3542372,30.1310556 30.1333154,38.3522303 19.9920903,38.3525423 C9.85086526,38.3528543 1.62943762,30.1321854 1.62881359,19.9909603 C1.62818957,9.84973528 9.84860547,1.6280547 19.9898305,1.62711864 C20.4391469,1.62711864 20.8033898,1.26287573 20.8033898,0.813559322 C20.8033898,0.364242915 20.4391469,2.7512695e-17 19.9898305,0 C11.0391078,0.0030609785 3.18278521,5.9591168 0.762758416,14.5764781 C-1.65726838,23.1938395 1.94969049,32.3691462 9.59020373,37.0315494 C17.230717,41.6939526 27.0398575,40.7054342 33.5964801,34.6123113 C40.1531027,28.5191885 41.8568406,18.808695 37.7661017,10.8474576 Z" id="Shape"></path>
                <path d="M14.8745763,10.7084746 C14.619956,10.8526359 14.4626064,11.1226556 14.4627119,11.4152542 L14.4627119,29.2694915 C14.4627119,29.7188079 14.8269548,30.0830508 15.2762712,30.0830508 C15.7255876,30.0830508 16.0898305,29.7188079 16.0898305,29.2694915 L16.0898305,12.8457627 L28.1355932,20.0169492 L19.2779661,25.7237288 C19.0336328,25.8811679 18.8918522,26.1569979 18.9060318,26.4473163 C18.9202113,26.7376347 19.0881968,26.9983353 19.3467097,27.1312146 C19.6052226,27.2640939 19.9149887,27.2489645 20.159322,27.0915254 L30.120339,20.6779661 C30.357216,20.525557 30.4984044,20.2614644 30.4935725,19.9798336 C30.4887406,19.6982029 30.3385759,19.4391089 30.0966102,19.2949153 L15.6898305,10.720339 C15.4368254,10.5730453 15.1241916,10.5730453 14.8711864,10.720339 L14.8745763,10.7084746 Z" id="Shape"></path>
            </g>
        </g>
    </g>
</svg>