<?xml version="1.0" encoding="UTF-8"?>
<svg width="40px" height="62px" viewBox="0 0 40 62" version="1.1" xmlns="http://www.w3.org/2000/svg" xmlns:xlink="http://www.w3.org/1999/xlink">
    <!-- Generator: Sketch 51 (57462) - http://www.bohemiancoding.com/sketch -->
    <title>icon-ubiety</title>
    <desc>Created with Sketch.</desc>
    <defs></defs>
    <g id="Icons" stroke="none" stroke-width="1" fill="none" fill-rule="evenodd">
        <g transform="translate(-591.000000, -311.000000)" fill="#FFFFFF" fill-rule="nonzero" id="icon-ubiety">
            <g transform="translate(591.000000, 311.000000)">
                <path d="M19.9581699,0 C8.94095208,0.0129656834 0.0129656834,8.94095208 0,19.9581699 C0,29.8013072 6.82614379,42.703268 12.5490196,51.7908497 C12.7871967,52.1709989 13.2100886,52.3952054 13.658396,52.3790127 C14.1067035,52.3628199 14.5123179,52.108688 14.7224483,51.712346 C14.9325787,51.316004 14.9153012,50.8376656 14.6771242,50.4575163 C4.62222222,34.4915033 2.50980392,25.0614379 2.50980392,19.9581699 C2.62674814,10.4042851 10.4048766,2.72078207 19.9594771,2.72078207 C29.5140776,2.72078207 37.2922061,10.4042851 37.4091503,19.9581699 C37.4091503,35.5843137 19.1503268,59.4065359 18.9673203,59.6444444 C18.5839961,60.1935267 18.6993367,60.9468487 19.2293881,61.3560848 C19.7594395,61.7653208 20.5174293,61.6862695 20.951634,61.1764706 C21.7359477,60.1751634 39.9189542,36.4392157 39.9189542,19.9555556 C39.9045455,8.93833936 30.9753895,0.0115224115 19.9581699,0 Z" id="Shape"></path>
                <path d="M19.9581699,13.5947712 C20.6512332,13.5947712 21.2130719,13.0329325 21.2130719,12.3398693 C21.2130719,11.6468061 20.6512332,11.0849673 19.9581699,11.0849673 C15.0575594,11.0921849 11.0901393,15.0697448 11.0954304,19.9703578 C11.1007215,24.8709707 15.0767215,28.8399542 19.9773361,28.8365896 C24.8779508,28.8332249 28.848497,24.8587855 28.8470588,19.9581699 C28.85333,18.0216131 28.2191062,16.1373249 27.0431373,14.5986928 C26.7797738,14.2210181 26.3307322,14.0178991 25.873198,14.0694839 C25.4156639,14.1210686 25.0231214,14.4190721 24.8504624,14.8459062 C24.6778034,15.2727403 24.7527586,15.7598517 25.0457516,16.1150327 C25.8873902,17.2190768 26.3413453,18.5699149 26.3372549,19.9581699 C26.3386908,23.4726585 23.4918211,26.3234181 19.9773338,26.326781 C16.4628465,26.330144 13.6105264,23.4848377 13.6052365,19.9703528 C13.5999466,16.4558679 16.4436885,13.6019881 19.9581699,13.5947712 Z" id="Shape"></path>
            </g>
        </g>
    </g>
</svg>