<?xml version="1.0" encoding="UTF-8"?>
<svg width="42px" height="39px" viewBox="0 0 42 39" version="1.1" xmlns="http://www.w3.org/2000/svg" xmlns:xlink="http://www.w3.org/1999/xlink">
    <!-- Generator: Sketch 51.1 (57501) - http://www.bohemiancoding.com/sketch -->
    <title>icon-heart</title>
    <desc>Created with Sketch.</desc>
    <defs></defs>
    <g id="Icons" stroke="none" stroke-width="1" fill="none" fill-rule="evenodd">
        <g transform="translate(-501.000000, -226.000000)" fill="#2C154D" fill-rule="nonzero" id="icon-heart">
            <g transform="translate(501.000000, 226.000000)">
                <path d="M41.53,11.53 C40.92,4.85 36.19,0 30.27,0 C26.3231856,0.0282633855 22.6814986,2.12821428 20.68,5.53 C18.79086,2.13324887 15.2166946,0.0193307196 11.33,6.38378239e-16 C5.41,0 0.68,4.85 0.07,11.53 C-0.0900947652,13.0023277 0.0286429269,14.4916377 0.42,15.92 C1.32398317,19.6321191 3.33234279,22.9828718 6.18,25.53 L20.68,38.68 L35.41,25.53 C38.2637945,22.986268 40.2762192,19.6345519 41.18,15.92 C41.5596016,14.4896018 41.6781652,13.0024753 41.53,11.53 Z M39.62,15.53 C38.7934301,18.9281865 36.9517612,21.9941468 34.34,24.32 L20.68,36.53 L7.26,24.34 C4.65213797,22.0142752 2.81692002,18.9474376 2,15.55 C1.65271116,14.3323481 1.53404158,13.0608883 1.65,11.8 L1.65,11.72 C2.17,5.87 6.24,1.62 11.32,1.62 C15.1458537,1.6744588 18.5542474,4.04964603 19.93,7.62 L20.67,9.36 L21.41,7.62 C22.8789441,4.01736074 26.3695176,1.65087025 30.26,1.62 C35.35,1.61 39.42,5.86 40,11.8 C40.1170345,13.0662878 40.0052534,14.3433024 39.67,15.57 L39.62,15.53 Z" id="Shape"></path>
            </g>
        </g>
    </g>
</svg>