<?xml version="1.0" encoding="UTF-8"?>
<svg width="40px" height="74px" viewBox="0 0 40 74" version="1.1" xmlns="http://www.w3.org/2000/svg" xmlns:xlink="http://www.w3.org/1999/xlink">
    <!-- Generator: Sketch 51.1 (57501) - http://www.bohemiancoding.com/sketch -->
    <title>icon-arrow--right</title>
    <desc>Created with Sketch.</desc>
    <defs></defs>
    <g id="Icons" stroke="none" stroke-width="1" fill="none" fill-rule="evenodd">
        <g transform="translate(-731.000000, -310.000000)" fill="#FFFFFF" fill-rule="nonzero" id="icon-arrow--right">
            <g transform="translate(731.000000, 310.000000)">
                <path d="M5.17647059,72.8156863 C4.70317244,73.315617 4.04529664,73.5991842 3.35686275,73.6 C2.66842885,73.5991842 2.01055305,73.315617 1.5372549,72.8156863 C1.05447735,72.3331958 0.783231592,71.678626 0.783231592,70.9960784 C0.783231592,70.3135309 1.05447735,69.658961 1.5372549,69.1764706 L33.5372549,37.1764706 L1.56862745,5.17647059 C0.555022524,4.18019221 0.540976568,2.55085987 1.53725493,1.53725493 C2.53353329,0.523649987 4.16286563,0.509604006 5.17647059,1.50588235 L38.9960784,35.3568627 C39.478856,35.8393532 39.7501017,36.493923 39.7501017,37.1764706 C39.7501017,37.8590182 39.478856,38.513588 38.9960784,38.9960784 L5.17647059,72.8156863 Z" id="Shape"></path>
            </g>
        </g>
    </g>
</svg>