<?xml version="1.0" encoding="UTF-8"?>
<svg width="40px" height="22px" viewBox="0 0 40 22" version="1.1" xmlns="http://www.w3.org/2000/svg" xmlns:xlink="http://www.w3.org/1999/xlink">
    <!-- Generator: Sketch 51 (57462) - http://www.bohemiancoding.com/sketch -->
    <title>icon-arrow-up</title>
    <desc>Created with Sketch.</desc>
    <defs></defs>
    <g id="Icons" stroke="none" stroke-width="1" fill="none" fill-rule="evenodd">
        <g transform="translate(-170.000000, -332.000000)" fill="#FFFFFF" fill-rule="nonzero" id="icon-arrow-up">
            <g transform="translate(170.000000, 332.000000)">
                <path d="M39.506383,19.1829787 C39.7683155,19.4447555 39.9154807,19.7998944 39.9154807,20.1702128 C39.9154807,20.5405311 39.7683155,20.8956701 39.506383,21.1574468 C39.2446062,21.4193793 38.8894673,21.5665446 38.5191489,21.5665446 C38.1488306,21.5665446 37.7936916,21.4193793 37.5319149,21.1574468 L20.1702128,3.79574468 L2.80851064,21.1744681 C2.25857603,21.7244027 1.36695589,21.7244027 0.817021302,21.1744681 C0.26708671,20.6245335 0.267086699,19.7329133 0.817021277,19.1829787 L19.1829787,0.834042553 C19.4447555,0.57211005 19.7998944,0.4249448 20.1702128,0.4249448 C20.5405311,0.4249448 20.8956701,0.57211005 21.1574468,0.834042553 L39.506383,19.1829787 Z" id="Shape"></path>
            </g>
        </g>
    </g>
</svg>