<?xml version="1.0" encoding="UTF-8"?>
<svg width="40px" height="22px" viewBox="0 0 40 22" version="1.1" xmlns="http://www.w3.org/2000/svg" xmlns:xlink="http://www.w3.org/1999/xlink">
    <!-- Generator: Sketch 51 (57462) - http://www.bohemiancoding.com/sketch -->
    <title>icon-arrow-down</title>
    <desc>Created with Sketch.</desc>
    <defs></defs>
    <g id="Icons" stroke="none" stroke-width="1" fill="none" fill-rule="evenodd">
        <g transform="translate(-230.000000, -332.000000)" fill="#FFFFFF" fill-rule="nonzero" id="icon-arrow-down">
            <g transform="translate(230.000000, 332.000000)">
                <path d="M0.412903226,2.40860215 C0.151386155,2.14325061 0.00861375444,1.78321587 0.0172043011,1.41075269 C0.0132568836,1.0442206 0.155681388,0.691255526 0.412903226,0.430107527 C0.67749476,0.165358545 1.0364524,0.0166108729 1.41075269,0.0166108729 C1.78505297,0.0166108729 2.14401062,0.165358545 2.40860215,0.430107527 L19.9569892,17.9784946 L37.5053763,0.430107527 C38.0638149,-0.0404495609 38.8890475,-0.00706333703 39.4076488,0.507067279 C39.9262501,1.02119789 39.9667798,1.84611049 39.5010753,2.40860215 L20.9548387,20.9548387 C20.6902472,21.2195877 20.3312895,21.3683354 19.9569892,21.3683354 C19.582689,21.3683354 19.2237313,21.2195877 18.9591398,20.9548387 L0.412903226,2.40860215 Z" id="Shape"></path>
            </g>
        </g>
    </g>
</svg>