<?xml version="1.0" encoding="UTF-8"?>
<svg width="14px" height="16px" viewBox="0 0 14 16" version="1.1" xmlns="http://www.w3.org/2000/svg" xmlns:xlink="http://www.w3.org/1999/xlink">
    <!-- Generator: Sketch 51.1 (57501) - http://www.bohemiancoding.com/sketch -->
    <title>icon-arrow-double-left</title>
    <desc>Created with Sketch.</desc>
    <defs></defs>
    <g id="Icons" stroke="none" stroke-width="1" fill="none" fill-rule="evenodd">
        <g transform="translate(-541.000000, -164.000000)" fill="#351F54" fill-rule="nonzero" id="icon-arrow-double-left">
            <g transform="translate(541.000000, 164.000000)">
                <g id="icon-arrow--right-copy-2" transform="translate(10.000000, 8.000000) rotate(-90.000000) translate(-10.000000, -8.000000) translate(2.000000, 4.000000)">
                    <path d="M5.19554849,11.1631373 C5.1060056,11.2631234 4.98154261,11.3198368 4.85129836,11.32 C4.72105411,11.3198368 4.59659112,11.2631234 4.50704822,11.1631373 C4.41571193,11.0666392 4.36439517,10.9357252 4.36439517,10.7992157 C4.36439517,10.6627062 4.41571193,10.5317922 4.50704822,10.4352941 L10.5611023,4.03529412 L4.51298357,-2.36470588 C4.32122048,-2.56396156 4.31856313,-2.88982803 4.50704823,-3.09254901 C4.69553333,-3.29527 5.00378539,-3.2980792 5.19554849,-3.09882353 L11.5938527,3.67137255 C11.685189,3.76787064 11.7365057,3.8987846 11.7365057,4.03529412 C11.7365057,4.17180363 11.685189,4.3027176 11.5938527,4.39921569 L5.19554849,11.1631373 Z" id="Shape" transform="translate(8.050450, 4.036777) rotate(-90.000000) translate(-8.050450, -4.036777) "></path>
                </g>
                <g id="icon-arrow--right-copy-3" transform="translate(4.000000, 8.000000) rotate(-90.000000) translate(-4.000000, -8.000000) translate(-4.000000, 4.000000)">
                    <path d="M5.19554849,11.1631373 C5.1060056,11.2631234 4.98154261,11.3198368 4.85129836,11.32 C4.72105411,11.3198368 4.59659112,11.2631234 4.50704822,11.1631373 C4.41571193,11.0666392 4.36439517,10.9357252 4.36439517,10.7992157 C4.36439517,10.6627062 4.41571193,10.5317922 4.50704822,10.4352941 L10.5611023,4.03529412 L4.51298357,-2.36470588 C4.32122048,-2.56396156 4.31856313,-2.88982803 4.50704823,-3.09254901 C4.69553333,-3.29527 5.00378539,-3.2980792 5.19554849,-3.09882353 L11.5938527,3.67137255 C11.685189,3.76787064 11.7365057,3.8987846 11.7365057,4.03529412 C11.7365057,4.17180363 11.685189,4.3027176 11.5938527,4.39921569 L5.19554849,11.1631373 Z" id="Shape" transform="translate(8.050450, 4.036777) rotate(-90.000000) translate(-8.050450, -4.036777) "></path>
                </g>
            </g>
        </g>
    </g>
</svg>