<?xml version="1.0" encoding="UTF-8"?>
<svg width="40px" height="40px" viewBox="0 0 40 40" version="1.1" xmlns="http://www.w3.org/2000/svg" xmlns:xlink="http://www.w3.org/1999/xlink">
    <!-- Generator: Sketch 51 (57462) - http://www.bohemiancoding.com/sketch -->
    <title>icon-user-nav</title>
    <desc>Created with Sketch.</desc>
    <defs></defs>
    <g id="Icons" stroke="none" stroke-width="1" fill="none" fill-rule="evenodd">
        <g transform="translate(-50.000000, -323.000000)" fill="#FFFFFF" fill-rule="nonzero" id="icon-user-nav">
            <g transform="translate(50.000000, 323.000000)">
                <path d="M33.9807509,5.83084742 C27.3889082,-0.761722148 17.1043085,-1.89551558 9.23466584,3.10279289 C1.36502314,8.10110136 -1.98082225,17.8921073 1.18412647,26.6612272 C1.26567842,26.9542514 1.50449144,27.1769053 1.80250229,27.2377611 C2.10051315,27.2986169 2.4075009,27.1874191 2.59740789,26.9498286 C2.78731487,26.7122381 2.82813786,26.3882938 2.70311382,26.1110162 C-0.357272674,17.6375909 3.21091414,8.19772863 11.1110522,3.86728739 C19.0111902,-0.463153845 28.8883775,1.60665966 34.3852769,8.74451643 C39.8821763,15.8823732 39.360252,25.9605948 33.1554345,32.4924508 L33.0389788,32.6173453 C32.9697805,32.6899192 32.9022699,32.7641808 32.8313839,32.8350668 C25.6854719,39.9642618 14.1173802,39.9642618 6.97146825,32.8350668 L6.86007584,32.7186111 C6.86007584,32.6443495 6.86007584,32.5717757 6.86007584,32.4992019 C6.86007584,32.3304255 6.86007584,32.1734635 6.86007584,32.0114381 L6.87020242,31.8426618 C6.87020242,31.7346449 6.88032901,31.626628 6.88708006,31.5202989 C6.88708006,31.4561639 6.89889441,31.3920289 6.90564546,31.3295816 C6.90564546,31.2333791 6.92083533,31.1354888 6.93264968,31.0392862 C6.93264968,30.9734635 6.94952732,30.9059529 6.95796614,30.8384424 C6.96640495,30.7709318 6.97990706,30.6544761 6.99340917,30.5650246 C7.00691128,30.4755732 7.0153501,30.426628 7.02716445,30.3591175 C7.03897879,30.2916069 7.05585643,30.1802145 7.07273407,30.0941386 C7.08961171,30.0080626 7.09973829,29.9540542 7.1132404,29.8848559 C7.12674251,29.8156575 7.14868344,29.7160795 7.16724884,29.626628 C7.18581424,29.5371765 7.20100411,29.4882314 7.21619398,29.4190331 C7.23138386,29.3498348 7.25670031,29.2502567 7.27864124,29.1675563 C7.30058217,29.0848559 7.31745981,29.0291597 7.33602521,28.9599613 L7.40691128,28.7118601 C7.42716445,28.6443495 7.44910538,28.5751512 7.47273407,28.5076407 C7.49636276,28.4401301 7.52336698,28.3388643 7.5503712,28.2646027 C7.57737542,28.1903411 7.59931635,28.1278938 7.62294504,28.0603833 C7.64657373,27.9928727 7.68032901,27.9017335 7.71070875,27.8224086 C7.7410885,27.7430837 7.76302943,27.6890753 7.79003365,27.6215647 C7.81703787,27.5540542 7.8524809,27.4646027 7.88623618,27.3869656 C7.91999145,27.3093284 7.94362014,27.25532 7.97231213,27.1894972 C8.00100411,27.1236744 8.04151044,27.0359107 8.07695348,26.9599613 C8.11239652,26.884012 8.13771297,26.8300035 8.16978048,26.7658685 C8.20184799,26.7017335 8.24404209,26.6139698 8.28286065,26.5397082 L8.38075095,26.3489909 L8.50226993,26.1262061 L8.60859905,25.9422398 C8.65079314,25.8679782 8.69298723,25.7954044 8.73686909,25.7228305 L8.84994926,25.5422398 C8.89383111,25.469666 8.9410885,25.3987799 8.98665812,25.3278938 C9.03222774,25.2570078 9.06429525,25.2097504 9.10480158,25.1591175 C9.14530791,25.1084846 9.20100411,25.0190331 9.24994926,24.9498348 L9.37315601,24.7810584 C9.42378892,24.7118601 9.4761096,24.6443495 9.52674251,24.576839 L9.65670031,24.4080626 C9.70902099,24.3422398 9.76302943,24.2747293 9.82547668,24.2089065 L9.95881002,24.0401301 L10.1275864,23.8460373 L10.265983,23.690763 L10.444886,23.5000457 L10.5883459,23.3498348 L10.7756877,23.1658685 L10.9242109,23.0224086 L11.1199915,22.8418179 L11.2702024,22.705109 C11.337713,22.6460373 11.408599,22.5869656 11.4777974,22.5363327 L11.6296961,22.4080626 L11.8474176,22.2392862 C11.8997383,22.2004677 11.9503712,22.1599613 12.0010041,22.119455 L12.2356033,21.9506786 L12.3841265,21.8426618 C12.4702024,21.7819023 12.5529028,21.7228305 12.6474176,21.6637588 L12.7773754,21.5759951 C12.8938311,21.5017335 13.0102868,21.4274719 13.1284303,21.3565858 L13.1824387,21.3228305 C13.3208353,21.2418179 13.459232,21.1540542 13.5993163,21.0848559 C13.6465737,21.0578516 13.6955189,21.0342229 13.744464,21.0072187 C13.837291,20.9582736 13.930118,20.9076407 14.0246328,20.8603833 L14.2136623,20.769244 L14.4465737,20.6578516 C17.4969368,23.5877256 22.3160418,23.5877256 25.366405,20.6578516 C28.2551556,22.0027376 30.559209,24.3481597 31.8524809,27.2603833 C32.0328473,27.6700527 32.5111659,27.8559396 32.9208353,27.6755732 C33.3305048,27.4952067 33.5163916,27.0168882 33.3360252,26.6072187 C31.9592836,23.4648782 29.5202306,20.9075175 26.4465737,19.38359 C28.0981727,16.9618664 28.2735099,13.8248711 26.9020716,11.2341798 C25.5306332,8.64348855 22.8377869,7.02482801 19.9064893,7.02915966 C19.4590688,7.02915966 19.0963628,7.39186568 19.0963628,7.83928624 C19.0963628,8.2867068 19.4590688,8.64941282 19.9064893,8.64941282 C22.3929669,8.64511242 24.6481094,10.1074428 25.6586088,12.3793318 C26.6691083,14.6512209 26.2448754,17.305294 24.5765315,19.1489909 C23.3877713,20.4764388 21.6901055,21.2350382 19.9081771,21.2350382 C18.1262487,21.2350382 16.428583,20.4764388 15.2398227,19.1489909 C12.9790922,16.6569252 13.0847915,12.8256987 15.4794851,10.462071 C15.7552215,10.1430956 15.7401936,9.66594857 15.444931,9.36495701 C15.1496684,9.06396544 14.6728982,9.03977196 14.3486834,9.30932843 C11.6363955,11.9883887 11.225254,16.2226485 13.3714682,19.3734635 L13.3478396,19.3852778 L13.1604978,19.4831681 C13.0642952,19.5321132 12.9680927,19.5810584 12.873578,19.6333791 L12.6744218,19.7464592 C12.5866581,19.7954044 12.5056455,19.8460373 12.4094429,19.898358 C12.3132404,19.9506786 12.2761096,19.9793706 12.208599,20.019877 C12.1410885,20.0603833 12.0398227,20.1228305 11.95881,20.176839 L11.7579661,20.3084846 L11.5199915,20.4772609 L11.3225231,20.6173453 L11.0929872,20.7861217 L10.9005822,20.9329571 L10.6794851,21.1017335 L10.4904556,21.2570078 L10.2693585,21.4443495 L10.0870801,21.6131259 L9.88117289,21.7819023 L9.71239652,21.9506786 L9.51155263,22.148147 L9.34277626,22.3169234 L9.14868344,22.5228305 L8.98834588,22.6916069 L8.79931635,22.9093284 L8.64741761,23.0781048 L8.4617636,23.3093284 L8.32336698,23.4781048 C8.2575442,23.562493 8.19509694,23.6468812 8.13264968,23.7329571 C8.09214335,23.7869656 8.05163702,23.8392862 8.01281846,23.9017335 C7.93349356,24.0114381 7.85585643,24.1245183 7.7782193,24.2392862 L7.71745981,24.32705 C7.62125728,24.4705099 7.52843027,24.6139698 7.43897879,24.7608052 C7.40691128,24.8097504 7.3782193,24.862071 7.34783955,24.912704 C7.28876782,25.0089065 7.22969609,25.1067968 7.17906318,25.2046871 C7.14362014,25.2671343 7.10986487,25.3295816 7.07779736,25.3903411 C7.02716445,25.4803552 6.9782193,25.5698066 6.93096192,25.6586955 C6.89551888,25.7262061 6.8617636,25.7937166 6.82800833,25.8612272 C6.79425306,25.9287377 6.74024462,26.0300035 6.69805052,26.1228305 C6.65585643,26.2156575 6.63222774,26.2629149 6.60016023,26.333801 C6.56809272,26.4046871 6.51914757,26.5025774 6.48032901,26.5954044 L6.38918976,26.8131259 C6.35205896,26.9008896 6.31661593,26.9819023 6.28117289,27.0747293 C6.24572985,27.1675563 6.22378892,27.2232525 6.19509694,27.2975141 C6.16640495,27.3717757 6.12927415,27.4747293 6.09720664,27.5641808 C6.06513913,27.6536322 6.04488597,27.7143917 6.01956951,27.7920289 C5.99425306,27.869666 5.96049778,27.969244 5.9318058,28.0603833 L5.86091972,28.2899192 C5.8339155,28.3810584 5.80859905,28.4721976 5.78328259,28.5633369 C5.75796614,28.6544761 5.7410885,28.7186111 5.72083533,28.7962483 C5.70058217,28.8738854 5.67357795,28.9819023 5.65163702,29.0747293 C5.62969609,29.1675563 5.61450622,29.2300035 5.59762858,29.3076407 C5.58075095,29.3852778 5.55881002,29.498358 5.53855685,29.5928727 L5.49298723,29.8257841 C5.4761096,29.9236744 5.45923196,30.0215647 5.44404209,30.119455 C5.42885221,30.2173453 5.41872563,30.2730415 5.40691128,30.3489909 C5.39340917,30.4502567 5.37990706,30.5515225 5.36809272,30.6527883 C5.35796614,30.72705 5.34783955,30.8029993 5.33940074,30.8789487 C5.32758639,30.98359 5.31914757,31.0916069 5.31070875,31.197936 C5.31070875,31.2688221 5.29551888,31.3397082 5.29045559,31.412282 C5.28201677,31.5304255 5.27695348,31.6502567 5.27189019,31.7700879 C5.27189019,31.8308474 5.26345137,31.8882314 5.2617636,31.9489909 C5.2617636,32.1295816 5.25163702,32.3084846 5.25163702,32.490763 C5.25163702,32.6730415 5.25163702,32.8705099 5.26513913,33.0747293 C5.26859357,33.1211872 5.27479286,33.1674001 5.28370453,33.2131259 C5.28370453,33.2131259 5.28370453,33.2131259 5.28370453,33.2232525 C5.29415953,33.2669124 5.30769554,33.3097764 5.32421086,33.3515225 C5.32421086,33.3515225 5.32421086,33.3515225 5.32421086,33.3633369 C5.34107819,33.4038301 5.36140669,33.4427931 5.38497036,33.4797926 C5.38815807,33.4840479 5.39098102,33.4885646 5.39340917,33.4932947 C5.41748352,33.5292931 5.44458608,33.5631712 5.47442183,33.5945605 L5.58075095,33.7093284 C5.6617636,33.7954044 5.74952732,33.8781048 5.82716445,33.9658685 C13.6057003,41.7270856 26.1988396,41.7270856 33.9773754,33.9658685 C34.0617636,33.8814803 34.1461518,33.7970921 34.2237889,33.7093284 L34.330118,33.5945605 C41.7645144,25.7711656 41.608029,13.4477531 33.9773754,5.81565755 L33.9807509,5.83084742 Z" id="Shape"></path>
            </g>
        </g>
    </g>
</svg>