<?xml version="1.0" encoding="UTF-8"?>
<svg width="40px" height="29px" viewBox="0 0 40 29" version="1.1" xmlns="http://www.w3.org/2000/svg" xmlns:xlink="http://www.w3.org/1999/xlink">
    <!-- Generator: Sketch 51.1 (57501) - http://www.bohemiancoding.com/sketch -->
    <title>icon-message</title>
    <desc>Created with Sketch.</desc>
    <defs></defs>
    <g id="Icons" stroke="none" stroke-width="1" fill="none" fill-rule="evenodd">
        <g transform="translate(-753.000000, -324.000000)" fill="#FFFFFF" fill-rule="nonzero" id="icon-message">
            <g transform="translate(753.000000, 324.000000)">
                <path d="M32.144,21.792 C31.976814,21.7974589 31.8147643,21.7337965 31.696,21.616 L24.336,14.72 C24.0753216,14.4769947 24.0609947,14.0686784 24.304,13.808 C24.5470053,13.5473216 24.9553216,13.5329947 25.216,13.776 L32.576,20.688 C32.8218759,20.9422837 32.8218759,21.3457163 32.576,21.6 C32.4539479,21.7245384 32.2863644,21.7938832 32.112,21.792 L32.144,21.792 Z" id="Shape"></path>
                <path d="M7.552,21.792 C7.29175596,21.7884471 7.05958271,21.6276482 6.96474112,21.3852752 C6.86989952,21.1429023 6.93128124,20.867234 7.12,20.688 L14.48,13.776 C14.7406784,13.5329947 15.1489947,13.5473216 15.392,13.808 C15.6350053,14.0686784 15.6206784,14.4769947 15.36,14.72 L8,21.616 C7.88123574,21.7337965 7.71918599,21.7974589 7.552,21.792 Z" id="Shape"></path>
                <path d="M36.496,28.224 L3.2,28.224 C1.4326888,28.224 2.164332e-16,26.7913112 0,25.024 L0,3.2 C-2.164332e-16,1.4326888 1.4326888,3.24649801e-16 3.2,0 L36.496,0 C38.2633112,1.082166e-16 39.696,1.4326888 39.696,3.2 L39.696,25.024 C39.696,26.7913112 38.2633112,28.224 36.496,28.224 Z M3.2,1.28 C2.13961328,1.28 1.28,2.13961328 1.28,3.2 L1.28,25.024 C1.28,26.0843867 2.13961328,26.944 3.2,26.944 L36.496,26.944 C37.5563867,26.944 38.416,26.0843867 38.416,25.024 L38.416,3.2 C38.416,2.13961328 37.5563867,1.28 36.496,1.28 L3.2,1.28 Z" id="Shape"></path>
                <path d="M19.856,17.328 C18.9953829,17.3382617 18.1600613,17.0370913 17.504,16.48 L1.056,2.144 C0.818142842,1.88652634 0.818142842,1.48947366 1.056,1.232 C1.31028374,0.98612406 1.71371626,0.98612406 1.968,1.232 L18.4,15.632 C19.285478,16.3348574 20.538522,16.3348574 21.424,15.632 L37.76,1.2 C38.0142837,0.95412406 38.4177163,0.95412406 38.672,1.2 C38.7932178,1.31752818 38.8616361,1.47916096 38.8616361,1.648 C38.8616361,1.81683904 38.7932178,1.97847182 38.672,2.096 L22.272,16.496 C21.6130633,17.0481082 20.7796511,17.3485901 19.92,17.344 L19.856,17.328 Z" id="Shape"></path>
            </g>
        </g>
    </g>
</svg>