<?xml version="1.0" encoding="UTF-8"?>
<svg width="40px" height="41px" viewBox="0 0 40 41" version="1.1" xmlns="http://www.w3.org/2000/svg" xmlns:xlink="http://www.w3.org/1999/xlink">
    <!-- Generator: Sketch 51 (57462) - http://www.bohemiancoding.com/sketch -->
    <title>icon-search</title>
    <desc>Created with Sketch.</desc>
    <defs></defs>
    <g id="Icons" stroke="none" stroke-width="1" fill="none" fill-rule="evenodd">
        <g transform="translate(-110.000000, -322.000000)" fill="#FFFFFF" fill-rule="nonzero" id="icon-search">
            <g transform="translate(110.000000, 322.000000)">
                <path d="M39.527027,38.2744283 L29.2203742,28.1392931 C32.0124005,25.1282776 33.5659127,21.1748952 33.5706861,17.0686071 C33.5377266,12.6519692 31.7515506,8.42933263 28.6051232,5.32969223 C25.4586957,2.23005183 21.2097753,0.50733321 16.7931393,0.540540541 C12.3738133,0.503174889 8.12088193,2.22405249 4.97107452,5.32414149 C1.82126711,8.42423049 0.0329467873,12.6492459 0,17.0686071 C0.037062114,21.4852554 1.82719377,25.7062685 4.97655258,28.8029917 C8.12591139,31.899715 12.3764936,33.6184568 16.7931393,33.5810811 C20.6320977,33.5871148 24.3593888,32.2897096 27.3648649,29.9012474 L37.7027027,40.0675676 C38.2074263,40.5690413 39.0223035,40.5690413 39.527027,40.0675676 C39.7740782,39.8348096 39.9141372,39.5104248 39.9141372,39.1709979 C39.9141372,38.8315711 39.7740782,38.5071863 39.527027,38.2744283 Z M16.7931393,31.039501 C13.0416576,31.0853559 9.42802038,29.6271235 6.75905968,26.9903895 C4.09009897,24.3536556 2.58807735,20.7579989 2.58835759,17.006237 C2.58807735,13.2544751 4.09009897,9.65881843 6.75905968,7.02208447 C9.42802038,4.38535051 13.0416576,2.9271181 16.7931393,2.97297297 C20.5446209,2.9271181 24.1582582,4.38535051 26.8272189,7.02208447 C29.4961796,9.65881843 30.9982012,13.2544751 30.997921,17.006237 C30.9982012,20.7579989 29.4961796,24.3536556 26.8272189,26.9903895 C24.1582582,29.6271235 20.5446209,31.0853559 16.7931393,31.039501 Z" id="Shape"></path>
            </g>
        </g>
    </g>
</svg>