<?xml version="1.0" encoding="UTF-8"?>
<svg width="40px" height="40px" viewBox="0 0 40 40" version="1.1" xmlns="http://www.w3.org/2000/svg" xmlns:xlink="http://www.w3.org/1999/xlink">
    <!-- Generator: Sketch 51.1 (57501) - http://www.bohemiancoding.com/sketch -->
    <title>icon-instagram</title>
    <desc>Created with Sketch.</desc>
    <defs></defs>
    <g id="Icons" stroke="none" stroke-width="1" fill="none" fill-rule="evenodd">
        <g transform="translate(-774.000000, -81.000000)" fill="#2C154D" fill-rule="nonzero" id="icon-instagram">
            <g transform="translate(774.000000, 81.000000)">
                <path d="M28.0856624,0 L11.9172414,0 C5.34591652,0 0,5.34591652 0,11.9172414 L0,28.0856624 C0,34.6562613 5.34591652,40 11.9172414,40 L28.0856624,40 C34.6562613,40 40,34.6562613 40,28.0856624 L40,11.9172414 C40,5.34591652 34.6562613,0 28.0856624,0 Z M35.9782214,28.0856624 C35.9778206,32.4444363 32.4444363,35.9778206 28.0856624,35.9782214 L11.9172414,35.9782214 C7.55818397,35.9782214 4.02435735,32.4447198 4.02395644,28.0856624 L4.02395644,11.9172414 C4.02395644,7.55790048 7.55790048,4.02395644 11.9172414,4.02395644 L28.0856624,4.02395644 C32.4447198,4.02435735 35.9782214,7.55818397 35.9782214,11.9172414 L35.9782214,28.0856624 Z" id="Shape"></path>
                <path d="M20.0014519,9.65517241 C14.2961887,9.65517241 9.65517241,14.2961887 9.65517241,20.0014519 C9.65517241,25.7067151 14.2961887,30.3448276 20.0014519,30.3448276 C25.7067151,30.3448276 30.3448276,25.7059891 30.3448276,20.0014519 C30.3448276,14.2969147 25.7059891,9.65517241 20.0014519,9.65517241 Z M20.0014519,26.323049 C17.4441788,26.3233426 15.1385617,24.7830657 14.1598,22.4205096 C13.1810384,20.0579535 13.7219033,17.3384336 15.5301685,15.5301685 C17.3384336,13.7219033 20.0579535,13.1810384 22.4205096,14.1598 C24.7830657,15.1385617 26.3233426,17.4441788 26.323049,20.0014519 C26.3226482,23.4926075 23.4926075,26.3226482 20.0014519,26.323049 Z" id="Shape"></path>
                <circle id="Oval" cx="30.3673321" cy="9.73284936" r="2.47912886"></circle>
            </g>
        </g>
    </g>
</svg>